<?xml version="1.0" encoding="UTF-8"?>
<svg version="1.1" xmlns="http://www.w3.org/2000/svg" width="512" height="512">
<path d="M0 0 C29.15901281 24.75938903 48.31425224 57.10630868 53.546875 95.31347656 C53.67578125 96.1475 53.8046875 96.98152344 53.9375 97.84082031 C61.06848214 152.73061701 34.96637938 217.55728288 6.546875 263.31347656 C5.09375 265.12207031 5.09375 265.12207031 3.546875 266.31347656 C-0.140625 266.50097656 -0.140625 266.50097656 -3.453125 266.31347656 C-3.69546875 266.99410156 -3.9378125 267.67472656 -4.1875 268.37597656 C-5.98435086 272.54644523 -8.42472767 276.33238401 -10.8828125 280.14160156 C-12.14571048 282.14408478 -12.14571048 282.14408478 -13.453125 285.31347656 C-12.83821185 288.07385311 -12.83821185 288.07385311 -11.453125 290.31347656 C-10.6835203 295.26093535 -12.18894619 298.34101684 -14.48046875 302.57910156 C-16.77357411 304.59521795 -17.83267951 304.62349151 -20.79296875 305.05566406 C-24.62903373 305.77767366 -26.26670561 306.68982022 -28.5546875 309.86816406 C-29.42508586 311.29077891 -30.26600062 312.73180902 -31.078125 314.18847656 C-31.52285156 314.9090625 -31.96757812 315.62964844 -32.42578125 316.37207031 C-34.87521718 320.104614 -34.87521718 320.104614 -35.08886719 324.35327148 C-34.87907227 325.00013916 -34.66927734 325.64700684 -34.453125 326.31347656 C-33.59525882 333.16799555 -36.14937898 336.90755531 -39.828125 342.37597656 C-40.3754126 343.21451172 -40.9227002 344.05304688 -41.48657227 344.91699219 C-45.44707193 350.93911394 -49.5791406 356.82957746 -53.82421875 362.65332031 C-56.97030263 366.99053406 -59.95005353 371.43921443 -62.953125 375.87597656 C-67.46740831 382.52136489 -72.1313035 388.97736717 -77.09375 395.29394531 C-78.7595384 397.42582352 -80.39326742 399.56403626 -82 401.73925781 C-82.41217773 402.29685791 -82.82435547 402.85445801 -83.24902344 403.42895508 C-84.38193481 404.96683863 -85.51139674 406.50726157 -86.640625 408.04785156 C-88.88190263 410.8494486 -89.72587253 411.21650957 -93.265625 411.68847656 C-97.94831021 411.13757242 -99.82465657 408.33153225 -102.7175293 404.74658203 C-104.14311165 402.87538754 -105.5218442 400.97663848 -106.890625 399.06347656 C-107.43138672 398.31114746 -107.97214844 397.55881836 -108.52929688 396.78369141 C-118.18405567 383.20241889 -127.28182146 369.223233 -136.453125 355.31347656 C-137.13004395 354.28770508 -137.80696289 353.26193359 -138.50439453 352.20507812 C-151.82844542 331.97454041 -164.40447085 311.32748104 -176.453125 290.31347656 C-177.30559814 288.82920166 -177.30559814 288.82920166 -178.17529297 287.31494141 C-213.09859304 226.30627769 -255.77074961 150.52637742 -237.1640625 78.03613281 C-226.20987608 38.49061825 -201.43390829 6.31854263 -165.9375 -14.36230469 C-114.03679794 -43.49493644 -45.95771451 -38.26908171 0 0 Z M-145.38671875 67.40332031 C-146.7656406 69.02032938 -148.1130387 70.66413957 -149.453125 72.31347656 C-152.40977019 73.79179916 -155.19542237 73.37380439 -158.453125 73.31347656 C-162.85860591 81.35454852 -166.81091499 89.18304403 -169.015625 98.12597656 C-169.18352539 98.80080078 -169.35142578 99.475625 -169.52441406 100.17089844 C-170.2555032 103.40221339 -170.52087969 105.11021248 -169.453125 108.31347656 C-168.13665381 109.01285188 -166.80290349 109.6807679 -165.453125 110.31347656 C-164.21104967 112.79762721 -164.11877441 115.13769239 -163.85864258 117.87304688 C-161.69064822 140.27646447 -152.56031203 157.13626101 -135.578125 171.68847656 C-121.30241237 182.58786986 -103.15389501 186.78713323 -85.453125 185.31347656 C-68.10891149 182.9796596 -53.35638149 174.94623009 -41.453125 162.31347656 C-40.70417969 161.52199219 -39.95523438 160.73050781 -39.18359375 159.91503906 C-26.7555085 145.60967134 -22.14135763 127.1935346 -23.24609375 108.56689453 C-24.95853658 89.92792361 -34.16425628 73.25961641 -48.11328125 60.96972656 C-77.73748968 38.28255663 -119.41537171 39.33327856 -145.38671875 67.40332031 Z " fill="#FB485E" transform="translate(349.453125,41.6865234375)"/>
<path d="M0 0 C29.15901281 24.75938903 48.31425224 57.10630868 53.546875 95.31347656 C53.67578125 96.1475 53.8046875 96.98152344 53.9375 97.84082031 C61.06848214 152.73061701 34.96637938 217.55728288 6.546875 263.31347656 C4.43291624 265.84031789 3.97567702 266.24961243 0.609375 266.75097656 C-2.453125 266.31347656 -2.453125 266.31347656 -4.828125 264.75097656 C-7.06376706 261.39751347 -6.76473208 259.30380708 -6.453125 255.31347656 C-5.17480469 252.04150391 -5.17480469 252.04150391 -3.375 248.64941406 C-2.70782396 247.36475705 -2.04066997 246.08008858 -1.37353516 244.79541016 C-1.01962708 244.12693054 -0.66571899 243.45845093 -0.30108643 242.76971436 C1.58177601 239.20065958 3.40592345 235.60207993 5.2265625 232.00097656 C5.59645294 231.26954437 5.96634338 230.53811218 6.34744263 229.78451538 C30.06786005 182.51339761 49.10024288 125.55509462 32.86621094 73.11474609 C31.39459793 68.69240977 29.56696879 64.50940833 27.546875 60.31347656 C27.21671387 59.62705078 26.88655273 58.940625 26.54638672 58.23339844 C19.73307634 44.26345924 11.21215803 32.65622766 0.546875 21.31347656 C-0.02933594 20.66121094 -0.60554687 20.00894531 -1.19921875 19.33691406 C-19.8537706 -0.85487257 -51.86212457 -15.41006588 -79.13500977 -16.88574219 C-83.28307809 -17.01464329 -87.42845787 -17.01987574 -91.578125 -16.99902344 C-92.30923492 -16.99753296 -93.04034485 -16.99604248 -93.79360962 -16.99450684 C-104.63041433 -16.95474582 -114.91625867 -16.42092275 -125.453125 -13.68652344 C-127.21269531 -13.26886719 -127.21269531 -13.26886719 -129.0078125 -12.84277344 C-150.14962795 -7.38074539 -168.4642184 3.62272205 -184.453125 18.31347656 C-185.32453125 19.10238281 -186.1959375 19.89128906 -187.09375 20.70410156 C-203.47096962 36.25731013 -215.77934654 57.48953342 -221.453125 79.31347656 C-221.64487305 80.01102051 -221.83662109 80.70856445 -222.03417969 81.42724609 C-239.14249014 145.26943233 -200.56885067 217.10613796 -169.703125 270.91894531 C-166.81617447 275.88948078 -163.88301565 280.83201212 -160.94580078 285.77294922 C-158.90247365 289.25068264 -156.95863598 292.77913914 -155.015625 296.31347656 C-148.94466714 307.24835143 -142.14692763 317.75394221 -135.453125 328.31347656 C-134.4633667 329.8804126 -134.4633667 329.8804126 -133.45361328 331.47900391 C-121.90277957 349.75299346 -110.10967273 367.89614545 -97.24462891 385.28100586 C-94.453125 389.10080005 -94.453125 389.10080005 -94.453125 391.31347656 C-90.12648026 387.2662277 -86.75076574 382.8248879 -83.328125 378.00097656 C-82.47118042 376.80239014 -82.47118042 376.80239014 -81.59692383 375.57958984 C-72.435613 362.72549553 -63.63022759 349.64603262 -54.93432617 336.47314453 C-54.28181885 335.48846191 -53.62931152 334.5037793 -52.95703125 333.48925781 C-52.08800171 332.17308472 -52.08800171 332.17308472 -51.20141602 330.83032227 C-46.09572984 323.48015905 -46.09572984 323.48015905 -43.1640625 322.71972656 C-42.39320313 322.75066406 -41.62234375 322.78160156 -40.828125 322.81347656 C-39.66410156 322.82894531 -39.66410156 322.82894531 -38.4765625 322.84472656 C-36.453125 323.31347656 -36.453125 323.31347656 -34.453125 326.31347656 C-33.45036183 333.10337294 -36.19390897 336.97374871 -39.828125 342.37597656 C-40.3754126 343.21451172 -40.9227002 344.05304688 -41.48657227 344.91699219 C-45.44707193 350.93911394 -49.5791406 356.82957746 -53.82421875 362.65332031 C-56.97030263 366.99053406 -59.95005353 371.43921443 -62.953125 375.87597656 C-67.46740831 382.52136489 -72.1313035 388.97736717 -77.09375 395.29394531 C-78.7595384 397.42582352 -80.39326742 399.56403626 -82 401.73925781 C-82.41217773 402.29685791 -82.82435547 402.85445801 -83.24902344 403.42895508 C-84.38193481 404.96683863 -85.51139674 406.50726157 -86.640625 408.04785156 C-88.88190263 410.8494486 -89.72587253 411.21650957 -93.265625 411.68847656 C-97.94831021 411.13757242 -99.82465657 408.33153225 -102.7175293 404.74658203 C-104.14311165 402.87538754 -105.5218442 400.97663848 -106.890625 399.06347656 C-107.43138672 398.31114746 -107.97214844 397.55881836 -108.52929688 396.78369141 C-118.18405567 383.20241889 -127.28182146 369.223233 -136.453125 355.31347656 C-137.13004395 354.28770508 -137.80696289 353.26193359 -138.50439453 352.20507812 C-151.82844542 331.97454041 -164.40447085 311.32748104 -176.453125 290.31347656 C-177.30559814 288.82920166 -177.30559814 288.82920166 -178.17529297 287.31494141 C-213.09859304 226.30627769 -255.77074961 150.52637742 -237.1640625 78.03613281 C-226.20987608 38.49061825 -201.43390829 6.31854263 -165.9375 -14.36230469 C-114.03679794 -43.49493644 -45.95771451 -38.26908171 0 0 Z " fill="#0F1B5D" transform="translate(349.453125,41.6865234375)"/>
<path d="M0 0 C1.7327417 0.17909912 1.7327417 0.17909912 3.50048828 0.36181641 C68.80568389 8.77482419 68.80568389 8.77482419 86.5390625 29.51953125 C90.07541218 34.45801255 90.49479159 38.85123813 90.08984375 44.82421875 C86.42256622 55.4593236 78.69057642 60.79073911 69.08984375 65.82421875 C26.60028797 85.45228848 -27.10920455 87.06623315 -73.09765625 87.01171875 C-74.05137115 87.0111145 -75.00508606 87.01051025 -75.98770142 87.0098877 C-194.11649395 86.80847667 -194.11649395 86.80847667 -230.16015625 57.69921875 C-235.83449601 51.76695445 -238.34735425 47.18442086 -238.1796875 38.96875 C-237.36005127 32.44729655 -233.53335543 27.65902625 -228.5546875 23.61328125 C-208.54927449 10.07933862 -177.08344547 0.25504158 -152.91015625 0.82421875 C-150.61108557 1.97375409 -148.72877963 3.00559537 -146.91015625 4.82421875 C-146.43765094 12.14805109 -146.43765094 12.14805109 -147.97558594 14.34887695 C-150.77753062 16.48569569 -153.79820772 16.85427813 -157.19140625 17.4375 C-158.67947701 17.7153146 -160.1675128 17.99331658 -161.65551758 18.27148438 C-162.43263092 18.41239502 -163.20974426 18.55330566 -164.01040649 18.69848633 C-195.82210088 23.30277336 -195.82210088 23.30277336 -221.91015625 39.82421875 C-221.84296686 42.36781721 -221.26444873 43.42380536 -219.58984375 45.31640625 C-183.42131549 73.02995388 -118.25623166 71.05818164 -74.72265625 71.01171875 C-73.14485886 71.01081238 -73.14485886 71.01081238 -71.53518677 71.0098877 C4.18821817 72.01257621 4.18821817 72.01257621 72.52734375 44.86328125 C74.31109706 42.97823562 74.31109706 42.97823562 74.03515625 40.75390625 C69.99048732 32.49743331 58.15682591 29.63417549 50.08984375 26.82421875 C49.45997559 26.60378906 48.83010742 26.38335937 48.18115234 26.15625 C36.60945381 22.21440689 24.68260403 20.06875629 12.66796875 17.9375 C11.59095703 17.74623535 10.51394531 17.5549707 9.40429688 17.35791016 C7.11407371 16.98913969 4.81423474 16.67720707 2.50976562 16.41162109 C1.35541016 16.27320801 0.20105469 16.13479492 -0.98828125 15.9921875 C-2.02887695 15.88543701 -3.06947266 15.77868652 -4.14160156 15.66870117 C-7.77438456 14.56060625 -8.94588221 13.02219576 -10.91015625 9.82421875 C-10.91015625 6.09612528 -10.89007255 3.82080846 -8.21704102 1.10229492 C-5.19732683 -0.57070791 -3.41701815 -0.35481871 0 0 Z " fill="#0C1A5D" transform="translate(329.91015625,404.17578125)"/>
<path d="M0 0 C1.12019531 0.37253906 2.24039063 0.74507813 3.39453125 1.12890625 C20.8726234 7.70323449 36.13867455 21.67650575 45 38 C45.79664063 39.41539063 45.79664063 39.41539063 46.609375 40.859375 C57.0067468 60.31584302 59.04598461 82.84975215 52.69335938 103.89160156 C45.76078386 124.97248964 31.91539164 143.97670224 11.91430664 154.32568359 C-8.57282657 164.55378193 -31.93218669 167.98944688 -54.265625 161.38671875 C-78.24731028 152.48138583 -96.18869537 136.73615314 -107.1328125 113.49609375 C-111.58273497 103.33294258 -116.26543186 89.13837332 -114 78 C-112.17315687 74.61695716 -111.08573477 73.44542965 -107.5625 72 C-104.23343446 72 -102.63457537 73.02406848 -100 75 C-98.75792467 77.48415065 -98.66564941 79.82421583 -98.40551758 82.55957031 C-96.37306284 103.56236124 -88.37033559 120.63143781 -72.234375 134.3515625 C-57.33791648 145.71543229 -39.63967264 150.55182389 -21 149 C-1.2048913 146.33639346 15.25700508 136.33266511 27.375 120.625 C38.35981385 104.54743461 42.70552515 85.98432641 39.34375 66.78515625 C35.63666916 48.99671712 26.1640066 33.09190503 10.98046875 22.8125 C-6.83234961 11.98006524 -25.0784805 8.01865461 -45.8125 12 C-61.53426945 16.36375961 -74.75280554 25.38806836 -85 38 C-87.87470493 39.43735246 -89.81894588 39.38172649 -93 39 C-95.4375 36.9375 -95.4375 36.9375 -97 34 C-96.97313911 28.40621943 -95.42028211 25.68548706 -91.64672852 21.86328125 C-91.04143311 21.28964844 -90.4361377 20.71601562 -89.8125 20.125 C-89.184646 19.51785156 -88.55679199 18.91070312 -87.90991211 18.28515625 C-63.7397853 -4.44049261 -31.1781274 -10.52719423 0 0 Z " fill="#0F1B5D" transform="translate(285,77)"/>
<path d="M0 0 C2.296875 0.39453125 2.296875 0.39453125 4.25 1.1875 C6.64251268 4.77626902 6.80967086 5.94999208 6.25 10.1875 C2.65461725 17.48519137 2.65461725 17.48519137 -0.75 19.1875 C-7.04084967 19.75939542 -7.04084967 19.75939542 -9.6875 17.625 C-11.22295164 14.1024933 -11.32409003 12.0147669 -10.75 8.1875 C-8.39802363 3.02027919 -6.03805603 -0.49748119 0 0 Z " fill="#0F1B5D" transform="translate(331.75,327.8125)"/>
</svg>
