<?xml version="1.0" encoding="UTF-8"?>
<svg version="1.1" xmlns="http://www.w3.org/2000/svg" width="512" height="512">
<path d="M0 0 C1.88612444 1.63051004 3.2776923 3.2855731 4.77734375 5.26953125 C7.89096196 9.22209659 11.47622267 10.12705069 16.15234375 11.6328125 C23.65084761 14.39149503 28.53440414 19.52186405 31.90234375 26.64453125 C34.58145663 34.2267814 35.45193871 41.45062359 35.40234375 49.45703125 C35.39734863 50.53726563 35.39235352 51.6175 35.38720703 52.73046875 C35.07130992 67.63209783 31.32192561 81.40421683 25.99804688 95.23095703 C23.60080038 101.76734535 22.78707755 108.35408547 21.94482422 115.23681641 C20.97013394 122.94677445 19.22669082 129.82596106 15.15234375 136.51953125 C12.14149664 144.04664903 13.19510195 154.0611778 15.90234375 161.64453125 C19.97212723 169.20270056 25.51980159 172.97967571 33.51171875 175.546875 C34.2320076 175.79001938 34.95229645 176.03316376 35.69441223 176.28367615 C38.00982127 177.06208202 40.33088571 177.82188052 42.65234375 178.58203125 C44.24646347 179.11600543 45.84013199 179.6513285 47.43334961 180.18798828 C53.89284782 182.35728309 60.36485373 184.4846226 66.859375 186.546875 C80.85244673 190.99979266 91.4246672 195.95741745 98.5715332 209.38745117 C104.31185492 220.6906798 109.1047789 232.47751108 114.09820557 244.12414551 C117.46924438 251.97971834 120.89108269 259.81302984 124.31201172 267.64697266 C126.11609276 271.77947357 127.91731168 275.91322156 129.71875 280.046875 C131.7761086 284.76755852 133.8337976 289.48809505 135.89404297 294.20751953 C137.42905876 297.72409853 138.96158361 301.24175248 140.4921875 304.76025391 C141.05002491 306.04141621 141.60875746 307.32218919 142.16845703 308.60253906 C142.93500292 310.35638108 143.69805133 312.11175048 144.4609375 313.8671875 C144.88689209 314.84437744 145.31284668 315.82156738 145.75170898 316.82836914 C148.07718697 322.51994321 149.24413578 327.36820496 149.21484375 333.51953125 C149.23095703 334.18855469 149.24707031 334.85757812 149.26367188 335.546875 C149.26732159 339.33528071 148.77489899 342.36131484 147.37963867 345.89892578 C147.10447922 346.60469757 146.82931976 347.31046936 146.54582214 348.03762817 C146.33347427 348.56790619 146.1211264 349.0981842 145.90234375 349.64453125 C146.70778625 349.6356488 147.51322876 349.62676636 148.34307861 349.61761475 C155.9353292 349.5374512 163.52737447 349.47655827 171.1199379 349.43728256 C175.02333893 349.41641156 178.92639015 349.38810368 182.82958984 349.34277344 C186.59676295 349.29929698 190.3635997 349.27539048 194.13100433 349.26502228 C195.56795294 349.25763402 197.00488322 349.24320619 198.44168854 349.22161102 C200.454758 349.19255922 202.46816628 349.1908972 204.48144531 349.19042969 C205.62728088 349.18154724 206.77311646 349.17266479 207.95367432 349.16351318 C211.54054135 349.74864078 212.69921996 350.81401529 214.90234375 353.64453125 C215.43359375 355.64453125 215.43359375 355.64453125 215.40234375 357.64453125 C215.41265625 358.30453125 215.42296875 358.96453125 215.43359375 359.64453125 C214.62966532 362.67108535 213.38967702 363.73920038 210.90234375 365.64453125 C207.99163894 366.03644179 205.46017361 366.18209066 202.5501709 366.14789581 C201.69581357 366.15370958 200.84145624 366.15952334 199.9612093 366.16551328 C197.0786751 366.18019097 194.19698208 366.16619191 191.31445312 366.15246582 C189.23494784 366.15707166 187.1554458 366.16342243 185.07595062 366.1713748 C179.34622931 366.18813472 173.61677312 366.1797915 167.88705063 366.16742992 C161.71382565 366.15840896 155.54064744 366.17233445 149.36743164 366.18334961 C137.9679569 366.20014011 126.56859072 366.19864026 115.16911864 366.18770374 C104.63902246 366.1776506 94.10895742 366.17501046 83.57885742 366.17979431 C82.8809941 366.18009985 82.18313078 366.18040539 81.46412009 366.18072019 C78.63142885 366.1819655 75.79873763 366.18323909 72.96604642 366.18455925 C46.38076435 366.19680157 19.79553638 366.18569139 -6.78973734 366.16417166 C-30.4210518 366.14518852 -54.05228005 366.14688701 -77.68359375 366.16601562 C-104.21953403 366.18742351 -130.75542649 366.19593343 -157.29137421 366.18356657 C-160.11897277 366.18228366 -162.94657134 366.1810323 -165.77416992 366.17979431 C-166.47042207 366.179478 -167.16667422 366.17916169 -167.88402492 366.1788358 C-178.40878036 366.1742815 -188.93350129 366.1796152 -199.45825195 366.18971252 C-211.42262935 366.20113362 -223.38690488 366.19793815 -235.35127831 366.17658955 C-241.46006427 366.16604996 -247.5686749 366.16200677 -253.67745972 366.17518616 C-259.26344259 366.18705569 -264.84908668 366.18063764 -270.43503857 366.15927595 C-272.46189124 366.15478673 -274.48877221 366.15712768 -276.51560688 366.1667791 C-279.25931276 366.17884764 -282.0018403 366.16656586 -284.7454834 366.14789581 C-285.94089139 366.16194281 -285.94089139 366.16194281 -287.16044903 366.17627358 C-290.73280566 366.1272956 -292.70925468 365.9420521 -295.58646393 363.73807096 C-297.2238983 361.46964104 -297.64086224 360.40971434 -297.59765625 357.64453125 C-297.60796875 356.98453125 -297.61828125 356.32453125 -297.62890625 355.64453125 C-296.84488775 352.69293221 -295.46416831 351.54663385 -293.09765625 349.64453125 C-290.14898682 349.16351318 -290.14898682 349.16351318 -286.67675781 349.19042969 C-284.72518768 349.19088287 -284.72518768 349.19088287 -282.73419189 349.19134521 C-281.3188821 349.21177039 -279.90357857 349.23263435 -278.48828125 349.25390625 C-277.03669006 349.2613698 -275.58508877 349.2670622 -274.13348389 349.27105713 C-270.31919367 349.28630482 -266.50551604 349.32557816 -262.69146729 349.36987305 C-258.79699998 349.41084502 -254.90243336 349.42907219 -251.0078125 349.44921875 C-243.37081496 349.49207412 -235.73432155 349.56031386 -228.09765625 349.64453125 C-228.30755692 349.10854309 -228.51745758 348.57255493 -228.73371887 348.02032471 C-229.00697495 347.31011169 -229.28023102 346.59989868 -229.56176758 345.86816406 C-229.96943108 344.81668182 -229.96943108 344.81668182 -230.3853302 343.74395752 C-233.55075355 334.41455993 -231.33674688 325.1163314 -227.62890625 316.40234375 C-227.27281784 315.54019257 -226.91672943 314.67804138 -226.54985046 313.7897644 C-222.87562576 304.95882854 -219.01574149 296.20672152 -215.11694336 287.4730835 C-213.02603461 282.78884301 -210.94739587 278.09915591 -208.8671875 273.41015625 C-208.45566437 272.48335052 -208.04414124 271.5565448 -207.62014771 270.60165405 C-204.33566284 263.19867689 -201.09489855 255.7776199 -197.88491821 248.34207153 C-197.10554174 246.53778646 -196.32365745 244.73458533 -195.54174805 242.93139648 C-193.03787462 237.15468641 -190.55606185 231.3698358 -188.10546875 225.5703125 C-187.14469328 223.32414943 -186.18376302 221.07805257 -185.22265625 218.83203125 C-184.59810547 217.32842041 -184.59810547 217.32842041 -183.9609375 215.79443359 C-178.23988415 202.51114662 -170.28907653 194.54008159 -156.98803711 189.10302734 C-147.59030681 185.48442472 -137.86645956 182.66712458 -128.26269531 179.65307617 C-125.39512863 178.75082667 -122.53143565 177.83703843 -119.66796875 176.921875 C-118.79600861 176.6519725 -117.92404846 176.38207001 -117.02566528 176.10398865 C-108.37706595 173.3269247 -102.82693233 169.42490918 -97.84765625 161.70703125 C-96.75482756 158.70175235 -96.34036199 155.81073792 -96.09765625 152.64453125 C-96.0203125 151.65710938 -95.94296875 150.6696875 -95.86328125 149.65234375 C-95.57046097 142.7385316 -96.29755964 138.40222791 -99.72265625 132.4375 C-103.23492282 125.30320852 -105.13403406 116.54855235 -105.34765625 108.64453125 C-105.6975732 103.15636009 -108.32667814 98.73169755 -111.04003906 94.0546875 C-116.92986565 83.4256051 -117.6371697 71.30922028 -117.53515625 59.39453125 C-117.52685791 58.13181396 -117.51855957 56.86909668 -117.51000977 55.56811523 C-117.18254815 37.34330299 -113.52190449 19.24385093 -100.375 5.66796875 C-76.34727514 -15.68085025 -26.8849373 -19.20352664 0 0 Z " fill="#2D4356" transform="translate(297.09765625,146.35546875)"/>
<path d="M0 0 C0.68184311 -0.00779995 1.36368623 -0.01559991 2.06619126 -0.02363622 C4.3505094 -0.04357723 6.6331653 -0.0277856 8.91749573 -0.01205444 C10.55528232 -0.01882978 12.19306129 -0.02773244 13.83082581 -0.03860474 C18.27931956 -0.06141677 22.7272341 -0.0525536 27.1757381 -0.03670931 C31.82991275 -0.02405796 36.48403753 -0.03578849 41.13821411 -0.04364014 C48.95551972 -0.05273985 56.77258924 -0.04074134 64.58985901 -0.01693726 C73.62750795 0.01026518 82.66459278 0.00146766 91.70222801 -0.02606928 C99.46033349 -0.04876158 107.21826915 -0.05195957 114.9763971 -0.03887594 C119.61054324 -0.03108084 124.24442428 -0.03004118 128.87855339 -0.04655838 C133.23638929 -0.06100536 137.59349839 -0.0509777 141.9512558 -0.0220871 C143.55041611 -0.01547702 145.14963762 -0.0173727 146.74877357 -0.02840042 C148.93278715 -0.0420725 151.11447445 -0.02492533 153.29833984 0 C154.52005103 0.00188513 155.74176222 0.00377026 157.00049496 0.00571251 C161.17809379 0.82402899 162.66098041 2.27689256 165.21266174 5.63491821 C165.82790089 8.04615498 165.82790089 8.04615498 165.81393433 10.60203552 C165.82082181 11.57452397 165.82770929 12.54701242 165.83480549 13.54897022 C165.81681495 14.60834136 165.79882441 15.6677125 165.7802887 16.75918579 C165.78089137 17.89968982 165.78149405 19.04019384 165.78211498 20.2152586 C165.77838558 23.90381978 165.74032347 27.59111457 165.70094299 31.27944946 C165.69359075 33.55788566 165.68849036 35.83633028 165.6856842 38.11477661 C165.65947933 46.55911934 165.5896731 55.00328124 165.52516174 63.44741821 C165.37047424 91.75523071 165.37047424 91.75523071 165.21266174 120.63491821 C107.13266174 120.63491821 49.05266174 120.63491821 -10.78733826 120.63491821 C-10.86983826 101.76304321 -10.95233826 82.89116821 -11.03733826 63.44741821 C-11.07375427 57.48912964 -11.11017029 51.53084106 -11.14768982 45.39199829 C-11.16575623 38.11477661 -11.16575623 38.11477661 -11.16911316 34.7077179 C-11.17525451 32.32874053 -11.18932084 29.94977559 -11.2096405 27.57087708 C-11.23888594 23.96676001 -11.24296348 20.3634036 -11.24143982 16.75918579 C-11.25583225 15.69981465 -11.27022469 14.64044352 -11.28505325 13.54897022 C-11.27954327 12.57648177 -11.27403328 11.60399332 -11.26835632 10.60203552 C-11.2720435 9.75859494 -11.27573067 8.91515436 -11.27952957 8.04615498 C-9.93172584 1.44328772 -6.26270531 0.00966648 0 0 Z " fill="#FEDA7F" transform="translate(178.78733825683594,375.3650817871094)"/>
<path d="M0 0 C0.66 0 1.32 0 2 0 C3.24022193 1.4781542 4.41703589 3.00975976 5.5625 4.5625 C13.05056307 14.10134791 21.94483456 19.96844589 34 22 C45.10885042 23.10875282 56.26127932 19.92450133 65 13 C71.22838633 7.05184487 71.22838633 7.05184487 76 0 C76.66 0 77.32 0 78 0 C78.14695312 0.60585938 78.29390625 1.21171875 78.4453125 1.8359375 C81.08782863 11.70740581 85.41623821 20.15258215 94 26 C100.64907769 29.75885969 107.47910339 32.34929406 114.7578125 34.59375 C116.78519367 35.23816353 118.81253628 35.8826984 120.83984375 36.52734375 C123.98964963 37.51795696 127.14057369 38.50486153 130.29248047 39.48876953 C133.36730572 40.45189294 136.43761914 41.42847942 139.5078125 42.40625 C140.90811203 42.83617249 140.90811203 42.83617249 142.33670044 43.27478027 C152.10101587 46.39509155 159.93911668 50.80067213 165.10528564 59.95950317 C166.15367646 62.10565051 167.10773512 64.2732341 168.0390625 66.47265625 C168.57750038 67.70214241 168.57750038 67.70214241 169.1268158 68.95646667 C170.30459683 71.65354854 171.46478141 74.35782246 172.625 77.0625 C173.45322762 78.96825974 174.28259525 80.8735244 175.11303711 82.77832031 C176.85846347 86.78757572 178.59649456 90.79991906 180.32861328 94.81494141 C182.98463013 100.97016471 185.66021902 107.11674308 188.33984375 113.26171875 C190.88751546 119.1067506 193.43444073 124.95209176 195.97314453 130.80102539 C196.36228027 131.69717056 196.75141602 132.59331573 197.15234375 133.51661682 C197.92329866 135.29588268 198.69188665 137.07617615 199.45800781 138.85752869 C201.51866706 143.63953894 203.63048826 148.39090805 205.81201172 153.11914062 C206.27566635 154.14046082 206.73932098 155.16178101 207.21702576 156.21405029 C208.10440811 158.16637235 209.00604407 160.11230594 209.92469788 162.05010986 C212.64017797 168.07677899 213.99150146 173.37031258 213 180 C210.50665497 184.98669007 207.00649051 188.49675474 202 191 C200.12080452 191.09110781 198.23833208 191.11752837 196.35693359 191.11352539 C195.17586029 191.11344986 193.99478699 191.11337433 192.77792358 191.11329651 C191.49769318 191.10813522 190.21746277 191.10297394 188.8984375 191.09765625 C187.59170074 191.0962413 186.28496399 191.09482635 184.93862915 191.09336853 C181.46323742 191.08954894 177.98788743 191.07972342 174.51251221 191.06866455 C170.96668065 191.05843843 167.42084216 191.05381358 163.875 191.04882812 C156.91662979 191.03863122 149.95837423 191.01905824 143 191 C143 178.46 143 165.92 143 153 C154.25 151.5625 154.25 151.5625 157.77832031 151.11547852 C159.16422363 150.93650024 159.16422363 150.93650024 160.578125 150.75390625 C161.99206543 150.57323608 161.99206543 150.57323608 163.43457031 150.38891602 C165.67713258 150.04894631 167.81369963 149.59605926 170 149 C170.27748242 147.58845901 170.52093516 146.17020201 170.75 144.75 C170.88921875 143.96109375 171.0284375 143.1721875 171.171875 142.359375 C171.20897257 139.86189337 171.20897257 139.86189337 169.34179688 137.86328125 C166.40006446 135.52265346 165.06488999 135.59160277 161.359375 135.828125 C159.75449219 135.91513672 159.75449219 135.91513672 158.1171875 136.00390625 C156.45042969 136.12572266 156.45042969 136.12572266 154.75 136.25 C153.62335938 136.31574219 152.49671875 136.38148438 151.3359375 136.44921875 C148.55558461 136.61415494 145.7778963 136.79840917 143 137 C142.99857498 136.23293732 142.99714996 135.46587463 142.99568176 134.67556763 C142.97777249 127.40856848 142.93592691 120.1422708 142.86790943 112.87558174 C142.83377441 109.14060736 142.80855073 105.40603612 142.80444336 101.67089844 C142.80013103 98.05894807 142.7714301 94.44790502 142.72656822 90.83623886 C142.71368589 89.46576113 142.70925234 88.09517429 142.71384621 86.72464371 C142.73820432 77.24173407 141.82457341 69.31798282 135.24494934 62.06546021 C129.72354916 56.72977961 123.32577145 55.75310529 115.80288696 55.73257446 C115.11313573 55.72804335 114.4233845 55.72351224 113.71273172 55.71884382 C111.41990904 55.7062643 109.12732585 55.70781595 106.83447266 55.70947266 C105.18303627 55.70348342 103.53160267 55.69667697 101.88017273 55.68911743 C97.40697005 55.67149184 92.93384396 55.66676355 88.46060991 55.66548586 C85.66291418 55.66406192 82.86523777 55.65978774 80.06754684 55.65449142 C70.29892495 55.63600355 60.53035756 55.62781938 50.76171875 55.62939453 C41.66908067 55.63059606 32.57667992 55.60948838 23.48410189 55.5779072 C15.66561446 55.55172309 7.84720445 55.54102811 0.02867353 55.54230535 C-4.63572775 55.54281429 -9.29991793 55.53716842 -13.96427536 55.51594925 C-18.35239606 55.49653045 -22.74010504 55.49646714 -27.12824059 55.51098251 C-28.73380449 55.5130671 -30.33939442 55.50839064 -31.94491386 55.4962616 C-41.50920199 55.42871661 -49.68572346 55.61727444 -57.33984375 61.9296875 C-57.86707031 62.57164062 -58.39429688 63.21359375 -58.9375 63.875 C-59.48277344 64.51179688 -60.02804688 65.14859375 -60.58984375 65.8046875 C-63.57360995 70.44977505 -64.25331858 75.02544175 -64.31884766 80.46435547 C-64.33871735 81.72520966 -64.35858704 82.98606384 -64.37905884 84.28512573 C-64.39093243 85.64581121 -64.40259545 87.00649854 -64.4140625 88.3671875 C-64.43279034 89.77109902 -64.45236495 91.17499947 -64.4727478 92.57888794 C-64.5239046 96.25799005 -64.5636178 99.93712858 -64.60089111 103.61639404 C-64.64103447 107.37716562 -64.69207947 111.13778783 -64.7421875 114.8984375 C-64.83875172 122.26552223 -64.92321824 129.63267971 -65 137 C-66.05912598 136.92313965 -66.05912598 136.92313965 -67.13964844 136.84472656 C-70.34203163 136.62463512 -73.54552077 136.43698906 -76.75 136.25 C-78.41675781 136.12818359 -78.41675781 136.12818359 -80.1171875 136.00390625 C-81.18710938 135.94589844 -82.25703125 135.88789063 -83.359375 135.828125 C-84.83615723 135.7338623 -84.83615723 135.7338623 -86.34277344 135.63769531 C-89.78443374 136.10695513 -90.90183026 137.29635136 -93 140 C-93.26978939 142.37462791 -93.26978939 142.37462791 -92.75 144.75 C-92.62109375 145.54921875 -92.4921875 146.3484375 -92.359375 147.171875 C-92.24078125 147.77515625 -92.1221875 148.3784375 -92 149 C-83.03248783 151.07112075 -74.22370514 151.91485822 -65 153 C-65 165.54 -65 178.08 -65 191 C-72.58263654 191.08399228 -80.16357874 191.16411445 -87.74627686 191.20700073 C-91.27766924 191.22808292 -94.80867469 191.25623271 -98.33984375 191.30175781 C-102.39587043 191.35371956 -106.45149029 191.37297967 -110.5078125 191.390625 C-111.76739777 191.41127014 -113.02698303 191.43191528 -114.32473755 191.45318604 C-125.20744194 191.45597059 -125.20744194 191.45597059 -130 187 C-134.38203108 182.02580256 -135.31603783 179.19495016 -135.23898315 172.68612671 C-134.86847201 168.52164963 -133.42723948 165.17775563 -131.66015625 161.42578125 C-131.30697327 160.63621033 -130.95379028 159.8466394 -130.58990479 159.03314209 C-129.43088926 156.45163845 -128.24671823 153.88252636 -127.0625 151.3125 C-126.23976578 149.49041037 -125.41907959 147.66739474 -124.6003418 145.84350586 C-122.9092295 142.0792858 -121.21016214 138.3188116 -119.50585938 134.56054688 C-116.04278318 126.90214042 -112.70121968 119.19165625 -109.36099243 111.47909546 C-108.31461155 109.06736676 -107.26314675 106.65792489 -106.2097168 104.24926758 C-103.06908873 97.06747802 -99.94128709 89.88155268 -96.87742615 82.66661072 C-95.5385557 79.51954006 -94.18693632 76.37803609 -92.83334351 73.23727417 C-92.20438008 71.76894509 -91.58130943 70.29807491 -90.9647522 68.82449341 C-86.78703403 58.84584326 -83.22514083 51.12588276 -72.91015625 46.4921875 C-62.64235648 42.57562056 -52.04249068 39.46312261 -41.54223633 36.23486328 C-20.13995793 29.7912773 -20.13995793 29.7912773 -5 14 C-2.81840102 9.46334156 -1.14404741 4.90145803 0 0 Z " fill="#FB785E" transform="translate(217,305)"/>
<path d="M0 0 C11 2 11 2 13.36450195 2.50341797 C20.79366672 4.01298627 27.99143965 4.38332957 35.5625 4.375 C36.78380615 4.37628906 38.0051123 4.37757813 39.26342773 4.37890625 C48.11288045 4.27628362 56.23474424 3.21555509 64.75390625 0.875 C68 0 68 0 71 0 C71.08636719 0.94359375 71.17273438 1.8871875 71.26171875 2.859375 C72.44426309 13.66500956 74.76686905 22.78957484 81.375 31.6875 C83.52359782 34.76402696 84.40255064 36.60777233 84.0625 40.375 C83.75541489 41.92673093 83.39715157 43.46884332 83 45 C82.67708984 46.38638672 82.67708984 46.38638672 82.34765625 47.80078125 C80.34768207 55.78986729 77.49435883 61.80394496 72 68 C68.42431443 72.10559438 64.99196321 76.26678019 61.70361328 80.60644531 C56.17251921 87.88675516 50.88547773 94.02501042 42 97 C32.58669181 98.11661311 26.4770947 96.45272579 19.09765625 90.76171875 C15.85015673 88.01146098 13.35686134 84.89327398 10.8125 81.5 C7.49792063 77.15784924 4.11683678 72.93336969 0.50634766 68.83325195 C-6.8374701 60.46249181 -10.40705014 53.03686687 -12 42 C-12.165 40.989375 -12.33 39.97875 -12.5 38.9375 C-11.95627583 35.74312049 -11.11148839 34.532302 -9.25 31.9375 C-2.61111559 22.57416774 -1.27000341 11.14595097 0 0 Z " fill="#E0EAF3" transform="translate(220,215)"/>
<path d="M0 0 C1.29389648 0.00418945 2.58779297 0.00837891 3.92089844 0.01269531 C17.59218984 0.17442466 33.65709467 1.03209467 43.9375 11.3125 C45.3185027 13.36991218 46.59786901 15.45236611 47.82421875 17.60546875 C48.83727829 19.47275719 48.83727829 19.47275719 50.9375 20.3125 C52.52055212 20.36374989 54.10397473 20.40391007 55.6875 20.4375 C59.72301869 20.80489549 61.72780966 21.44824479 64.4375 24.5 C68.6271977 29.89545372 69.3256462 35.84729478 69.3125 42.5 C69.31233887 43.27448486 69.31217773 44.04896973 69.31201172 44.84692383 C69.09390657 56.29285268 66.15093778 67.38391654 62.9375 78.3125 C60.10996067 75.48496067 60.39961219 72.49052014 60.0625 68.6875 C59.29751916 61.5410522 58.38975578 55.55552815 52.875 50.375 C48.6412481 48.05326508 44.64908938 47.75777159 39.9375 48.3125 C37.89129947 48.96511827 35.85027795 49.63403981 33.8125 50.3125 C17.10183082 55.3825759 -2.80269953 53.65278115 -19.46875 49.21875 C-25.71922584 47.64254305 -30.62561987 47.1605203 -36.5 49.9375 C-40.21088987 53.37686134 -41.84459976 56.65028754 -42.50390625 61.6796875 C-42.54386719 62.83726562 -42.58382812 63.99484375 -42.625 65.1875 C-42.89641088 70.52524733 -43.52961581 75.20288604 -45.0625 80.3125 C-45.7225 80.3125 -46.3825 80.3125 -47.0625 80.3125 C-53.14141232 61.37017502 -53.75625863 40.29862245 -45.375 21.9375 C-39.30671222 10.78015915 -30.51085144 5.07827315 -18.56640625 1.16796875 C-12.47460837 -0.25417339 -6.22037202 -0.0271214 0 0 Z " fill="#D58651" transform="translate(247.0625,151.6875)"/>
<path d="M0 0 C0.66 0 1.32 0 2 0 C3.24022193 1.4781542 4.41703589 3.00975976 5.5625 4.5625 C13.05056307 14.10134791 21.94483456 19.96844589 34 22 C45.10885042 23.10875282 56.26127932 19.92450133 65 13 C71.22838633 7.05184487 71.22838633 7.05184487 76 0 C76.66 0 77.32 0 78 0 C78.14695312 0.60585938 78.29390625 1.21171875 78.4453125 1.8359375 C81.08782863 11.70740581 85.41623821 20.15258215 94 26 C100.64907769 29.75885969 107.47910339 32.34929406 114.7578125 34.59375 C116.78519367 35.23816353 118.81253628 35.8826984 120.83984375 36.52734375 C123.98964963 37.51795696 127.14057369 38.50486153 130.29248047 39.48876953 C133.36730572 40.45189294 136.43761914 41.42847942 139.5078125 42.40625 C140.90811203 42.83617249 140.90811203 42.83617249 142.33670044 43.27478027 C152.10101587 46.39509155 159.93911668 50.80067213 165.10528564 59.95950317 C166.15367648 62.10565053 167.10773321 64.27323486 168.0390625 66.47265625 C168.57756836 67.70227837 168.57756836 67.70227837 169.12695312 68.95674133 C170.30470523 71.65372498 171.46485347 74.35790211 172.625 77.0625 C173.45250117 78.96679224 174.28113613 80.87059216 175.11083984 82.77392578 C176.85547064 86.78174324 178.59272733 90.79264117 180.32421875 94.80615234 C182.99216982 100.98829675 185.68158248 107.16094778 188.375 113.33203125 C192.49269486 122.77261028 196.60919899 132.21364325 200.68847656 141.67089844 C202.29624238 145.39368199 203.93307607 149.10225723 205.58496094 152.80566406 C206.41864084 154.69595426 207.25230036 156.58625345 208.0859375 158.4765625 C208.47907135 159.34453461 208.8722052 160.21250671 209.2772522 161.10678101 C211.23673733 165.58020384 212.50789987 169.00717193 212 174 C211.34 174 210.68 174 210 174 C209.57928223 173.03328369 209.15856445 172.06656738 208.72509766 171.07055664 C206.69253023 166.40085659 204.65892253 161.73160996 202.625 157.0625 C202.24751617 156.19587738 201.87003235 155.32925476 201.48110962 154.43637085 C197.09689311 144.37309593 192.70376507 134.31385203 188.28515625 124.265625 C187.90267227 123.39553802 187.52018829 122.52545105 187.12611389 121.6289978 C185.2226086 117.29980516 183.31670037 112.97169071 181.4074707 108.64501953 C178.01663855 100.95015688 174.65963252 93.24703076 171.4453125 85.4765625 C170.90413193 84.17729449 170.36287469 82.8780584 169.8215332 81.57885742 C168.85588078 79.24869954 167.90266607 76.91332373 166.96557617 74.5715332 C163.80843398 66.96702167 160.2622957 60.57207499 153.0546875 56.22265625 C152.00539063 55.83980469 150.95609375 55.45695312 149.875 55.0625 C149.26736816 54.8363501 148.65973633 54.6102002 148.03369141 54.37719727 C139.70269389 51.37398002 131.17596652 48.87677078 122.69482422 46.33422852 C90.61627215 36.66205245 90.61627215 36.66205245 81.75 21.921875 C79.7533912 18.07546688 78.2468161 14.15605366 77 10 C76.34 10.66 75.68 11.32 75 12 C74.54238281 12.45375 74.08476562 12.9075 73.61328125 13.375 C72.44938408 14.54735162 71.30297313 15.73715422 70.16796875 16.9375 C61.3438674 26.12709667 52.57918212 31.04285667 39.6875 31.4375 C27.45495301 31.143625 18.1754255 27.37969887 9.64501953 18.60644531 C6.68365912 15.47327923 3.82278138 12.25886869 1 9 C0.79246094 9.76183594 0.58492187 10.52367187 0.37109375 11.30859375 C-1.86896844 18.81608251 -4.650686 24.27349078 -10 30 C-10.50015625 30.55300781 -11.0003125 31.10601562 -11.515625 31.67578125 C-20.52888184 40.48419135 -35.52880706 43.63232594 -47.3125 47.1875 C-48.71441901 47.61579642 -50.11611272 48.044831 -51.51757812 48.47460938 C-52.19995041 48.6838353 -52.88232269 48.89306122 -53.58537292 49.10862732 C-54.25458267 49.31383499 -54.92379242 49.51904266 -55.61328125 49.73046875 C-56.59346977 50.03036461 -56.59346977 50.03036461 -57.59346008 50.33631897 C-74.37393191 55.40162614 -74.37393191 55.40162614 -86 68 C-88.17363516 72.4701967 -90.10806216 77.0205437 -92.00411987 81.61419678 C-93.29274196 84.73545561 -94.60613722 87.8461 -95.91822815 90.95755005 C-96.60058757 92.57593062 -97.28176102 94.19481172 -97.96177673 95.81417847 C-101.35313945 103.8794247 -104.88543745 111.87955633 -108.4375 119.875 C-116.4140563 137.86375189 -124.2148235 155.92776525 -132 174 C-132.66 174 -133.32 174 -134 174 C-133.68079182 165.65625287 -130.77788486 159.30236197 -127.25 151.8125 C-126.3528768 149.86757648 -125.46079619 147.92038919 -124.56892395 145.97305298 C-123.95492659 144.63303023 -123.33950515 143.29365913 -122.72270203 141.95492554 C-119.64484957 135.26626092 -116.7203216 128.51414691 -113.8125 121.75 C-112.74676438 119.28095717 -111.6805385 116.81213466 -110.61328125 114.34375 C-110.33551849 113.70118759 -110.05775574 113.05862518 -109.77157593 112.39659119 C-106.10467453 103.92077617 -102.4081931 95.45788777 -98.70321655 86.99865723 C-97.90995001 85.18649979 -97.11763047 83.37392747 -96.32632446 81.56091309 C-82.99125791 51.0140803 -82.99125791 51.0140803 -72.70361328 46.57885742 C-71.43309347 46.10030171 -70.15926052 45.63047995 -68.8828125 45.16796875 C-68.18775101 44.91172226 -67.49268951 44.65547577 -66.77656555 44.39146423 C-61.47149664 42.46488638 -56.11646416 40.72026404 -50.73046875 39.03515625 C-49.94876816 38.79024445 -49.16706757 38.54533264 -48.36167908 38.29299927 C-45.16361039 37.29436427 -41.96499666 36.29847692 -38.7590332 35.32543945 C-25.21766362 31.20035349 -12.63202479 26.81015605 -5 14 C-2.81840102 9.46334156 -1.14404741 4.90145803 0 0 Z " fill="#F7927F" transform="translate(217,305)"/>
<path d="M0 0 C6.59907967 6.78238744 7.93789055 13.42224304 7.88476562 22.73242188 C7.87227783 23.41361084 7.85979004 24.0947998 7.84692383 24.79663086 C7.81249074 26.87555894 7.82633691 28.95024739 7.84570312 31.02929688 C7.83725667 39.51290295 7.19093378 45.63666015 1.57421875 52.30078125 C-5.1272987 57.7227727 -10.98685685 59.97300037 -19.68359375 59.72265625 C-27.23499415 58.71259632 -32.85496101 54.99708295 -37.59375 49.15625 C-41.51766307 42.89919944 -41.1906821 36.37589234 -41.23046875 29.23999023 C-41.24979426 27.14727873 -41.31184438 25.0585801 -41.375 22.96679688 C-41.51082528 14.36098403 -40.4455768 8.0097303 -34.75 1.3125 C-23.98429096 -8.61055089 -11.74057855 -7.20444593 0 0 Z " fill="#2D4356" transform="translate(160.75,144.6875)"/>
<path d="M0 0 C5.4166602 3.6111068 8.74688741 7.85182621 11 14 C11.59909092 18.51028537 11.68011731 22.94606048 11.59692383 27.48413086 C11.56249074 29.56305894 11.57633691 31.63774739 11.59570312 33.71679688 C11.58717832 42.21519966 10.90309581 48.2698196 5.359375 54.98828125 C-1.11753696 60.31758502 -7.10041721 62.59183 -15.55078125 62.28125 C-22.5027774 61.48293465 -28.51272775 58.4381466 -33 53 C-37.5495882 46.19611135 -37.65071209 39.62225322 -37.57641602 31.64624023 C-37.56254454 29.56916944 -37.59669498 27.49661418 -37.63476562 25.41992188 C-37.68920927 16.20638781 -36.44281758 9.64826579 -29.97265625 2.87890625 C-20.58681193 -3.58945681 -10.43120345 -5.56481048 0 0 Z " fill="#2D4356" transform="translate(301,62)"/>
<path d="M0 0 C5.4166602 3.6111068 8.74688741 7.85182621 11 14 C11.59909092 18.51028537 11.68011731 22.94606048 11.59692383 27.48413086 C11.56249074 29.56305894 11.57633691 31.63774739 11.59570312 33.71679688 C11.58717832 42.21519966 10.90309581 48.2698196 5.359375 54.98828125 C-1.11753696 60.31758502 -7.10041721 62.59183 -15.55078125 62.28125 C-22.5027774 61.48293465 -28.51272775 58.4381466 -33 53 C-37.5495882 46.19611135 -37.65071209 39.62225322 -37.57641602 31.64624023 C-37.56254454 29.56916944 -37.59669498 27.49661418 -37.63476562 25.41992188 C-37.68920927 16.20638781 -36.44281758 9.64826579 -29.97265625 2.87890625 C-20.58681193 -3.58945681 -10.43120345 -5.56481048 0 0 Z " fill="#2D4356" transform="translate(205,62)"/>
<path d="M0 0 C5.82694115 5.49477833 8.03960881 12.34816757 8.37890625 20.1953125 C8.38285182 22.81779879 8.36019717 25.44044453 8.3125 28.0625 C8.32345703 29.38121094 8.33441406 30.69992188 8.34570312 32.05859375 C8.28210034 40.4965635 7.64143503 46.32038944 2.07421875 52.92578125 C-4.6272987 58.3477727 -10.48685685 60.59800037 -19.18359375 60.34765625 C-26.73499415 59.33759632 -32.35496101 55.62208295 -37.09375 49.78125 C-41.01766307 43.52419944 -40.6906821 37.00089234 -40.73046875 29.86499023 C-40.74979426 27.77227873 -40.81184438 25.6835801 -40.875 23.59179688 C-41.01088409 14.97819479 -39.93527751 8.64764262 -34.25 1.9375 C-24.32321233 -7.36810877 -11.05074041 -7.01296987 0 0 Z " fill="#2D4356" transform="translate(400.25,224.0625)"/>
<path d="M0 0 C5.82694115 5.49477833 8.03960881 12.34816757 8.37890625 20.1953125 C8.38285182 22.81779879 8.36019717 25.44044453 8.3125 28.0625 C8.32345703 29.38121094 8.33441406 30.69992188 8.34570312 32.05859375 C8.28210034 40.4965635 7.64143503 46.32038944 2.07421875 52.92578125 C-4.6272987 58.3477727 -10.48685685 60.59800037 -19.18359375 60.34765625 C-26.73499415 59.33759632 -32.35496101 55.62208295 -37.09375 49.78125 C-41.01766307 43.52419944 -40.6906821 37.00089234 -40.73046875 29.86499023 C-40.74979426 27.77227873 -40.81184438 25.6835801 -40.875 23.59179688 C-41.01088409 14.97819479 -39.93527751 8.64764262 -34.25 1.9375 C-24.32321233 -7.36810877 -11.05074041 -7.01296987 0 0 Z " fill="#2D4356" transform="translate(112.25,224.0625)"/>
<path d="M0 0 C0.68184311 -0.00779995 1.36368623 -0.01559991 2.06619126 -0.02363622 C4.3505094 -0.04357723 6.6331653 -0.0277856 8.91749573 -0.01205444 C10.55528232 -0.01882978 12.19306129 -0.02773244 13.83082581 -0.03860474 C18.27931956 -0.06141677 22.7272341 -0.0525536 27.1757381 -0.03670931 C31.82991275 -0.02405796 36.48403753 -0.03578849 41.13821411 -0.04364014 C48.95551972 -0.05273985 56.77258924 -0.04074134 64.58985901 -0.01693726 C73.62750795 0.01026518 82.66459278 0.00146766 91.70222801 -0.02606928 C99.46033349 -0.04876158 107.21826915 -0.05195957 114.9763971 -0.03887594 C119.61054324 -0.03108084 124.24442428 -0.03004118 128.87855339 -0.04655838 C133.23638929 -0.06100536 137.59349839 -0.0509777 141.9512558 -0.0220871 C143.55041611 -0.01547702 145.14963762 -0.0173727 146.74877357 -0.02840042 C148.93278715 -0.0420725 151.11447445 -0.02492533 153.29833984 0 C154.52005103 0.00188513 155.74176222 0.00377026 157.00049496 0.00571251 C161.11536286 0.81174113 162.6152086 2.41626936 165.21266174 5.63491821 C165.8356273 8.49059234 165.46351562 10.67484247 165.21266174 13.63491821 C164.52934784 12.98539436 163.84603394 12.33587051 163.14201355 11.66666412 C159.56577088 9.1862463 157.6624764 9.13235377 153.34303284 9.12698364 C152.32511186 9.1176237 152.32511186 9.1176237 151.28662682 9.10807467 C149.01942774 9.09215736 146.75330573 9.10474282 144.48609924 9.11734009 C142.85802077 9.11191836 141.22994721 9.10479542 139.60188293 9.09609985 C135.18450637 9.0778694 130.76750362 9.0849328 126.35012054 9.0976162 C121.726654 9.10774532 117.10321939 9.09835076 112.47975159 9.09207153 C104.71553299 9.08479487 96.9514666 9.09438331 89.18727112 9.11343384 C80.21158589 9.13520264 71.23626411 9.12815128 62.26058769 9.10612822 C54.55343452 9.08797474 46.84639074 9.08541563 39.1392231 9.09588289 C34.53642444 9.10211812 29.93379659 9.10295268 25.33100891 9.08973694 C21.00362388 9.07817979 16.6767073 9.08620147 12.34937286 9.10931396 C10.76149524 9.11460181 9.17357817 9.11308593 7.58571625 9.10426331 C5.41737605 9.0933264 3.25053537 9.10704629 1.08229065 9.12698364 C-0.13074738 9.12849174 -1.3437854 9.12999985 -2.59358215 9.13155365 C-6.36897877 9.72658997 -8.05047712 11.03339559 -10.78733826 13.63491821 C-11.27589018 6.42877735 -11.27589018 6.42877735 -9.18713284 3.03470802 C-6.02723466 -0.12518387 -4.41827782 0.00681961 0 0 Z " fill="#FBE3A8" transform="translate(178.78733825683594,375.3650817871094)"/>
<path d="M0 0 C58.08 0 116.16 0 176 0 C176 2.64 176 5.28 176 8 C117.92 8 59.84 8 0 8 C0 5.36 0 2.72 0 0 Z " fill="#DABA6E" transform="translate(168,488)"/>
<path d="M0 0 C6.59907967 6.78238744 7.93789055 13.42224304 7.88476562 22.73242188 C7.87227783 23.41361084 7.85979004 24.0947998 7.84692383 24.79663086 C7.81249074 26.87555894 7.82633691 28.95024739 7.84570312 31.02929688 C7.837519 39.57032311 7.23384726 45.8075588 1.3984375 52.40625 C0.81320312 52.8703125 0.22796875 53.334375 -0.375 53.8125 C-0.96539062 54.2971875 -1.55578125 54.781875 -2.1640625 55.28125 C-3.75 56.3125 -3.75 56.3125 -5.75 56.3125 C-5.78738281 55.15234375 -5.82476562 53.9921875 -5.86328125 52.796875 C-6.53984739 35.42981369 -9.19291776 19.58032172 -22.4921875 7.16015625 C-25.43541887 4.75159494 -28.33750937 2.98244223 -31.75 1.3125 C-30.78863016 -1.12364139 -30.2184236 -2.42209297 -27.90234375 -3.734375 C-17.01029399 -7.19216858 -9.69371704 -5.94841727 0 0 Z " fill="#2C4355" transform="translate(352.75,144.6875)"/>
<path d="M0 0 C2.9375 2 2.9375 2 5 5 C4.90501986 12.25861566 2.0333146 17.7927126 -1.20703125 24.17578125 C-1.72883469 25.22275681 -2.25063812 26.26973236 -2.78825378 27.34843445 C-3.88954784 29.55072461 -4.99679155 31.75004844 -6.10961914 33.9465332 C-7.81178204 37.31108086 -9.49006907 40.68678377 -11.16601562 44.06445312 C-12.24078416 46.20643389 -13.31690972 48.3477344 -14.39453125 50.48828125 C-14.89571976 51.49764236 -15.39690826 52.50700348 -15.9132843 53.54695129 C-16.39025253 54.48189926 -16.86722076 55.41684723 -17.35864258 56.38012695 C-17.77310135 57.20205032 -18.18756012 58.02397369 -18.61457825 58.87080383 C-20.16173399 61.24856213 -21.58576655 62.52609737 -24 64 C-27.25769753 64.40721219 -29.29654777 64.30419556 -32.3125 63 C-34.89846159 59.93515664 -35.25083472 56.8843507 -35 53 C-33.66428806 48.9198874 -31.73885642 45.19421309 -29.76953125 41.38671875 C-29.22270187 40.2953511 -28.6758725 39.20398346 -28.11247253 38.07954407 C-26.95578322 35.7812336 -25.78940543 33.48777678 -24.61401367 31.19897461 C-22.81517458 27.69271325 -21.04897542 24.17144493 -19.28710938 20.64648438 C-18.15813476 18.41310875 -17.0273369 16.18065365 -15.89453125 13.94921875 C-15.36519485 12.89611008 -14.83585846 11.8430014 -14.29048157 10.75798035 C-13.7870372 9.78299088 -13.28359283 8.8080014 -12.76489258 7.8034668 C-12.10750847 6.51728706 -12.10750847 6.51728706 -11.43684387 5.2051239 C-8.46005113 0.63664088 -5.42135567 -0.88511929 0 0 Z " fill="#314656" transform="translate(271,404)"/>
<path d="M0 0 C2.64819336 1.23632812 2.64819336 1.23632812 5 4 C5.77029905 8.23006512 5.67576116 12.42980882 5.62890625 16.71875 C5.63131821 17.96877808 5.63373016 19.21880615 5.63621521 20.50671387 C5.63523542 23.15037021 5.62440493 25.79176684 5.59692383 28.43505859 C5.56283889 31.81821776 5.56886034 35.19985992 5.5875864 38.58309174 C5.60071326 41.81589921 5.58243677 45.04847528 5.56640625 48.28125 C5.57136612 49.49486206 5.57632599 50.70847412 5.58143616 51.9588623 C5.56559982 53.08683228 5.54976349 54.21480225 5.53344727 55.37695312 C5.52724869 56.36860474 5.52105011 57.36025635 5.5146637 58.38195801 C4.86078218 61.70818693 3.60746309 62.90351438 1 65 C-1 65.53125 -1 65.53125 -3 65.5 C-3.66 65.5103125 -4.32 65.520625 -5 65.53125 C-7.92210242 64.75506654 -9.09352828 63.31596718 -11 61 C-11.5146637 58.38195801 -11.5146637 58.38195801 -11.53344727 55.37695312 C-11.5492836 54.24898315 -11.56511993 53.12101318 -11.58143616 51.9588623 C-11.57647629 50.74525024 -11.57151642 49.53163818 -11.56640625 48.28125 C-11.57260483 47.03122192 -11.57880341 45.78119385 -11.58518982 44.49328613 C-11.59229504 41.84993656 -11.59104584 39.20810767 -11.57641602 36.56494141 C-11.55922018 33.18163488 -11.58273289 29.80002543 -11.61790562 26.41690826 C-11.64517209 23.18416837 -11.63514405 19.95157246 -11.62890625 16.71875 C-11.64216446 15.50513794 -11.65542267 14.29152588 -11.66908264 13.0411377 C-11.57614747 4.67704654 -11.57614747 4.67704654 -8.64819336 1.23632812 C-5.39319341 -0.28329202 -3.55227016 -0.59204503 0 0 Z " fill="#2C4356" transform="translate(387,139)"/>
<path d="M0 0 C1.6934967 1.20252991 1.6934967 1.20252991 3 3 C3.38768005 5.49778748 3.38768005 5.49778748 3.40405273 8.50952148 C3.41673691 9.63756699 3.42942108 10.76561249 3.44248962 11.92784119 C3.43955399 13.14661453 3.43661835 14.36538788 3.43359375 15.62109375 C3.4388356 16.87253677 3.44407745 18.1239798 3.44947815 19.41334534 C3.45590767 22.0624221 3.45598483 24.7106394 3.44604492 27.35961914 C3.43455949 30.7505656 3.4547568 34.14047002 3.48396206 37.53127956 C3.50674541 40.76955629 3.49985655 44.00775563 3.49609375 47.24609375 C3.50732773 48.46284286 3.51856171 49.67959198 3.53013611 50.93321228 C3.51606468 52.63000877 3.51606468 52.63000877 3.50170898 54.36108398 C3.50154282 55.3557518 3.50137665 56.35041962 3.50120544 57.37522888 C2.86368191 60.71388645 1.61540121 61.90036325 -1 64 C-3 64.53125 -3 64.53125 -5 64.5 C-5.66 64.5103125 -6.32 64.520625 -7 64.53125 C-9.92315006 63.75478827 -11.09448318 62.31820721 -13 60 C-13.50120544 57.37522888 -13.50120544 57.37522888 -13.50170898 54.36108398 C-13.51108994 53.22988632 -13.52047089 52.09868866 -13.53013611 50.93321228 C-13.51890213 49.71646317 -13.50766815 48.49971405 -13.49609375 47.24609375 C-13.49754898 45.993694 -13.49900421 44.74129425 -13.50050354 43.45094299 C-13.49884337 40.80340693 -13.48935408 38.15730736 -13.46655273 35.51000977 C-13.43813821 32.11798795 -13.44091453 28.72686558 -13.45364285 25.33477688 C-13.46227039 22.09682444 -13.44715627 18.85901798 -13.43359375 15.62109375 C-13.43652939 14.4023204 -13.43946503 13.18354706 -13.44248962 11.92784119 C-13.42980545 10.79979568 -13.41712128 9.67175018 -13.40405273 8.50952148 C-13.39864975 7.51564926 -13.39324677 6.52177704 -13.38768005 5.49778748 C-12.93586462 2.58678154 -12.34914362 1.72153798 -10 0 C-6.22941703 -1.25686099 -3.86146303 -0.82745636 0 0 Z " fill="#2C4255" transform="translate(437,220)"/>
<path d="M0 0 C1.6934967 1.20252991 1.6934967 1.20252991 3 3 C3.38768005 5.49778748 3.38768005 5.49778748 3.40405273 8.50952148 C3.41673691 9.63756699 3.42942108 10.76561249 3.44248962 11.92784119 C3.43955399 13.14661453 3.43661835 14.36538788 3.43359375 15.62109375 C3.4388356 16.87253677 3.44407745 18.1239798 3.44947815 19.41334534 C3.45590767 22.0624221 3.45598483 24.7106394 3.44604492 27.35961914 C3.43455949 30.7505656 3.4547568 34.14047002 3.48396206 37.53127956 C3.50674541 40.76955629 3.49985655 44.00775563 3.49609375 47.24609375 C3.50732773 48.46284286 3.51856171 49.67959198 3.53013611 50.93321228 C3.51606468 52.63000877 3.51606468 52.63000877 3.50170898 54.36108398 C3.50154282 55.3557518 3.50137665 56.35041962 3.50120544 57.37522888 C2.86368191 60.71388645 1.61540121 61.90036325 -1 64 C-3 64.53125 -3 64.53125 -5 64.5 C-5.66 64.5103125 -6.32 64.520625 -7 64.53125 C-9.92315006 63.75478827 -11.09448318 62.31820721 -13 60 C-13.50120544 57.37522888 -13.50120544 57.37522888 -13.50170898 54.36108398 C-13.51108994 53.22988632 -13.52047089 52.09868866 -13.53013611 50.93321228 C-13.51890213 49.71646317 -13.50766815 48.49971405 -13.49609375 47.24609375 C-13.49754898 45.993694 -13.49900421 44.74129425 -13.50050354 43.45094299 C-13.49884337 40.80340693 -13.48935408 38.15730736 -13.46655273 35.51000977 C-13.43813821 32.11798795 -13.44091453 28.72686558 -13.45364285 25.33477688 C-13.46227039 22.09682444 -13.44715627 18.85901798 -13.43359375 15.62109375 C-13.43652939 14.4023204 -13.43946503 13.18354706 -13.44248962 11.92784119 C-13.42980545 10.79979568 -13.41712128 9.67175018 -13.40405273 8.50952148 C-13.39864975 7.51564926 -13.39324677 6.52177704 -13.38768005 5.49778748 C-12.93586462 2.58678154 -12.34914362 1.72153798 -10 0 C-6.22941703 -1.25686099 -3.86146303 -0.82745636 0 0 Z " fill="#2C4255" transform="translate(149,220)"/>
<path d="M0 0 C1.29389648 0.00418945 2.58779297 0.00837891 3.92089844 0.01269531 C17.59218984 0.17442466 33.65709467 1.03209467 43.9375 11.3125 C45.3185027 13.36991218 46.59786901 15.45236611 47.82421875 17.60546875 C48.83727829 19.47275719 48.83727829 19.47275719 50.9375 20.3125 C52.52055212 20.36374989 54.10397473 20.40391007 55.6875 20.4375 C59.72301869 20.80489549 61.72780966 21.44824479 64.4375 24.5 C69.21534118 31.18087961 69.19270439 37.34445193 68.9375 45.3125 C68.6075 45.3125 68.2775 45.3125 67.9375 45.3125 C67.69 44.11625 67.4425 42.92 67.1875 41.6875 C66.17556944 37.61809351 64.53629196 34.64220219 61.9375 31.3125 C59.51997784 30.10373892 57.81909441 30.20982156 55.125 30.125 C51.03679315 29.74853203 50.20094461 29.55876344 47.0625 26.625 C45.67690119 24.46509598 44.30137997 22.29868371 42.9375 20.125 C39.05305166 14.66249453 33.84990765 13.5562132 27.625 12.1875 C26.90376953 12.01863281 26.18253906 11.84976563 25.43945312 11.67578125 C9.66414976 8.0821247 -11.26501132 5.6406078 -26.0625 13.3125 C-26.95839844 13.75980469 -27.85429687 14.20710937 -28.77734375 14.66796875 C-38.47936033 19.98199545 -43.35112023 26.98117688 -47.0625 37.3125 C-48.23083551 41.61664801 -49.20670264 45.93610535 -50.0625 50.3125 C-50.3925 50.3125 -50.7225 50.3125 -51.0625 50.3125 C-51.83912193 37.36880119 -48.14531301 24.36848502 -40.31640625 14 C-29.49258877 2.11855378 -15.22886546 -0.06639926 0 0 Z " fill="#D79A71" transform="translate(247.0625,151.6875)"/>
<path d="M0 0 C2.64599609 1.23632812 2.64599609 1.23632812 5 4 C5.78149133 8.22876917 5.69983835 12.42892334 5.6640625 16.71875 C5.66884613 17.96877808 5.67362976 19.21880615 5.67855835 20.50671387 C5.68196183 23.15037595 5.67525117 25.79172687 5.65185547 28.43505859 C5.62336485 31.81842149 5.63977284 35.19980156 5.66971779 38.58309174 C5.69215872 41.81588174 5.6764339 45.04843409 5.6640625 48.28125 C5.67418365 49.49486206 5.68430481 50.70847412 5.69473267 51.9588623 C5.57788325 60.32154757 5.57788325 60.32154757 2.64599609 63.76367188 C-0.60789203 65.28403444 -2.44843336 65.59192777 -6 65 C-8.64599609 63.76367188 -8.64599609 63.76367188 -11 61 C-11.78149133 56.77123083 -11.69983835 52.57107666 -11.6640625 48.28125 C-11.66884613 47.03122192 -11.67362976 45.78119385 -11.67855835 44.49328613 C-11.68196183 41.84962405 -11.67525117 39.20827313 -11.65185547 36.56494141 C-11.62336485 33.18157851 -11.63977284 29.80019844 -11.66971779 26.41690826 C-11.69215872 23.18411826 -11.6764339 19.95156591 -11.6640625 16.71875 C-11.67418365 15.50513794 -11.68430481 14.29152588 -11.69473267 13.0411377 C-11.57788325 4.67845243 -11.57788325 4.67845243 -8.64599609 1.23632812 C-5.39210797 -0.28403444 -3.55156664 -0.59192777 0 0 Z " fill="#2D4355" transform="translate(339,59)"/>
<path d="M0 0 C4.77689392 3.01857106 4.77689392 3.01857106 5.60127258 6.6449585 C5.59016953 7.64867493 5.57906647 8.65239136 5.56762695 9.68652344 C5.5672493 10.82740417 5.56687164 11.96828491 5.56648254 13.14373779 C5.54067612 14.36989807 5.51486969 15.59605835 5.48828125 16.859375 C5.48120651 18.11888977 5.47413177 19.37840454 5.46684265 20.67608643 C5.44359876 24.01735356 5.39871812 27.35690324 5.34332275 30.69769287 C5.29208209 34.10950916 5.26931856 37.5215032 5.24414062 40.93359375 C5.1889944 47.62286982 5.10530735 54.31133577 5 61 C2.5211787 61.19389096 0.04219069 61.38040123 -2.4375 61.5625 C-3.49807617 61.64661133 -3.49807617 61.64661133 -4.58007812 61.73242188 C-6.38427837 61.86190993 -8.19231952 61.93521608 -10 62 C-11.71003682 60.28996318 -11.16275395 58.05542856 -11.19287109 55.7175293 C-11.20893402 54.58933273 -11.22499695 53.46113617 -11.24154663 52.29875183 C-11.28580683 47.12960513 -11.32751202 41.9605489 -11.35009766 36.79125977 C-11.36673376 33.38450941 -11.41149504 29.97872879 -11.4624691 26.57234478 C-11.50423953 23.32308041 -11.51128092 20.07370813 -11.5234375 16.82421875 C-11.54610687 15.60119553 -11.56877625 14.3781723 -11.59213257 13.11808777 C-11.58928253 11.98043472 -11.5864325 10.84278168 -11.58349609 9.6706543 C-11.59158295 8.66995407 -11.5996698 7.66925385 -11.60800171 6.63822937 C-10.27199574 0.84105788 -5.45585103 -0.9093085 0 0 Z " fill="#2D4356" transform="translate(243,59)"/>
<path d="M0 0 C2.36563916 1.46872811 4.32670409 2.85794614 6.4375 4.625 C7.0037207 5.08430908 7.56994141 5.54361816 8.15332031 6.0168457 C9.27157136 6.92706869 10.38519159 7.84301631 11.49365234 8.76513672 C12.75407861 9.79840026 14.05451092 10.78260397 15.36328125 11.75390625 C18.47755681 14.12023986 19.92353899 15.78590916 21.25 19.5 C20.93180822 23.95468485 19.05565977 25.97697621 16 29 C13.45699561 31.1195124 10.79445337 33.00803836 8.0625 34.875 C7.37220703 35.37257813 6.68191406 35.87015625 5.97070312 36.3828125 C1.91348278 39.18248682 -0.89548394 40.8644144 -6 40 C-9.32274404 37.54405875 -10.77618008 36.0743356 -11.625 32 C-10.78831185 27.98389687 -9.07220705 26.66257945 -6 24 C-5.071875 23.071875 -4.14375 22.14375 -3.1875 21.1875 C-2.1046875 20.1046875 -2.1046875 20.1046875 -1 19 C-1.556875 18.773125 -2.11375 18.54625 -2.6875 18.3125 C-5.63694755 16.63848923 -7.6752269 14.45043651 -10 12 C-10.33 11.67 -10.66 11.34 -11 11 C-11.54981758 6.96800439 -11.32867437 5.44467709 -8.875 2.125 C-5.40547096 -0.43943451 -4.22591837 -0.55321113 0 0 Z " fill="#314656" transform="translate(291,416)"/>
<path d="M0 0 C3.32274404 2.45594125 4.77618008 3.9256644 5.625 8 C4.79622227 11.97813311 3.04023948 13.38397998 0 16 C-0.556875 16.598125 -1.11375 17.19625 -1.6875 17.8125 C-3 19 -3 19 -5 19 C-4.278125 19.721875 -3.55625 20.44375 -2.8125 21.1875 C-1.884375 22.115625 -0.95625 23.04375 0 24 C0.928125 24.804375 1.85625 25.60875 2.8125 26.4375 C5 29 5 29 5.625 32 C4.77618008 36.0743356 3.32274404 37.54405875 0 40 C-4.25903696 40.78754382 -6.65587378 39.82851559 -10.1640625 37.55078125 C-11.66149878 36.48590828 -13.14828913 35.40593261 -14.625 34.3125 C-15.75035156 33.51682617 -15.75035156 33.51682617 -16.8984375 32.70507812 C-20.8502777 29.84980351 -24.3161464 27.14841079 -27 23 C-27.3125 19.6875 -27.3125 19.6875 -26 16 C-23.31172367 12.9223871 -20.22710023 10.49216938 -17 8 C-16.06542969 7.24589844 -15.13085938 6.49179687 -14.16796875 5.71484375 C-5.86642161 -0.72424958 -5.86642161 -0.72424958 0 0 Z " fill="#314656" transform="translate(227,416)"/>
<path d="M0 0 C0.99 0.495 0.99 0.495 2 1 C0.99796837 13.22478594 -1.72307833 23.66601513 -10 33 C-13.57568557 37.10559438 -17.00803679 41.26678019 -20.29638672 45.60644531 C-25.82748079 52.88675516 -31.11452227 59.02501042 -40 62 C-49.41330819 63.11661311 -55.5229053 61.45272579 -62.90234375 55.76171875 C-66.14984327 53.01146098 -68.64313866 49.89327398 -71.1875 46.5 C-74.50207937 42.15784924 -77.88316322 37.93336969 -81.49365234 33.83325195 C-89.95028431 24.19406425 -94.69053497 14.12016447 -94 1 C-91.63155428 4.55266858 -90.53357951 8.08161131 -89.1953125 12.11328125 C-86.47186819 18.69048826 -81.69647279 23.95458779 -77.1875 29.375 C-76.59646484 30.09171875 -76.00542969 30.8084375 -75.39648438 31.546875 C-64.68655191 45.99520147 -64.68655191 45.99520147 -49.16796875 53.3359375 C-42.31939945 53.42569594 -37.7974019 52.61020028 -32 49 C-31.3090625 48.70867187 -30.618125 48.41734375 -29.90625 48.1171875 C-27.49710817 46.70527241 -27.18681756 45.50889742 -26 43 C-24.36458575 40.98128554 -22.70893742 39.01645269 -21 37.0625 C-6.07108451 20.63602144 -6.07108451 20.63602144 0 0 Z " fill="#BDC5CD" transform="translate(302,250)"/>
<path d="M0 0 C1.84375 2.01171875 1.84375 2.01171875 3 4 C2.67 4.99 2.34 5.98 2 7 C-0.34548802 7.99370204 -2.57347284 8.78522092 -5 9.5234375 C-6.06456421 9.86551743 -6.06456421 9.86551743 -7.15063477 10.21450806 C-9.43028177 10.94617683 -11.7144341 11.66205353 -14 12.375 C-26.66342037 16.18769154 -26.66342037 16.18769154 -38.43359375 22.10400391 C-40 23 -40 23 -42 23 C-42.65387373 14.54323314 -42.13028058 7.98115662 -37 1 C-26.45330121 -9.83903799 -11.49122902 -9.15439327 0 0 Z " fill="#2C4356" transform="translate(162,306)"/>
<path d="M0 0 C0.28101562 0.59554688 0.56203125 1.19109375 0.8515625 1.8046875 C3.21191239 6.31664885 6.18055436 10.16167747 11 12 C13.78726096 12.32607313 13.78726096 12.32607313 16.87011719 12.31884766 C18.64150055 12.34865219 18.64150055 12.34865219 20.44866943 12.37905884 C21.71857727 12.39061005 22.98848511 12.40216125 24.296875 12.4140625 C25.60078186 12.43342865 26.90468872 12.4527948 28.24810791 12.4727478 C31.70693936 12.52401083 35.16580966 12.56366744 38.62481689 12.60089111 C42.15752732 12.64096753 45.69007693 12.69204322 49.22265625 12.7421875 C56.14831991 12.83887755 63.07408685 12.92330435 70 13 C70 15.64 70 18.28 70 21 C62.41110638 21.09286979 54.82227203 21.16385075 47.23293877 21.20724869 C43.70847306 21.22808269 40.18439747 21.25632202 36.66015625 21.30175781 C32.60412957 21.35371956 28.54850971 21.37297967 24.4921875 21.390625 C23.23260223 21.41127014 21.97301697 21.43191528 20.67526245 21.45318604 C9.79255806 21.45597059 9.79255806 21.45597059 5 17 C1.2608579 12.75556842 -0.13453178 10.49347898 -0.0625 4.875 C-0.05347656 3.96492188 -0.04445313 3.05484375 -0.03515625 2.1171875 C-0.02355469 1.41851562 -0.01195313 0.71984375 0 0 Z " fill="#D0624F" transform="translate(82,475)"/>
<path d="M0 0 C0.33 0 0.66 0 1 0 C1.35480978 4.98704856 1.58540154 8.82919691 -0.6875 13.375 C-3.46395664 16.52665348 -6.22623629 19.11311814 -10 21 C-11.87919548 21.09110781 -13.76166792 21.11752837 -15.64306641 21.11352539 C-16.82413971 21.11344986 -18.00521301 21.11337433 -19.22207642 21.11329651 C-20.50230682 21.10813522 -21.78253723 21.10297394 -23.1015625 21.09765625 C-24.40829926 21.0962413 -25.71503601 21.09482635 -27.06137085 21.09336853 C-30.53676258 21.08954894 -34.01211257 21.07972342 -37.48748779 21.06866455 C-41.03331945 21.05843843 -44.57915785 21.05386833 -48.125 21.04882812 C-55.08335049 21.03810066 -62.04167324 21.02103092 -69 21 C-69 18.36 -69 15.72 -69 13 C-67.91125076 12.99453156 -67.91125076 12.99453156 -66.80050659 12.98895264 C-59.94440556 12.95101178 -53.08869341 12.89409005 -46.23293877 12.81609726 C-42.70865959 12.77666697 -39.18462859 12.74445718 -35.66015625 12.72900391 C-31.60376248 12.71089674 -27.54829512 12.66092678 -23.4921875 12.609375 C-21.6028096 12.60753204 -21.6028096 12.60753204 -19.67526245 12.60565186 C-11.03645067 12.48409971 -11.03645067 12.48409971 -4 8 C-1.68107047 5.44118121 -0.60663905 3.39717866 0 0 Z " fill="#D0624F" transform="translate(429,475)"/>
<path d="M0 0 C0.33 0 0.66 0 1 0 C1.10134036 7.61707204 1.17144061 15.23397053 1.21972656 22.8515625 C1.23985375 25.44342546 1.26715816 28.03524296 1.30175781 30.62695312 C1.35022501 34.35037449 1.37295816 38.07319599 1.390625 41.796875 C1.41127014 42.95741394 1.43191528 44.11795288 1.45318604 45.31365967 C1.45348816 46.39447815 1.45379028 47.47529663 1.45410156 48.58886719 C1.46298401 49.53928894 1.47186646 50.48971069 1.48101807 51.46893311 C0.85760058 54.74929088 -0.43849982 55.93132807 -3 58 C-5.95916382 58.77244967 -7.86731378 58.39780142 -11 58 C-12.8515625 56.4296875 -12.8515625 56.4296875 -14 54 C-13.60305865 51.36382464 -13.08998558 49.14612018 -12.3125 46.625 C-10.88001994 41.55763034 -9.76055336 36.7606384 -9.25 31.5 C-7.90590847 20.62046665 -3.64691716 10.28182273 0 0 Z " fill="#2C4356" transform="translate(343,226)"/>
<path d="M0 0 C0.66 -0.01289063 1.32 -0.02578125 2 -0.0390625 C5.34863671 1.07278953 6.26207479 2.55986277 8 5.625 C8.60725559 9.30231165 8.60388821 12.90493063 8.5625 16.625 C8.58634766 17.60984375 8.61019531 18.5946875 8.63476562 19.609375 C8.62504481 24.40497491 8.58282871 26.84336948 5.65234375 30.7734375 C3 32.625 3 32.625 0 33.25 C-4.20283102 32.3744102 -5.42848764 31.07365052 -8 27.625 C-8.71611264 23.9437452 -8.65302815 20.36356788 -8.5625 16.625 C-8.57345703 15.64015625 -8.58441406 14.6553125 -8.59570312 13.640625 C-8.55091047 9.22108294 -8.42228248 6.36976954 -6.21484375 2.4765625 C-3.89401607 0.53639968 -2.97937183 -0.05819086 0 0 Z " fill="#80D8E2" transform="translate(384,235.375)"/>
<path d="M0 0 C0.66 -0.01289063 1.32 -0.02578125 2 -0.0390625 C5.34863671 1.07278953 6.26207479 2.55986277 8 5.625 C8.60725559 9.30231165 8.60388821 12.90493063 8.5625 16.625 C8.58634766 17.60984375 8.61019531 18.5946875 8.63476562 19.609375 C8.62504481 24.40497491 8.58282871 26.84336948 5.65234375 30.7734375 C3 32.625 3 32.625 0 33.25 C-4.20283102 32.3744102 -5.42848764 31.07365052 -8 27.625 C-8.71611264 23.9437452 -8.65302815 20.36356788 -8.5625 16.625 C-8.57345703 15.64015625 -8.58441406 14.6553125 -8.59570312 13.640625 C-8.55091047 9.22108294 -8.42228248 6.36976954 -6.21484375 2.4765625 C-3.89401607 0.53639968 -2.97937183 -0.05819086 0 0 Z " fill="#80D8E2" transform="translate(96,235.375)"/>
<path d="M0 0 C0.66 -0.02191406 1.32 -0.04382813 2 -0.06640625 C5.37353377 0.99441199 6.26694683 2.4916514 8 5.5625 C8.58191032 9.26130496 8.55843193 12.88779118 8.5 16.625 C8.51546875 17.61822266 8.5309375 18.61144531 8.546875 19.63476562 C8.50805517 26.84069646 8.50805517 26.84069646 6.15234375 30.1875 C3.32279401 31.99512524 1.36102694 32.49390761 -2 32.5625 C-6.56521739 30.43206522 -6.56521739 30.43206522 -8 27.5625 C-8.29452482 23.7771452 -8.27795381 19.98297488 -8.3125 16.1875 C-8.34150391 15.13304687 -8.37050781 14.07859375 -8.40039062 12.9921875 C-8.40876953 11.97640625 -8.41714844 10.960625 -8.42578125 9.9140625 C-8.44036377 8.98416504 -8.45494629 8.05426758 -8.4699707 7.09619141 C-7.62513066 2.5415161 -4.60463236 -0.00899342 0 0 Z " fill="#80D8E2" transform="translate(144,155.4375)"/>
<path d="M0 0 C0.66 -0.0103125 1.32 -0.020625 2 -0.03125 C4.91065063 0.74189157 6.09214945 2.20354939 8 4.5 C8.51757812 7.00195312 8.51757812 7.00195312 8.53125 9.78125 C8.53640625 10.78800781 8.5415625 11.79476562 8.546875 12.83203125 C8.53140625 13.87746094 8.5159375 14.92289063 8.5 16 C8.51546875 17.04542969 8.5309375 18.09085938 8.546875 19.16796875 C8.54171875 20.17472656 8.5365625 21.18148437 8.53125 22.21875 C8.52673828 23.13591797 8.52222656 24.05308594 8.51757812 24.99804688 C7.843295 28.25750606 6.5679729 29.44422478 4 31.5 C0.83478976 32.42318632 -1.10528774 32.79823742 -4.25 31.75 C-6 30.5 -6 30.5 -8 27.5 C-8.46189533 23.70275459 -8.37032435 19.88484551 -8.375 16.0625 C-8.39949219 15.01255859 -8.42398437 13.96261719 -8.44921875 12.88085938 C-8.45308594 11.86958984 -8.45695312 10.85832031 -8.4609375 9.81640625 C-8.47326416 8.43110718 -8.47326416 8.43110718 -8.48583984 7.01782227 C-7.60748467 2.46582384 -4.61207175 -0.07206362 0 0 Z " fill="#80D7E1" transform="translate(288,75.5)"/>
<path d="M0 0 C0.66 -0.0103125 1.32 -0.020625 2 -0.03125 C4.91065063 0.74189157 6.09214945 2.20354939 8 4.5 C8.51757812 7.00195312 8.51757812 7.00195312 8.53125 9.78125 C8.53640625 10.78800781 8.5415625 11.79476562 8.546875 12.83203125 C8.53140625 13.87746094 8.5159375 14.92289063 8.5 16 C8.51546875 17.04542969 8.5309375 18.09085938 8.546875 19.16796875 C8.54171875 20.17472656 8.5365625 21.18148437 8.53125 22.21875 C8.52673828 23.13591797 8.52222656 24.05308594 8.51757812 24.99804688 C7.843295 28.25750606 6.5679729 29.44422478 4 31.5 C0.83478976 32.42318632 -1.10528774 32.79823742 -4.25 31.75 C-6 30.5 -6 30.5 -8 27.5 C-8.46189533 23.70275459 -8.37032435 19.88484551 -8.375 16.0625 C-8.39949219 15.01255859 -8.42398438 13.96261719 -8.44921875 12.88085938 C-8.45308594 11.86958984 -8.45695313 10.85832031 -8.4609375 9.81640625 C-8.47326416 8.43110718 -8.47326416 8.43110718 -8.48583984 7.01782227 C-7.60748467 2.46582384 -4.61207175 -0.07206362 0 0 Z " fill="#80D7E1" transform="translate(192,75.5)"/>
<path d="M0 0 C2.26026662 2.23917297 2.94726764 3.57436103 3.34057617 6.74902344 C3.32486572 7.77543945 3.30915527 8.80185547 3.29296875 9.859375 C3.28330078 10.97441406 3.27363281 12.08945312 3.26367188 13.23828125 C3.23853516 14.39714844 3.21339844 15.55601562 3.1875 16.75 C3.16719727 18.51150391 3.16719727 18.51150391 3.14648438 20.30859375 C3.1111478 23.20619298 3.06180979 26.10286427 3 29 C-0.65304336 27.55170425 -4.23913463 26.0109986 -7.8125 24.375 C-8.78832031 23.92898438 -9.76414062 23.48296875 -10.76953125 23.0234375 C-11.50558594 22.68570312 -12.24164063 22.34796875 -13 22 C-13.08103404 19.08277452 -13.14051081 16.16780484 -13.1875 13.25 C-13.21263672 12.425 -13.23777344 11.6 -13.26367188 10.75 C-13.33756769 4.64127904 -13.33756769 4.64127904 -11.67578125 1.484375 C-7.98509351 -1.78476566 -4.52166833 -1.04967301 0 0 Z " fill="#2D4356" transform="translate(389,300)"/>
<path d="M0 0 C0.66 0 1.32 0 2 0 C2.33773437 0.81984375 2.67546875 1.6396875 3.0234375 2.484375 C3.46945313 3.56203125 3.91546875 4.6396875 4.375 5.75 C4.81585938 6.81734375 5.25671875 7.8846875 5.7109375 8.984375 C6.87178062 11.85772292 6.87178062 11.85772292 8.07421875 13.88671875 C9.49967606 17.14061075 9.89335762 20.5766956 10.4375 24.0625 C11.55694287 30.8438103 12.99506941 37.4164336 15 44 C8.76860586 42.78411822 5.50779618 39.01759506 2 34 C0.01183923 29.94386506 -0.23490295 26.66148509 -0.1953125 22.16796875 C-0.18886719 20.87568359 -0.18242187 19.58339844 -0.17578125 18.25195312 C-0.15907327 16.8971327 -0.14214342 15.54231499 -0.125 14.1875 C-0.11496003 12.81315749 -0.10583596 11.43880797 -0.09765625 10.06445312 C-0.07411242 6.70945683 -0.04122567 3.35481801 0 0 Z " fill="#2D4255" transform="translate(168,238)"/>
<path d="M0 0 C3.27725511 2.75265852 5.49007926 5.89412764 7.171875 9.82421875 C7.171875 10.48421875 7.171875 11.14421875 7.171875 11.82421875 C-0.12379889 10.06723307 -7.27011244 7.80555128 -14.390625 5.44921875 C-15.28362305 5.16941162 -16.17662109 4.88960449 -17.09667969 4.60131836 C-23.467038 2.44347851 -23.467038 2.44347851 -25.41796875 -0.90234375 C-25.55332031 -1.65257812 -25.68867188 -2.4028125 -25.828125 -3.17578125 C-16.61087587 -6.65785314 -8.2061153 -5.39669685 0 0 Z " fill="#2D4355" transform="translate(351.828125,304.17578125)"/>
<path d="M0 0 C2.37261842 1.83686587 2.88057689 3.18792282 3.3125 6.125 C3.50979175 9.8735432 3.41850477 12.28505435 1.5 15.5625 C-2.0502437 17.60389013 -5.00285328 17.77813307 -9 17 C-11.5 15.5625 -11.5 15.5625 -13 13 C-13.66814997 8.81446281 -13.67548383 5.28663587 -11.6875 1.5 C-7.99353237 -1.78352678 -4.53412747 -1.05256531 0 0 Z " fill="#2C4255" transform="translate(477,215)"/>
<path d="M0 0 C4.45850936 0.79616239 5.90783917 1.93313458 8.5 5.625 C9.0625 9.1875 9.0625 9.1875 8.5 12.625 C5.88882396 15.93248965 3.87396185 17.44180509 -0.3125 18 C-3.5 17.625 -3.5 17.625 -6.375 15.5625 C-8.5 12.625 -8.5 12.625 -9.125 9.125 C-8.11027445 3.44253693 -5.68246307 1.01472555 0 0 Z " fill="#2B4254" transform="translate(434.5,336.375)"/>
<path d="M0 0 C4.4297642 0.79102932 5.89210172 1.98974785 8.5 5.625 C9.05348638 9.49940468 8.79968563 12.40544012 6.5 15.625 C3.28044012 17.92468563 0.37440468 18.17848638 -3.5 17.625 C-7.13525215 15.01710172 -8.33397068 13.5547642 -9.125 9.125 C-8.11027445 3.44253693 -5.68246307 1.01472555 0 0 Z " fill="#2C4254" transform="translate(49.5,151.375)"/>
<path d="M0 0 C1.31291016 -0.05607422 1.31291016 -0.05607422 2.65234375 -0.11328125 C5.0625 0.3125 5.0625 0.3125 6.8515625 2.08203125 C8.71940949 5.5224849 8.76735566 8.49844768 8.0625 12.3125 C6.13295537 15.09962003 4.79539213 16.04941052 1.625 17.1875 C-1.50453769 17.34016038 -3.19860704 16.82609874 -5.9375 15.3125 C-8.38495923 12.94943591 -8.89497305 11.72075869 -9.25 8.3125 C-8.94784403 5.41180267 -8.54243878 3.71990817 -6.9375 1.3125 C-4.4933206 0.0904103 -2.72720128 0.07608932 0 0 Z " fill="#2C4254" transform="translate(271.9375,-0.3125)"/>
<path d="M0 0 C3.52744682 0.85916031 4.973663 2.54444741 6.97265625 5.48046875 C7.59867163 9.44523281 7.63211664 11.47808896 5.41015625 14.85546875 C2.20910852 16.98950057 -0.20249429 17.34386698 -4.02734375 17.48046875 C-7.42542401 16.37838867 -7.97466292 15.55948999 -10.02734375 12.48046875 C-10.47239951 8.47496688 -10.37053542 6.15255244 -8.52734375 2.54296875 C-5.66687471 0.18308179 -3.70367472 -0.25614199 0 0 Z " fill="#2D4355" transform="translate(44.02734375,247.51953125)"/>
<path d="M0 0 C4.45850936 0.79616239 5.90783917 1.93313458 8.5 5.625 C9.12601538 9.58976406 9.15946039 11.62262021 6.9375 15 C3.73645227 17.13403182 1.32484946 17.48839823 -2.5 17.625 C-5.89808026 16.52291992 -6.44731917 15.70402124 -8.5 12.625 C-9.06551375 8.26246537 -8.99322651 6.32747412 -6.4375 2.6875 C-3.5 0.625 -3.5 0.625 0 0 Z " fill="#2C4355" transform="translate(462.5,278.375)"/>
<path d="M0 0 C2.4375 1.625 2.4375 1.625 4 4 C4.72125695 8.40768137 4.52001338 10.25937488 1.9375 13.9375 C-1 16 -1 16 -4.5 16.625 C-8.95850936 15.82883761 -10.40783917 14.69186542 -13 11 C-13.5625 7.4375 -13.5625 7.4375 -13 4 C-8.98745153 -1.0825614 -6.2245005 -1.39514666 0 0 Z " fill="#2D4254" transform="translate(474,183)"/>
<path d="M0 0 C2.9168105 2.23622138 3.88797696 4.15982716 4.375 7.8125 C4 11 4 11 1.9375 13.875 C-1 16 -1 16 -4.5 16.625 C-8.95850936 15.82883761 -10.40783917 14.69186542 -13 11 C-13.5625 7.4375 -13.5625 7.4375 -13 4 C-8.96677194 -1.10875554 -6.24807512 -1.31538424 0 0 Z " fill="#2C4355" transform="translate(308,5)"/>
<path d="M0 0 C2.4375 1.625 2.4375 1.625 4 4 C4.59172793 8.06812955 4.37276489 10.27000208 2.5 13.9375 C-0.55589307 16.45861178 -2.23668182 16.63134586 -6.09765625 16.34375 C-8.95159775 15.82804804 -10.19219609 15.31398901 -12 13 C-12.89967847 10.28332384 -13.25046198 7.85526654 -13 5 C-9.3147153 -0.97270278 -6.71729025 -1.50559954 0 0 Z " fill="#2C4355" transform="translate(82,338)"/>
<path d="M0 0 C3.69186542 2.59216083 4.82883761 4.04149064 5.625 8.5 C4.83397068 12.9297642 3.63525215 14.39210172 0 17 C-3.87440468 17.55348638 -6.78044012 17.29968563 -10 15 C-12.06466502 12.34543069 -11.99684937 10.9117824 -11.875 7.5 C-10.17660998 0.70643991 -6.88940307 -1.08780048 0 0 Z " fill="#2C4255" transform="translate(454,309)"/>
<path d="M0 0 C3.27522945 2.15475621 3.90229594 3.6641423 5 7.4375 C5 11 5 11 3.5 13.875 C0.25293011 16.6350094 -1.76307962 17 -6 17 C-8.94755732 15.65437601 -10.54277272 14.91445456 -12 12 C-12.28394278 9.06592458 -12.48994001 6.84953616 -12 4 C-8.51708493 -0.22171524 -5.31642554 -0.77329826 0 0 Z " fill="#2C4254" transform="translate(81,94)"/>
<path d="M0 0 C2.375 1.625 2.375 1.625 4 4 C4.59172793 8.06812955 4.37276489 10.27000208 2.5 13.9375 C-0.36052612 16.29743405 -2.32399572 16.73357225 -6.02734375 16.484375 C-9.51060972 15.62907801 -11.00028288 13.87459336 -13 11 C-13.73807041 7.0636245 -13.36136708 5.56074202 -11.1875 2.1875 C-7.53637316 -1.46362684 -4.79503135 -1.27215117 0 0 Z " fill="#2D4355" transform="translate(54,280)"/>
<path d="M0 0 C3.06458538 2.04305692 3.82153128 3.44079802 4.9375 6.9375 C5.01327396 10.65042412 4.3135507 12.12800603 2 15 C-0.54229606 16.92863839 -1.78345018 17.00902291 -5 16.875 C-8.57231176 15.83307574 -9.93095202 15.10357196 -12 12 C-12.80730018 7.98821239 -12.61584485 5.02640809 -10.5 1.5 C-6.97359191 -0.61584485 -4.01178761 -0.80730018 0 0 Z " fill="#2C4355" transform="translate(466,151)"/>
<path d="M0 0 C3.06458538 2.04305692 3.82153128 3.44079802 4.9375 6.9375 C5.01327396 10.65042412 4.3135507 12.12800603 2 15 C-0.69531332 17.11774618 -2.07214132 16.99746873 -5.5625 16.875 C-9 16 -9 16 -10.9375 14.4375 C-12.47842566 10.90243524 -12.67595245 7.79154935 -12 4 C-9.16760963 -0.72065061 -5.06756055 -1.01975551 0 0 Z " fill="#2C4356" transform="translate(438,93)"/>
<path d="M0 0 C2.88381579 2.58803981 3.8491179 4.19529549 4.5625 8 C3.78698584 12.13607554 2.38677089 13.54999553 -1 16 C-4.5 16.625 -4.5 16.625 -8 16 C-10.9375 13.875 -10.9375 13.875 -13 11 C-13.55348638 7.12559532 -13.29968563 4.21955988 -11 1 C-7.43424307 -1.7733665 -4.19374333 -1.12332411 0 0 Z " fill="#2C4255" transform="translate(152,29)"/>
<path d="M0 0 C3.00342896 2.05497771 3.83287356 3.47633714 4.9375 6.9375 C5.0128328 10.62880732 4.24574926 12.1126081 2 15 C-1.62702989 17.41801993 -3.00610079 17.20120778 -7.125 16.52734375 C-9 16 -9 16 -11 14.4375 C-12.45360213 10.8943448 -12.80967808 7.76307528 -12 4 C-8.51708493 -0.22171524 -5.31642554 -0.77329826 0 0 Z " fill="#2D4255" transform="translate(65,122)"/>
<path d="M0 0 C3.06458538 2.04305692 3.82153128 3.44079802 4.9375 6.9375 C5.01327396 10.65042412 4.3135507 12.12800603 2 15 C-0.54229606 16.92863839 -1.78345018 17.00902291 -5 16.875 C-8.57231176 15.83307574 -9.93095202 15.10357196 -12 12 C-12.80730018 7.98821239 -12.61584485 5.02640809 -10.5 1.5 C-6.97359191 -0.61584485 -4.01178761 -0.80730018 0 0 Z " fill="#2C4355" transform="translate(243,0)"/>
<path d="M0 0 C2.82847039 2.60517009 3.8665852 4.1995112 4.5 8 C3.85480459 11.87117244 2.99993115 13.45005852 0 16 C-5.02455429 16.7975483 -6.83726829 16.82360163 -11 13.875 C-13 11 -13 11 -13.5625 8 C-12.87206143 4.31766096 -11.63186072 2.63186072 -9 0 C-5.39297148 -1.20234284 -3.64185324 -1.0405295 0 0 Z " fill="#2D4255" transform="translate(66,310)"/>
<path d="M0 0 C2.82847039 2.60517009 3.8665852 4.1995112 4.5 8 C3.85480459 11.87117244 2.99993115 13.45005852 0 16 C-5.02455429 16.7975483 -6.83726829 16.82360163 -11 13.875 C-13 11 -13 11 -13.5625 8 C-12.87206143 4.31766096 -11.63186072 2.63186072 -9 0 C-5.39297148 -1.20234284 -3.64185324 -1.0405295 0 0 Z " fill="#2D4255" transform="translate(474,248)"/>
<path d="M0 0 C2 1.625 2 1.625 3 4 C3.17867091 7.8453087 2.83747734 10.928029 0.4375 14 C-3.10596158 15.45372783 -6.23015837 15.67208242 -10 15 C-12.5 13.5 -12.5 13.5 -14 11 C-14.54734685 8.2176535 -14.57639658 5.77925877 -14 3 C-9.86740404 -2.55762905 -6.18393597 -2.31897599 0 0 Z " fill="#2D4255" transform="translate(48,185)"/>
<path d="M0 0 C2.80398661 0.51243287 4.09782877 1.11005767 5.90234375 3.34765625 C6.9808034 7.230111 7.29458317 9.41866815 5.71484375 13.16015625 C3.78604035 15.48802242 2.79944736 16.51991236 -0.09765625 17.34765625 C-3.59890895 17.20177072 -5.57380633 16.70607988 -8.47265625 14.72265625 C-10.75986561 11.3798118 -10.6551696 9.31993887 -10.09765625 5.34765625 C-7.61051678 0.47700811 -5.18045461 -0.37623413 0 0 Z " fill="#2C4356" transform="translate(452.09765625,120.65234375)"/>
<path d="M0 0 C2.5 1.5 2.5 1.5 4 4 C4.54765177 6.78389652 4.56555682 9.21791747 4 12 C2.07045537 14.78712003 0.73289213 15.73691052 -2.4375 16.875 C-5.60118415 17.02932606 -7.25583784 16.58872546 -10 15 C-12.38228107 12.14126272 -13.01378017 10.67522816 -12.9375 6.9375 C-10.78832388 0.20341483 -6.60308595 -1.29896773 0 0 Z " fill="#2C4355" transform="translate(418,68)"/>
<path d="M0 0 C2.46220488 3.69330732 2.67270703 6.7136488 2 11 C0.5 13.5 0.5 13.5 -2 15 C-6.05193677 15.79710231 -8.96828847 15.68780769 -12.4375 13.375 C-14.37231132 10.4340868 -14.92809193 8.52349544 -15 5 C-13.70580407 1.83640996 -12.62852358 0.40155673 -9.75 -1.4375 C-5.96912053 -2.21086171 -3.5529051 -1.40775485 0 0 Z " fill="#2C4154" transform="translate(127,48)"/>
<path d="M0 0 C2.78712003 1.92954463 3.73691052 3.26710787 4.875 6.4375 C5.02932606 9.60118415 4.58872546 11.25583784 3 14 C0.14126272 16.38228107 -1.32477184 17.01378017 -5.0625 16.9375 C-8.55920198 15.82153128 -9.95694308 15.06458538 -12 12 C-12.80730018 7.98821239 -12.61584485 5.02640809 -10.5 1.5 C-6.97785199 -0.6132888 -4.00752241 -0.81467088 0 0 Z " fill="#2D4255" transform="translate(394,46)"/>
<path d="M0 0 C2.4375 1.0625 2.4375 1.0625 4 3 C5.0534289 6.79234406 5.32520706 9.08535515 4 12.8125 C1.23530195 15.83638849 -0.98891185 16.37758977 -5 17 C-8.90249454 16.04605689 -9.72940122 15.40589817 -12 12 C-12.65753425 5.09589041 -12.65753425 5.09589041 -10.5 1.5 C-6.95898567 -0.6246086 -4.02831533 -0.66173558 0 0 Z " fill="#2D4356" transform="translate(338,14)"/>
<path d="M0 0 C3.06018871 2.53771747 3.83450185 4.11734319 4.5625 8 C3.78056289 12.17033126 2.44652326 13.55871269 -1 16 C-4.89784294 16.8876276 -8.01402996 16.59158203 -11.5 14.5 C-13.62410234 10.95982944 -13.7835909 8.02518275 -13 4 C-10.12313182 -1.00324902 -5.24296762 -1.10631427 0 0 Z " fill="#2C4255" transform="translate(102,69)"/>
<path d="M0 0 C2.12890625 0.484375 2.12890625 0.484375 4.69140625 2.609375 C6.38310394 5.99277038 6.75086556 7.75261914 6.12890625 11.484375 C4.27871926 14.56801999 3.06737147 16.12342684 -0.30859375 17.421875 C-3.41315426 17.49759599 -5.15409807 16.98587261 -7.87109375 15.484375 C-10.26551746 13.17251762 -10.81582294 11.855479 -11.30859375 8.546875 C-10.30226429 1.50256877 -6.64840622 -0.39430416 0 0 Z " fill="#2C4356" transform="translate(365.87109375,27.515625)"/>
<path d="M0 0 C2.5 1.5 2.5 1.5 4 4 C4.79710231 8.05193677 4.68780769 10.96828847 2.375 14.4375 C-0.5659132 16.37231132 -2.47650456 16.92809193 -6 17 C-10.56521739 14.86956522 -10.56521739 14.86956522 -12 12 C-12.56872038 4.9478673 -12.56872038 4.9478673 -10.5 1.5 C-6.96411027 -0.62153384 -4.02098277 -0.791013 0 0 Z " fill="#2C4456" transform="translate(44,216)"/>
<path d="M0 0 C2.68063522 2.04846727 2.9945796 2.97909274 3.875 6.375 C4.01368274 10.39679948 3.40382374 11.85653818 1 15 C-0.56941198 16.56941198 -2.14134994 16.2449847 -4.3125 16.3125 C-7.47061466 16.2571827 -8.78348237 16.12674203 -11.5625 14.5 C-13.60389013 10.9497563 -13.77813307 7.99714672 -13 4 C-10.16519014 -0.93010411 -5.19741822 -1.06245566 0 0 Z " fill="#2C4255" transform="translate(212,5)"/>
<path d="M0 0 C2.4375 2.125 2.4375 2.125 4 5 C4 8.92016134 3.55226285 11.17160572 1.375 14.4375 C-2.00237979 16.65946039 -4.03523594 16.62601538 -8 16 C-11.38677089 13.54999553 -12.78698584 12.13607554 -13.5625 8 C-12.87206143 4.31766096 -11.63186072 2.63186072 -9 0 C-5.39297148 -1.20234284 -3.64185324 -1.0405295 0 0 Z " fill="#2C4356" transform="translate(181,15)"/>
<path d="M0 0 C0.495 0.66 0.99 1.32 1.5 2 C4.56237628 4.44990102 6.27297332 4.57732955 10.09375 4.40625 C12.94809908 3.7979461 14.28977272 2.28030304 16 0 C16.47493725 4.84435994 16.72418203 7.9563259 13.875 12.0625 C11 14 11 14 8 14.625 C3.82137038 13.75445216 2.43112843 12.50368509 0 9 C-0.40276286 5.95123812 -0.29949079 3.05480604 0 0 Z " fill="#5FAAB0" transform="translate(376,254)"/>
<path d="M0 0 C0.495 0.66 0.99 1.32 1.5 2 C4.56237628 4.44990102 6.27297332 4.57732955 10.09375 4.40625 C12.94809908 3.7979461 14.28977272 2.28030304 16 0 C16.47493725 4.84435994 16.72418203 7.9563259 13.875 12.0625 C11 14 11 14 8 14.625 C3.82137038 13.75445216 2.43112843 12.50368509 0 9 C-0.40276286 5.95123812 -0.29949079 3.05480604 0 0 Z " fill="#5FAAB0" transform="translate(88,254)"/>
<path d="M0 0 C0.495 0.66 0.99 1.32 1.5 2 C4.56237628 4.44990102 6.27297332 4.57732955 10.09375 4.40625 C12.94809908 3.7979461 14.28977272 2.28030304 16 0 C16.61904762 8.04761905 16.61904762 8.04761905 14.375 11.5 C11.43125008 13.35921047 9.48729073 13.9288308 6 14 C1.43478261 11.86956522 1.43478261 11.86956522 0 9 C-0.06950541 7.45976004 -0.08452357 5.91665012 -0.0625 4.375 C-0.05347656 3.55773437 -0.04445312 2.74046875 -0.03515625 1.8984375 C-0.02355469 1.27195313 -0.01195312 0.64546875 0 0 Z " fill="#5FABB1" transform="translate(136,174)"/>
<path d="M0 0 C0.495 0.66 0.99 1.32 1.5 2 C4.56237628 4.44990102 6.27297332 4.57732955 10.09375 4.40625 C12.94809908 3.7979461 14.28977272 2.28030304 16 0 C16.61904762 8.04761905 16.61904762 8.04761905 14.375 11.5 C11.47340665 13.33258527 9.42573131 13.8572612 6 14 C2.63943304 12.87981101 2.03643934 12.05465901 0 9 C-0.1953125 6.73828125 -0.1953125 6.73828125 -0.125 4.3125 C-0.10695313 3.50425781 -0.08890625 2.69601563 -0.0703125 1.86328125 C-0.04710937 1.24839844 -0.02390625 0.63351563 0 0 Z " fill="#5FABB0" transform="translate(280,94)"/>
<path d="M0 0 C0.495 0.66 0.99 1.32 1.5 2 C4.56237628 4.44990102 6.27297332 4.57732955 10.09375 4.40625 C12.94809908 3.7979461 14.28977272 2.28030304 16 0 C16.61904762 8.04761905 16.61904762 8.04761905 14.375 11.5 C11.47340665 13.33258527 9.42573131 13.8572612 6 14 C2.63943304 12.87981101 2.03643934 12.05465901 0 9 C-0.1953125 6.73828125 -0.1953125 6.73828125 -0.125 4.3125 C-0.10695312 3.50425781 -0.08890625 2.69601563 -0.0703125 1.86328125 C-0.04710937 1.24839844 -0.02390625 0.63351563 0 0 Z " fill="#5FABB0" transform="translate(184,94)"/>
<path d="M0 0 C2.74892592 0.89154354 4.71566361 1.74409725 6.875 3.6875 C8.51652703 7.06175 7.87506375 9.4324324 7 13 C6.01 13.495 6.01 13.495 5 14 C4.15973604 12.23244474 3.32801278 10.46082737 2.5 8.6875 C2.0359375 7.70136719 1.571875 6.71523438 1.09375 5.69921875 C0 3 0 3 0 0 Z " fill="#2C4355" transform="translate(415,362)"/>
<path d="M0 0 C-2.89066059 9.59453303 -2.89066059 9.59453303 -6 13 C-8 10 -8 10 -7.875 7.0625 C-6.58770184 2.55695643 -4.86175215 0 0 0 Z " fill="#2C4154" transform="translate(97,363)"/>
<path d="M0 0 C2.25 -0.3125 2.25 -0.3125 5 0 C7.3125 1.875 7.3125 1.875 9 5 C9.32334339 8.36174475 9.23525873 11.63449311 9 15 C6.8013935 12.8013935 5.84499875 10.85501265 4.5 8.0625 C3.1191594 5.20399156 1.76619814 2.64929721 0 0 Z " fill="#80D6E0" transform="translate(335,156)"/>
<path d="M0 0 C2.05078125 0.03255208 4.1015625 0.06510417 6.15234375 0.09765625 C6.48234375 0.75765625 6.81234375 1.41765625 7.15234375 2.09765625 C5.7168035 2.60325533 4.27882355 3.10193115 2.83984375 3.59765625 C1.63908203 4.0153125 1.63908203 4.0153125 0.4140625 4.44140625 C-1.84765625 5.09765625 -1.84765625 5.09765625 -4.84765625 5.09765625 C-2.44354091 0.12915121 -2.44354091 0.12915121 0 0 Z " fill="#82D8E1" transform="translate(141.84765625,315.90234375)"/>
<path d="M0 0 C0.66 0.66 1.32 1.32 2 2 C1.79840966 4.4190841 1.46922026 6.62807006 1 9 C0.82855469 9.88558594 0.65710938 10.77117187 0.48046875 11.68359375 C-0.00089949 14.12506574 -0.49501381 16.56331904 -1 19 C-1.33 19 -1.66 19 -2 19 C-2.24794402 12.4294834 -1.32388229 6.43028541 0 0 Z " fill="#C58F6B" transform="translate(198,183)"/>
</svg>
