<?xml version="1.0" encoding="UTF-8"?>
<svg version="1.1" xmlns="http://www.w3.org/2000/svg" width="512" height="512">
<path d="M0 0 C0.84554443 -0.00539795 1.69108887 -0.0107959 2.56225586 -0.01635742 C7.88157289 0.02538441 12.53830766 0.61763002 17.6875 1.9375 C23.18577402 3.30415959 26.04371543 3.01030964 31.24609375 1.0390625 C41.3688187 -1.73541571 52.64268115 -0.29704624 62.328125 3.27734375 C67.76433117 5.2023637 67.76433117 5.2023637 73.3203125 4.5078125 C73.95710938 4.13398438 74.59390625 3.76015625 75.25 3.375 C83.09234115 -1.12883448 93.3499854 -0.9477243 102.08203125 0.86328125 C111.12165035 4.09476713 117.31971976 10.08519819 121.625 18.5625 C123.63582832 22.92488033 125.28564214 26.79370373 125.5 31.625 C125.54898437 32.37523437 125.59796875 33.12546875 125.6484375 33.8984375 C124.31479078 39.88989513 117.17137935 43.51086765 112.375 46.8125 C110.84886578 47.8761693 109.32282676 48.93997521 107.796875 50.00390625 C107.02021484 50.54289551 106.24355469 51.08188477 105.44335938 51.63720703 C101.82350897 54.15539698 98.22487054 56.70337218 94.625 59.25 C93.20844626 60.25015995 91.79177928 61.25015955 90.375 62.25 C89.67375 62.745 88.9725 63.24 88.25 63.75 C80.45833333 69.25 72.66666667 74.75 64.875 80.25 C64.1739917 80.74483887 63.4729834 81.23967773 62.75073242 81.74951172 C61.33166042 82.75119043 59.91255225 83.7528179 58.4934082 84.75439453 C54.29490226 87.7176495 50.09774423 90.68279984 45.90161133 93.64941406 C43.7977554 95.13541444 41.6919393 96.61860533 39.5859375 98.1015625 C36.41597377 100.33459114 33.25698215 102.58241082 30.1015625 104.8359375 C2.95558148 124.15757948 -24.69420877 136.35845362 -58.5 136.75 C-59.20754425 136.7584494 -59.9150885 136.7668988 -60.64407349 136.77560425 C-76.88454084 136.87358971 -92.27938557 133.82771314 -108.09336853 130.42027283 C-113.34365792 129.30767008 -118.51919706 128.55399433 -123.875 128.25 C-124.81730469 128.19457031 -125.75960937 128.13914062 -126.73046875 128.08203125 C-143.32268182 127.94306799 -159.46730094 131.52482309 -174.58203125 138.296875 C-176.875 139.25 -176.875 139.25 -178.875 139.25 C-178.59188965 139.81920166 -178.3087793 140.38840332 -178.01708984 140.97485352 C-176.7386494 143.57692111 -175.49431332 146.19395241 -174.25 148.8125 C-173.80398437 149.70775391 -173.35796875 150.60300781 -172.8984375 151.52539062 C-170.88555832 155.81848451 -169.78464658 158.38432823 -170.28515625 163.1796875 C-172.1402429 166.76223813 -173.43521578 167.85631164 -176.9375 169.8125 C-177.48986328 170.12928711 -178.04222656 170.44607422 -178.61132812 170.77246094 C-180.68721349 171.95416903 -182.78133772 173.10008346 -184.875 174.25 C-186.77056122 175.31457438 -188.66500983 176.38113126 -190.55859375 177.44921875 C-194.83058596 179.85557285 -199.11356912 182.24089672 -203.40234375 184.6171875 C-207.60209951 186.95449743 -211.75615131 189.34980407 -215.87890625 191.8203125 C-216.81798828 192.37750977 -217.75707031 192.93470703 -218.72460938 193.50878906 C-220.48314533 194.55644097 -222.23376975 195.61753483 -223.97460938 196.69433594 C-229.21476774 199.79543697 -232.76449949 201.20211641 -238.875 200.25 C-242.13266411 197.54959846 -243.85642477 194.73344203 -245.65234375 190.9375 C-246.15854248 189.87748779 -246.66474121 188.81747559 -247.1862793 187.7253418 C-247.72293213 186.578479 -248.25958496 185.43161621 -248.8125 184.25 C-249.38975036 183.03200893 -249.96764404 181.81432256 -250.54614258 180.59692383 C-254.97344165 171.25766498 -259.31670872 161.87842452 -263.65283203 152.49658203 C-268.27205917 142.51124119 -272.9710493 132.56474014 -277.6875 122.625 C-279.21753235 119.39977963 -280.74748173 116.17451992 -282.27734375 112.94921875 C-282.65689713 112.14906342 -283.0364505 111.34890808 -283.42750549 110.52450562 C-287.19858444 102.57209436 -290.95704573 94.61376353 -294.7071228 86.65142822 C-295.39264329 85.196134 -296.07852536 83.74101003 -296.76480103 82.28607178 C-298.81196436 77.94551945 -300.84812301 73.60006408 -302.875 69.25 C-303.30780273 68.33017334 -303.74060547 67.41034668 -304.18652344 66.46264648 C-304.55036133 65.67317627 -304.91419922 64.88370605 -305.2890625 64.0703125 C-305.59021973 63.4220752 -305.89137695 62.77383789 -306.20166016 62.10595703 C-307.47185273 58.60486785 -307.37606077 55.94532316 -306.875 52.25 C-303.76827343 48.21258291 -299.63772288 46.55156027 -295.05859375 44.640625 C-294.29363586 44.31229675 -293.52867798 43.98396851 -292.74053955 43.64569092 C-290.26852211 42.58745249 -287.79090744 41.54317496 -285.3125 40.5 C-283.61862271 39.78059219 -281.9250192 39.0605394 -280.23168945 38.33984375 C-277.72801553 37.27515729 -275.2238031 36.21185968 -272.71757507 35.15319824 C-268.28817374 33.28212008 -263.87575557 31.38110633 -259.484375 29.421875 C-258.19382202 28.85291504 -258.19382202 28.85291504 -256.87719727 28.27246094 C-255.39905432 27.61952742 -253.92506993 26.95704084 -252.45678711 26.28222656 C-247.63291553 24.18726037 -244.0379707 23.65077439 -238.875 24.25 C-234.65225725 27.07008344 -232.78134738 31.91056228 -230.625 36.375 C-230.26148438 37.10332031 -229.89796875 37.83164062 -229.5234375 38.58203125 C-226.875 43.96851504 -226.875 43.96851504 -226.875 46.25 C-217.43446547 41.72739887 -208.7902685 36.27791552 -200.15478516 30.3984375 C-174.56373446 12.98669381 -148.17690789 3.74076846 -116.67578125 8.96875 C-107.5051058 10.86055345 -98.37319119 14.01589207 -90.29003906 18.77050781 C-81.67594497 23.71810597 -73.63317926 24.59660932 -63.9375 24.625 C-62.78421707 24.63820282 -62.78421707 24.63820282 -61.6076355 24.65167236 C-46.42064635 24.67178836 -37.83588173 19.65359949 -26.92285156 9.10009766 C-19.18495839 2.10942593 -10.07480972 0.04267726 0 0 Z " fill="#010101" transform="translate(346.875,303.75)"/>
<path d="M0 0 C1.27922927 1.07340623 2.55013137 2.15681479 3.8125 3.25 C5.0190625 4.16265625 5.0190625 4.16265625 6.25 5.09375 C18.92234837 15.75706753 28.88107274 34.90663809 30.8125 51.25 C32.7052136 76.7762847 27.50883953 96.85683253 12.3293457 117.37646484 C6.34377884 125.49814913 3.10104671 133.46320677 0.8125 143.25 C1.616875 143.70375 2.42125 144.1575 3.25 144.625 C5.8125 146.25 5.8125 146.25 6.8125 148.25 C6.92356292 150.01556079 6.97170218 151.78523821 6.98950195 153.55419922 C7.00875481 155.21634964 7.00875481 155.21634964 7.02839661 156.91207886 C7.03578354 158.11413971 7.04317047 159.31620056 7.05078125 160.5546875 C7.058853 161.78534943 7.06692474 163.01601135 7.07524109 164.28396606 C7.08909032 166.89160753 7.0998087 169.49926719 7.10766602 172.10693359 C7.11653561 174.78229481 7.13742948 177.45713822 7.16918945 180.13232422 C7.2116954 183.98160586 7.22801205 187.83020082 7.23828125 191.6796875 C7.25578934 192.87769989 7.27329742 194.07571228 7.29133606 195.31002808 C7.28694771 196.98163498 7.28694771 196.98163498 7.2824707 198.68701172 C7.28833694 199.66693085 7.29420319 200.64684998 7.30024719 201.65646362 C6.67125556 205.00105013 5.46093752 206.17649273 2.8125 208.25 C-0.203125 208.859375 -0.203125 208.859375 -3.4375 209 C-4.51515625 209.05671875 -5.5928125 209.1134375 -6.703125 209.171875 C-7.52296875 209.19765625 -8.3428125 209.2234375 -9.1875 209.25 C-9.39503906 209.93964844 -9.60257812 210.62929688 -9.81640625 211.33984375 C-13.37689476 222.20007857 -19.37470116 230.2245972 -29.1875 236.25 C-40.03527824 241.47535731 -50.57192163 242.3269744 -62.1875 239.25 C-73.63018327 235.09511647 -81.96255824 227.17809853 -87.1875 216.25 C-88.05382592 213.90213121 -88.65447163 211.7019305 -89.1875 209.25 C-90.41726562 209.21132813 -90.41726562 209.21132813 -91.671875 209.171875 C-92.74953125 209.11515625 -93.8271875 209.0584375 -94.9375 209 C-96.00484375 208.95359375 -97.0721875 208.9071875 -98.171875 208.859375 C-101.84489553 208.11715842 -102.87102313 207.14908498 -105.1875 204.25 C-105.69543457 201.66992188 -105.69543457 201.66992188 -105.70507812 198.71875 C-105.71768677 197.61080078 -105.73029541 196.50285156 -105.74328613 195.36132812 C-105.73518921 194.16958984 -105.72709229 192.97785156 -105.71875 191.75 C-105.7225769 190.52216797 -105.72640381 189.29433594 -105.73034668 188.02929688 C-105.73306842 185.43358541 -105.72568911 182.83784664 -105.70898438 180.2421875 C-105.68758075 176.26500401 -105.70877963 172.28962718 -105.734375 168.3125 C-105.73173177 165.79166267 -105.72660691 163.27082647 -105.71875 160.75 C-105.72684692 159.55826172 -105.73494385 158.36652344 -105.74328613 157.13867188 C-105.73067749 156.03072266 -105.71806885 154.92277344 -105.70507812 153.78125 C-105.70030457 152.32041992 -105.70030457 152.32041992 -105.69543457 150.83007812 C-105.04533594 147.52787083 -103.75365291 146.3552543 -101.1875 144.25 C-100.5275 143.92 -99.8675 143.59 -99.1875 143.25 C-101.74457554 132.81111516 -105.19366034 124.65784734 -111.5859375 115.98046875 C-117.16136161 108.40672641 -121.82409797 101.12097287 -125.1875 92.25 C-125.6 91.18265625 -126.0125 90.1153125 -126.4375 89.015625 C-132.98173807 68.92844981 -130.47658897 46.61165206 -121.375 27.875 C-118.26497734 21.78995216 -114.68877268 16.40876195 -110.1875 11.25 C-109.02927734 9.79787109 -109.02927734 9.79787109 -107.84765625 8.31640625 C-99.83367411 -1.28413081 -88.67753866 -7.32843272 -77.1875 -11.75 C-76.07503906 -12.18441406 -74.96257812 -12.61882813 -73.81640625 -13.06640625 C-49.10163881 -21.1176415 -20.46360477 -15.78039174 0 0 Z " fill="#000000" transform="translate(337.1875,71.75)"/>
<path d="M0 0 C3.55327746 2.44781336 6.56085419 5.22467978 8.8125 8.9375 C8.8125 10.2575 8.8125 11.5775 8.8125 12.9375 C7.35400391 14.37866211 7.35400391 14.37866211 5.2890625 15.71484375 C4.14219971 16.47486694 4.14219971 16.47486694 2.97216797 17.25024414 C2.13572754 17.78641357 1.29928711 18.32258301 0.4375 18.875 C-1.31913353 20.03691069 -3.07430821 21.2010295 -4.828125 22.3671875 C-6.17293945 23.25615723 -6.17293945 23.25615723 -7.54492188 24.16308594 C-11.53890129 26.84492651 -15.42763932 29.66335347 -19.3125 32.5 C-27.18433904 38.22388166 -35.11730626 43.85504055 -43.07861328 49.45361328 C-45.90794063 51.44442732 -48.7341468 53.43964448 -51.56005859 55.43530273 C-52.97804617 56.43655102 -54.39634044 57.43736511 -55.81494141 58.43774414 C-59.34926949 60.9304396 -62.87963914 63.42839994 -66.40234375 65.9375 C-70.64895634 68.95927942 -74.91484738 71.95269345 -79.1875 74.9375 C-79.9211377 75.45376953 -80.65477539 75.97003906 -81.41064453 76.50195312 C-94.86354905 85.9280386 -108.2852197 93.22751117 -123.9375 98.3125 C-124.6689624 98.55145996 -125.4004248 98.79041992 -126.15405273 99.03662109 C-150.73287252 106.55203129 -175.91677288 103.31370393 -200.38818359 97.40625 C-225.7712789 91.35815581 -253.33439832 94.07931173 -277.1640625 104.60546875 C-280.13099324 105.91260491 -283.10741003 106.93300653 -286.1875 107.9375 C-290.25840598 99.91140886 -294.31856375 91.88000066 -298.36500645 83.84154797 C-300.24416213 80.10935819 -302.12700245 76.37912435 -304.01831055 72.65307617 C-305.84252154 69.05887952 -307.65699007 65.45992108 -309.46473503 61.85741615 C-310.15701665 60.4821096 -310.85282331 59.10857173 -311.55215645 57.73683739 C-312.52919905 55.81891315 -313.4936507 53.89514889 -314.45532227 51.96948242 C-315.00825455 50.87472092 -315.56118683 49.77995941 -316.13087463 48.65202332 C-317.1875 45.9375 -317.1875 45.9375 -316.1875 42.9375 C-313.7578125 41.52734375 -313.7578125 41.52734375 -310.3125 39.875 C-302.97419835 36.20723046 -296.27824772 31.71372096 -289.52514648 27.08868408 C-267.4512174 11.99653445 -245.96976794 3.24051314 -218.875 8.125 C-210.52610553 9.8068358 -202.50374614 12.45723269 -195.10202026 16.71052551 C-185.60415538 22.12556448 -177.92060934 22.89308089 -167.1328125 22.69921875 C-165.53530651 22.69844395 -163.937795 22.7013512 -162.34030151 22.7077179 C-158.17719843 22.71721477 -154.01536486 22.68894181 -149.85247803 22.64855957 C-143.17185419 22.58659343 -136.49153955 22.56739556 -129.81066513 22.57837868 C-127.49481777 22.57430581 -125.18037148 22.54412714 -122.86477661 22.51139832 C-113.79269482 22.4522674 -107.64155406 22.9714673 -100.65625 29.19140625 C-99.68171875 30.33416016 -99.68171875 30.33416016 -98.6875 31.5 C-98.0171875 32.26441406 -97.346875 33.02882813 -96.65625 33.81640625 C-95.1875 35.9375 -95.1875 35.9375 -95.1875 38.9375 C-118.2875 38.9375 -141.3875 38.9375 -165.1875 38.9375 C-165.1875 44.2175 -165.1875 49.4975 -165.1875 54.9375 C-154.58219797 54.87457806 -143.97718647 54.79916493 -133.37214375 54.70178509 C-128.44773814 54.65706607 -123.52341556 54.61781327 -118.59887695 54.59106445 C-113.84601596 54.56504683 -109.0934742 54.52465524 -104.34081078 54.47431374 C-102.52798624 54.45763461 -100.71510648 54.44612684 -98.90221596 54.43988609 C-96.3619608 54.43025635 -93.82252428 54.40221108 -91.2824707 54.36987305 C-90.53368652 54.37130814 -89.78490234 54.37274323 -89.01342773 54.3742218 C-82.88028013 54.26386796 -79.38046418 52.16514638 -74.91015625 48.22265625 C-74.02734985 47.4500647 -74.02734985 47.4500647 -73.12670898 46.66186523 C-72.50739502 46.11344971 -71.88808105 45.56503418 -71.25 45 C-69.90917622 43.82515318 -68.56802295 42.65068231 -67.2265625 41.4765625 C-66.21384277 40.58759277 -66.21384277 40.58759277 -65.18066406 39.68066406 C-62.18070206 37.05698343 -59.15443282 34.46453787 -56.125 31.875 C-54.97130768 30.88807517 -53.8176619 29.90109594 -52.6640625 28.9140625 C-52.09333008 28.42583008 -51.52259766 27.93759766 -50.93457031 27.43457031 C-49.14914376 25.90463241 -47.36713855 24.37079199 -45.5859375 22.8359375 C-42.66717109 20.32118001 -39.73814143 17.81880349 -36.80419922 15.32177734 C-35.28827985 14.02379141 -33.78618975 12.70970327 -32.28515625 11.39453125 C-22.89042642 3.34768231 -12.6784335 -4.2261445 0 0 Z " fill="#F9DFC9" transform="translate(445.1875,321.0625)"/>
<path d="M0 0 C10.34810656 8.25309112 17.4606094 18.3993126 22.22998047 30.71582031 C22.55095703 31.53179687 22.87193359 32.34777344 23.20263672 33.18847656 C28.43943214 48.94757722 25.65973428 66.31737932 18.65576172 81.02050781 C15.74286845 86.24877778 12.33450381 90.93241296 8.66748047 95.65332031 C0.43920478 106.37671197 -3.87494546 118.45030179 -5.77001953 131.71582031 C-27.55001953 131.71582031 -49.33001953 131.71582031 -71.77001953 131.71582031 C-72.43001953 128.08582031 -73.09001953 124.45582031 -73.77001953 120.71582031 C-77.07979633 109.62125015 -82.46801881 99.52096336 -89.89501953 90.65332031 C-101.2152028 76.99027513 -104.16583839 58.97640713 -102.77001953 41.71582031 C-99.74820722 24.18566817 -90.00446058 9.25613622 -75.77001953 -1.22167969 C-52.27468063 -16.45288519 -22.89923683 -16.61379114 0 0 Z " fill="#F7D065" transform="translate(326.77001953125,84.2841796875)"/>
<path d="M0 0 C7.35545407 14.52415944 14.69263437 29.05737827 22.00810432 43.60171127 C25.40511051 50.35444457 28.80806319 57.10405595 32.22509766 63.84667969 C35.20281068 69.72245492 38.1692919 75.60373841 41.1223315 81.49195504 C42.6868647 84.61057724 44.25693878 87.726121 45.84048843 90.83513641 C47.60654799 94.30299298 49.34750969 97.78309507 51.08642578 101.26464844 C51.61725769 102.29755005 52.1480896 103.33045166 52.69500732 104.39465332 C53.16345062 105.34253723 53.63189392 106.29042114 54.11453247 107.26702881 C54.52933931 108.08926815 54.94414616 108.91150749 55.3715229 109.75866318 C56 112 56 112 55.27702141 114.18732071 C53.396286 116.85694715 51.11228206 117.91940663 48.25 119.4609375 C47.67725342 119.77398834 47.10450684 120.08703918 46.5144043 120.40957642 C44.68178845 121.40864543 42.84141866 122.39226647 41 123.375 C39.19471032 124.35054425 37.39118511 125.3292619 35.58837891 126.30938721 C33.83073506 127.26353845 32.06967839 128.21139417 30.30859375 129.15917969 C26.46069288 131.30005724 22.7578299 133.62435356 19.0859375 136.05322266 C17 137 17 137 14.89135742 136.96362305 C12.12923016 135.55635361 11.60886772 133.85707152 10.36328125 131.04296875 C9.87762695 129.96917969 9.39197266 128.89539063 8.89160156 127.7890625 C8.37049805 126.60054688 7.84939453 125.41203125 7.3125 124.1875 C6.45372695 122.27621931 5.58944754 120.36748202 4.72525024 118.45864868 C4.11120337 117.10100735 3.49892251 115.7425661 2.88827515 114.38339233 C-0.37471752 107.12707158 -3.77352243 99.93671942 -7.18353271 92.74859619 C-8.61945434 89.72102287 -10.05142683 86.69158801 -11.48358154 83.66223145 C-12.57896808 81.34542364 -13.67493055 79.02888899 -14.77099609 76.71240234 C-18.17535271 69.51634914 -21.57423177 62.31770866 -24.9732666 55.11914062 C-26.35356223 52.19612526 -27.73415079 49.27324854 -29.11538696 46.35067749 C-29.76383038 44.97681229 -30.41097257 43.60233208 -31.05673218 42.22720337 C-32.77883283 38.56328181 -34.52663761 34.914281 -36.30810547 31.27880859 C-36.68438583 30.50244553 -37.0606662 29.72608246 -37.448349 28.92619324 C-38.1734121 27.43101529 -38.90613762 25.93952221 -39.6474762 24.4523468 C-42.11259162 19.33777487 -42.11259162 19.33777487 -41 16 C-38.45971404 14.68162374 -35.98967525 13.5480849 -33.3515625 12.4609375 C-32.19906509 11.97145126 -32.19906509 11.97145126 -31.02328491 11.47207642 C-28.56136548 10.42948509 -26.09334349 9.40227637 -23.625 8.375 C-21.96833996 7.67544941 -20.3120844 6.97494013 -18.65625 6.2734375 C-3.8007244 0 -3.8007244 0 0 0 Z " fill="#3A5791" transform="translate(101,347)"/>
<path d="M0 0 C5.36706103 10.52529662 10.71446172 21.06032471 16.03720856 31.60810757 C18.50957739 36.50594127 20.98850875 41.40021068 23.48291016 46.28686523 C25.89134547 51.00571869 28.28191981 55.73323093 30.66053772 60.46718025 C31.56964351 62.2688036 32.48506548 64.06725454 33.40696716 65.86236382 C34.70045143 68.38369292 35.97070598 70.91552405 37.23632812 73.45092773 C37.6197084 74.18533081 38.00308868 74.91973389 38.39808655 75.6763916 C40.90720007 80.78460261 41.83226202 85.31545803 41 91 C38.05770659 98.98639522 31.42740711 102.48926104 24 106 C23.34 106 22.68 106 22 106 C14.98438236 91.54189311 8.0481018 77.05591983 1.33081055 62.45629883 C-2.07106522 55.08565305 -5.55026006 47.75654134 -9.078125 40.4453125 C-9.96223951 38.60709321 -10.84619118 36.76879559 -11.72998047 34.93041992 C-13.0471172 32.19075975 -14.36748402 29.45292823 -15.6987915 26.72012329 C-16.9407218 24.17038455 -18.17063589 21.6151589 -19.3984375 19.05859375 C-19.77792542 18.28802643 -20.15741333 17.51745911 -20.54840088 16.72354126 C-23.11369549 11.34108647 -23.11369549 11.34108647 -22 8 C-20.18994141 6.92504883 -20.18994141 6.92504883 -17.8515625 5.95703125 C-17.01109375 5.60576172 -16.170625 5.25449219 -15.3046875 4.89257812 C-13.97824219 4.35793945 -13.97824219 4.35793945 -12.625 3.8125 C-11.7484375 3.44447266 -10.871875 3.07644531 -9.96875 2.69726562 C-3.42325197 0 -3.42325197 0 0 0 Z " fill="#4B6BB3" transform="translate(82,355)"/>
<path d="M0 0 C26.4 0 52.8 0 80 0 C80 10.56 80 21.12 80 32 C53.6 32 27.2 32 0 32 C0 21.44 0 10.88 0 0 Z " fill="#686868" transform="translate(248,232)"/>
<path d="M0 0 C23.76 0 47.52 0 72 0 C72 11 72 11 69.9198761 14.15202332 C66.39926945 16.38019971 64.43127412 16.6066975 60.28198242 16.56762695 C59.62776306 16.56835709 58.9735437 16.56908722 58.29949951 16.56983948 C56.150627 16.56637338 54.00395944 16.52756664 51.85546875 16.48828125 C50.36047042 16.47894945 48.86545674 16.47183507 47.37043762 16.46684265 C43.44586571 16.44780118 39.52222702 16.39872681 35.59802246 16.34332275 C31.58956526 16.2920676 27.58095645 16.26931536 23.57226562 16.24414062 C15.71436889 16.19060336 7.85740824 16.10269263 0 16 C0 10.72 0 5.44 0 0 Z " fill="#929292" transform="translate(248,232)"/>
<path d="M0 0 C15.11350427 0.60454017 26.3050095 5.91289574 36.6875 16.6875 C44.62145647 25.78419146 48 36.04911638 48 48 C42.72 48 37.44 48 32 48 C31.7525 46.515 31.505 45.03 31.25 43.5 C29.70497843 35.85052258 26.61499537 29.53733421 21 24 C17.72162731 21.84940735 17.72162731 21.84940735 14.125 20.1875 C12.95195312 19.60355469 11.77890625 19.01960938 10.5703125 18.41796875 C6.53853764 16.65554617 6.53853764 16.65554617 0 16 C0 10.72 0 5.44 0 0 Z " fill="#020201" transform="translate(288,88)"/>
<path d="M0 0 C1.01964844 -0.01417969 2.03929687 -0.02835937 3.08984375 -0.04296875 C6.13409667 0.19305086 8.30987643 0.90497005 11.0625 2.1875 C3.80349028 9.68847671 -4.13522674 16.40927178 -12.2421875 22.96875 C-16.24248692 26.2617501 -20.09859003 29.70878406 -23.9375 33.1875 C-26.36038953 30.91012936 -28.25073432 28.49429518 -30.125 25.75 C-30.65480469 24.98816406 -31.18460937 24.22632813 -31.73046875 23.44140625 C-32.9375 21.1875 -32.9375 21.1875 -32.9375 17.1875 C-31.6875 15.6953125 -31.6875 15.6953125 -29.9375 14.3125 C-29.29683594 13.80203125 -28.65617187 13.2915625 -27.99609375 12.765625 C-27.31675781 12.24484375 -26.63742187 11.7240625 -25.9375 11.1875 C-25.28910156 10.66671875 -24.64070313 10.1459375 -23.97265625 9.609375 C-16.51902513 3.76454743 -9.58812265 0.06045475 0 0 Z " fill="#EBB49C" transform="translate(389.9375,319.8125)"/>
<path d="M0 0 C3.63303084 1.69586126 5.94549046 3.73800488 8.75 6.625 C9.54921875 7.44226562 10.3484375 8.25953125 11.171875 9.1015625 C11.77515625 9.72804688 12.3784375 10.35453125 13 11 C10.70821345 16.44713342 6.20138563 20.208343 2.09667969 24.32885742 C0.62434584 25.81315947 -0.8283063 27.31510259 -2.28125 28.81835938 C-3.20679688 29.75099609 -4.13234375 30.68363281 -5.0859375 31.64453125 C-5.9320459 32.50409424 -6.7781543 33.36365723 -7.64990234 34.24926758 C-10 36 -10 36 -12.1574707 35.89257812 C-14.85092466 34.5877858 -16.68786342 32.78467763 -18.8125 30.6875 C-19.62332031 29.90761719 -20.43414062 29.12773438 -21.26953125 28.32421875 C-23 26 -23 26 -22.91503906 24.17993164 C-21.59332556 21.03116433 -19.51962794 19.18500574 -17.08984375 16.796875 C-16.60294571 16.3142218 -16.11604767 15.8315686 -15.61439514 15.33428955 C-14.0623455 13.7989915 -12.50017864 12.27447075 -10.9375 10.75 C-9.88147643 9.7090278 -8.82612962 8.6673686 -7.77148438 7.625 C-5.18878585 5.07532367 -2.59691118 2.53520804 0 0 Z " fill="#12110C" transform="translate(377,34)"/>
<path d="M0 0 C3.63303084 1.69586126 5.94549046 3.73800488 8.75 6.625 C9.54921875 7.44226563 10.3484375 8.25953125 11.171875 9.1015625 C11.77515625 9.72804687 12.3784375 10.35453125 13 11 C11.43717018 14.76603869 9.0936525 17.13639151 6.2109375 19.984375 C5.74765045 20.44483215 5.2843634 20.90528931 4.80703735 21.37969971 C3.33434102 22.84125078 1.85482597 24.29567168 0.375 25.75 C-0.62806322 26.74302611 -1.63067257 27.73651089 -2.6328125 28.73046875 C-5.08330835 31.15897941 -7.5399667 33.58114675 -10 36 C-13.63303084 34.30413874 -15.94549046 32.26199512 -18.75 29.375 C-19.54921875 28.55773437 -20.3484375 27.74046875 -21.171875 26.8984375 C-21.77515625 26.27195313 -22.3784375 25.64546875 -23 25 C-21.43717018 21.23396131 -19.0936525 18.86360849 -16.2109375 16.015625 C-15.74765045 15.55516785 -15.2843634 15.09471069 -14.80703735 14.62030029 C-13.33434102 13.15874922 -11.85482597 11.70432832 -10.375 10.25 C-9.37193678 9.25697389 -8.36932743 8.26348911 -7.3671875 7.26953125 C-4.91669165 4.84102059 -2.4600333 2.41885325 0 0 Z " fill="#100F0A" transform="translate(209,186)"/>
<path d="M0 0 C3.76603869 1.56282982 6.13639151 3.9063475 8.984375 6.7890625 C9.44483215 7.25234955 9.90528931 7.7156366 10.37969971 8.19296265 C11.84125078 9.66565898 13.29567168 11.14517403 14.75 12.625 C15.74302611 13.62806322 16.73651089 14.63067257 17.73046875 15.6328125 C20.15897941 18.08330835 22.58114675 20.5399667 25 23 C23.30413874 26.63303084 21.26199512 28.94549046 18.375 31.75 C17.14910156 32.94882813 17.14910156 32.94882813 15.8984375 34.171875 C15.27195312 34.77515625 14.64546875 35.3784375 14 36 C10.23396131 34.43717018 7.86360849 32.0936525 5.015625 29.2109375 C4.55516785 28.74765045 4.09471069 28.2843634 3.62030029 27.80703735 C2.15874922 26.33434102 0.70432832 24.85482597 -0.75 23.375 C-1.74302611 22.37193678 -2.73651089 21.36932743 -3.73046875 20.3671875 C-6.15897941 17.91669165 -8.58114675 15.4600333 -11 13 C-9.30413874 9.36696916 -7.26199512 7.05450954 -4.375 4.25 C-3.55773437 3.45078125 -2.74046875 2.6515625 -1.8984375 1.828125 C-0.95871094 0.92320312 -0.95871094 0.92320312 0 0 Z " fill="#100F0A" transform="translate(373,178)"/>
<path d="M0 0 C3.76603869 1.56282982 6.13639151 3.9063475 8.984375 6.7890625 C9.44483215 7.25234955 9.90528931 7.7156366 10.37969971 8.19296265 C11.84125078 9.66565898 13.29567168 11.14517403 14.75 12.625 C15.74302611 13.62806322 16.73651089 14.63067257 17.73046875 15.6328125 C20.15897941 18.08330835 22.58114675 20.5399667 25 23 C23.30413874 26.63303084 21.26199512 28.94549046 18.375 31.75 C17.14910156 32.94882813 17.14910156 32.94882813 15.8984375 34.171875 C15.27195313 34.77515625 14.64546875 35.3784375 14 36 C10.23396131 34.43717018 7.86360849 32.0936525 5.015625 29.2109375 C4.55516785 28.74765045 4.09471069 28.2843634 3.62030029 27.80703735 C2.15874922 26.33434102 0.70432832 24.85482597 -0.75 23.375 C-1.74302611 22.37193678 -2.73651089 21.36932743 -3.73046875 20.3671875 C-6.15897941 17.91669165 -8.58114675 15.4600333 -11 13 C-9.30413874 9.36696916 -7.26199512 7.05450954 -4.375 4.25 C-3.55773437 3.45078125 -2.74046875 2.6515625 -1.8984375 1.828125 C-0.95871094 0.92320313 -0.95871094 0.92320313 0 0 Z " fill="#100F09" transform="translate(197,34)"/>
<path d="M0 0 C14.52 0 29.04 0 44 0 C41.61198227 7.16405318 38.54590168 10.41792785 32.046875 14.109375 C26.24058396 16.61127277 19.92920799 17.12566499 13.83203125 15.37890625 C8.34190811 12.98958767 4.32439606 8.93359647 1 4 C0.67 2.68 0.34 1.36 0 0 Z " fill="#B2B2B2" transform="translate(266,280)"/>
<path d="M0 0 C10.56 0 21.12 0 32 0 C32 5.28 32 10.56 32 16 C21.44 16 10.88 16 0 16 C0 10.72 0 5.44 0 0 Z " fill="#000000" transform="translate(384,120)"/>
<path d="M0 0 C10.56 0 21.12 0 32 0 C32 5.28 32 10.56 32 16 C21.44 16 10.88 16 0 16 C0 10.72 0 5.44 0 0 Z " fill="#000000" transform="translate(160,120)"/>
<path d="M0 0 C5.28 0 10.56 0 16 0 C16 10.56 16 21.12 16 32 C10.72 32 5.44 32 0 32 C0 21.44 0 10.88 0 0 Z " fill="#000000" transform="translate(280,8)"/>
<path d="M0 0 C0 2 0 2 -1.984375 4.015625 C-9.34455802 9.96198756 -9.34455802 9.96198756 -14.40234375 10.078125 C-17.35366002 9.55874949 -20.14827331 8.91573771 -23 8 C-16.51999657 0.50749603 -9.63591032 -0.53313438 0 0 Z " fill="#D79E8A" transform="translate(352,320)"/>
</svg>
