<?xml version="1.0" encoding="UTF-8"?>
<svg version="1.1" xmlns="http://www.w3.org/2000/svg" width="512" height="512">
<path d="M0 0 C21.14148701 8.76714772 37.08348361 27.46663131 45.75 48.25 C52.15733412 64.3537422 55.30919347 80.93312026 58 98 C58.36351562 97.55269531 58.72703125 97.10539062 59.1015625 96.64453125 C67.53255253 86.50572529 80.36124611 76.35874513 93.5546875 73.43359375 C96.67036557 73.25669628 98.56889331 73.67340402 101.0625 75.5625 C102.9468026 80.46168677 100.83464107 85.80024412 99.48828125 90.69360352 C91.5591564 120.29777842 102.74339463 142.06873826 117.06225586 167.28369141 C133.13421119 195.5877104 133.13421119 195.5877104 137 211 C137.23203125 211.91394531 137.4640625 212.82789063 137.703125 213.76953125 C144.13712415 243.6876273 137.73062191 275.06482813 122.01171875 300.9921875 C103.91219395 328.05361293 77.92042472 346.76762936 45.875 353.3125 C37.93065063 354.82132794 30.09318354 355.79314547 22 356 C21.26346191 356.02578125 20.52692383 356.0515625 19.76806641 356.078125 C1.357344 356.67623984 -15.6601215 354.22744024 -33 348 C-34.03382813 347.63132812 -35.06765625 347.26265625 -36.1328125 346.8828125 C-49.0379987 341.89280717 -60.79104864 334.29222919 -71 325 C-71.57218262 324.48228027 -72.14436523 323.96456055 -72.73388672 323.43115234 C-98.29820003 300.00560558 -112.12096771 269.03763506 -113.87451172 234.55126953 C-114.72372165 210.09690207 -109.26510348 182.72169409 -94 163 C-93 162 -93 162 -90.125 161.8125 C-87 162 -87 162 -84 164 C-83.04802293 168.06753838 -83.00593183 171.77638063 -83.125 175.9375 C-83.17970879 180.87496791 -82.53896691 185.48002491 -81.625 190.3125 C-81.43574951 191.3168811 -81.43574951 191.3168811 -81.24267578 192.34155273 C-80.44346568 196.34508646 -79.37065453 200.15620794 -78 204 C-78.06900513 203.11985229 -78.06900513 203.11985229 -78.1394043 202.22192383 C-80.19143704 174.29855624 -75.41492803 151.49073659 -62 127 C-61.47688232 126.03545898 -60.95376465 125.07091797 -60.41479492 124.07714844 C-54.0605076 112.64192803 -46.69315707 101.91504615 -39.34790039 91.10058594 C-33.60746387 82.63580481 -27.92324713 74.18196756 -22.89453125 65.26953125 C-22.54375015 64.64853546 -22.19296906 64.02753967 -21.83155823 63.38772583 C-12.7169814 46.83347604 -9.0062994 29.75087967 -10.75415039 10.9543457 C-11.27383327 4.73647899 -11.27383327 4.73647899 -10.03125 1.39453125 C-6.82484203 -0.80679115 -3.69060017 -0.6169592 0 0 Z M-15 200 C-18.33699339 204.7110495 -20.87337174 209.83493593 -20.41015625 215.76171875 C-15.34389029 243.40905585 6.76096321 264.10181228 26 283 C29.14079339 281.61753426 31.16500251 280.04189761 33.50390625 277.54296875 C34.48302979 276.50245361 34.48302979 276.50245361 35.48193359 275.44091797 C36.16852051 274.69729004 36.85510742 273.95366211 37.5625 273.1875 C38.27486816 272.42066895 38.98723633 271.65383789 39.72119141 270.86376953 C64.23187811 244.92418955 64.23187811 244.92418955 73.27734375 211.5625 C72.67495056 205.99672632 70.19089093 201.7734152 66 198.125 C59.66298464 193.63628079 54.71845665 193.22815433 47 194 C39.93911081 195.8442621 36.73557704 202.23019783 33 208 C30.42263109 211.89633577 30.42263109 211.89633577 26.6875 212.8125 C22.44859165 211.87850324 22.18598035 211.40489338 19.9375 207.9375 C19.45410156 207.12023437 18.97070312 206.30296875 18.47265625 205.4609375 C17.08472838 203.14158854 15.61327387 201.12751708 13.875 199.0625 C13.19050781 198.24458984 13.19050781 198.24458984 12.4921875 197.41015625 C8.07456348 193.2353859 3.14579797 193.45286267 -2.66796875 193.5703125 C-7.94615993 194.25097021 -11.34347595 196.16863177 -15 200 Z M-77 207 C-76 209 -76 209 -76 209 Z " fill="#FEB128" transform="translate(274,4)"/>
<path d="M0 0 C1.38930977 -0.01475121 1.38930977 -0.01475121 2.8066864 -0.02980042 C4.32069031 -0.01529846 4.32069031 -0.01529846 5.86528015 -0.00050354 C6.93416977 -0.00590652 8.00305939 -0.01130951 9.1043396 -0.01687622 C12.6469219 -0.02940584 16.1886975 -0.0128314 19.73124695 0.00511169 C22.20066368 0.00495668 24.67008066 0.00346731 27.13949585 0.0007019 C32.32554329 -0.00068442 37.511315 0.01190549 42.6973114 0.03465271 C49.30977897 0.06287437 55.92178265 0.06034747 62.53428364 0.0475626 C67.64162065 0.04056413 72.74885276 0.04844478 77.85617638 0.06081963 C80.29155765 0.06530531 82.72695032 0.06569642 85.16233253 0.06175423 C119.30734453 0.03238605 141.43199417 11.591163 169.67216492 29.76976013 C173.68324325 32.34597527 177.71163186 34.89434607 181.7429657 37.43870544 C182.49545593 37.9150946 183.24794617 38.39148376 184.02323914 38.88230896 C188.51001571 41.7177677 193.01541424 44.5206101 197.53593445 47.30198669 C199.1275238 48.28533997 199.1275238 48.28533997 200.75126648 49.28855896 C202.80482499 50.55630254 204.86158162 51.81888678 206.92216492 53.07518005 C223.90630739 63.57788882 223.90630739 63.57788882 226.3679657 68.50120544 C232.43994566 67.87059978 237.89342137 66.18286725 243.66874695 64.24729919 C244.67718658 63.91485703 245.68562622 63.58241486 246.72462463 63.23989868 C248.90444495 62.5207593 251.08341311 61.79903282 253.26161194 61.07499695 C259.11865976 59.12834636 264.98192686 57.20058391 270.8445282 55.27073669 C272.04983688 54.8734436 273.25514557 54.47615051 274.49697876 54.06681824 C286.82509799 50.00883097 299.18793821 46.06209009 311.5554657 42.12620544 C327.32725558 37.10448079 343.06883026 32.00845464 358.741745 26.68528748 C359.95515564 26.27520447 361.16856628 25.86512146 362.41874695 25.44261169 C363.97589417 24.91196106 363.97589417 24.91196106 365.5644989 24.37059021 C374.15570543 21.70636601 382.10972235 21.75662792 390.3679657 25.50120544 C397.90104715 30.47948589 402.83412694 37.19870133 404.9773407 46.00511169 C406.31770566 54.57004381 405.67107308 62.3491889 400.9316864 69.74143982 C393.43566829 79.08601691 383.04882406 83.35656772 372.4929657 88.50120544 C370.46040347 89.5123258 368.42900311 90.52578485 366.39872742 91.54148865 C362.31223186 93.58364193 358.22106999 95.61591327 354.1257782 97.6403656 C346.90457885 101.21770504 339.74035088 104.90206675 332.58396912 108.60691833 C329.06961294 110.42508141 325.55061808 112.23422204 322.0320282 114.04417419 C321.33235931 114.40429596 320.63269043 114.76441772 319.91181946 115.13545227 C312.06162187 119.17543719 304.20485318 123.20259994 296.34812927 127.22987366 C283.5943187 133.76747664 270.84135354 140.30673191 258.09434509 146.85758972 C255.894895 147.98737277 253.69470001 149.11569493 251.49443054 150.24388123 C245.14885416 153.50103205 238.81810367 156.77884885 232.5320282 160.14964294 C219.18426706 167.30566298 208.0526879 172.71942275 192.6804657 173.06370544 C191.83218201 173.09109802 190.98389832 173.1184906 190.10990906 173.14671326 C175.5243441 173.05459675 161.39959604 167.01776187 148.13777161 161.48258972 C144.34058727 159.90185142 140.52652988 158.36302983 136.7117157 156.82542419 C135.60649315 156.37976105 135.60649315 156.37976105 134.47894287 155.9250946 C114.48778509 147.90772845 93.25921306 142.34422044 71.60697937 142.35935974 C70.7830368 142.35588531 69.95909424 142.35241089 69.11018372 142.34883118 C67.33913011 142.34153567 65.56806773 142.33615765 63.79700279 142.33254051 C60.99329761 142.3253143 58.18976134 142.30960749 55.3861084 142.29119873 C47.42117961 142.23898148 39.4563535 142.19068285 31.49125671 142.17527771 C26.60479876 142.16521117 21.71878224 142.13593842 16.83249855 142.0939579 C14.9741836 142.08164227 13.11580643 142.07652767 11.25745201 142.07875633 C8.66514442 142.08110295 6.07411448 142.05899904 3.48197937 142.03123474 C2.7156871 142.03783615 1.94939484 142.04443756 1.15988159 142.05123901 C-2.13640821 141.99316742 -4.17549307 141.85211311 -6.82824993 139.81314564 C-9.04374613 136.9735076 -9.13442905 135.56808156 -9.13996887 131.99790955 C-9.15124817 130.87910904 -9.16252747 129.76030853 -9.17414856 128.60760498 C-9.16605164 127.38462204 -9.15795471 126.1616391 -9.14961243 124.90159607 C-9.1566217 123.61021225 -9.16363098 122.31882843 -9.17085266 120.98831177 C-9.18908353 117.44898393 -9.18201987 113.91012263 -9.16933632 110.37078667 C-9.15920725 106.6664034 -9.16860173 102.96206001 -9.17488098 99.25767517 C-9.18215769 93.03685842 -9.1725692 86.81623163 -9.15351868 80.59544373 C-9.1317497 73.40393363 -9.13880107 66.21287714 -9.1608243 59.02137804 C-9.17897776 52.84629958 -9.18153695 46.67135765 -9.17106962 40.49626112 C-9.16483432 36.8084059 -9.16399985 33.12076388 -9.17721558 29.43292236 C-9.19091866 25.32194668 -9.17192547 21.21175265 -9.14961243 17.10081482 C-9.15770935 15.87783188 -9.16580627 14.65484894 -9.17414856 13.39480591 C-9.16286926 12.2760054 -9.15158997 11.1572049 -9.13996887 10.00450134 C-9.13846077 9.03259605 -9.13695267 8.06069077 -9.13539886 7.0593338 C-8.12810557 1.94020994 -5.00518766 0.00130488 0 0 Z M85.3679657 13.50120544 C85.3679657 51.78120544 85.3679657 90.06120544 85.3679657 129.50120544 C92.6279657 130.82120544 99.8879657 132.14120544 107.3679657 133.50120544 C121.92142546 137.18448847 135.5128299 142.14190325 149.4304657 147.73558044 C155.84903352 150.31229949 162.30649063 152.76024696 168.8054657 155.12620544 C169.70450623 155.45668884 170.60354675 155.78717224 171.52983093 156.12767029 C178.50515942 158.65199771 184.58938052 159.72038294 191.9929657 159.81370544 C192.73675476 159.84270935 193.48054382 159.87171326 194.24687195 159.90159607 C204.68696709 160.01759713 213.77705652 155.02924476 222.8679657 150.37620544 C223.70843445 149.95339294 224.5489032 149.53058044 225.4148407 149.09495544 C231.3697479 146.08267782 237.27203466 142.97334445 243.1726532 139.85667419 C253.06794033 134.63315603 263.02724471 129.53900747 272.99882507 124.46299744 C278.17804373 121.82630046 283.35502564 119.18521903 288.5320282 116.54417419 C289.55677246 116.02146942 290.58151672 115.49876465 291.63731384 114.96022034 C301.51698695 109.91876929 311.37859719 104.84275514 321.23466492 99.75535583 C328.68421904 95.91079259 336.13985611 92.0784323 343.6023407 88.25901794 C344.47717102 87.81110901 345.35200134 87.36320007 346.25334167 86.90171814 C350.51467655 84.72003264 354.77667215 82.53965715 359.0398407 80.36155701 C362.80392902 78.43700102 366.56274725 76.50251895 370.31742859 74.55967712 C371.65543649 73.86900761 372.99505174 73.18144056 374.33647156 72.49742126 C376.12764945 71.58323476 377.91206806 70.65584036 379.6960907 69.72776794 C381.17190613 68.9671405 381.17190613 68.9671405 382.67753601 68.19114685 C387.35812586 65.25112481 390.94570661 61.93164924 392.3679657 56.50120544 C393.0445938 50.52432388 391.67581324 46.38616914 388.3679657 41.50120544 C385.7478586 38.44315537 383.2169395 36.71809219 379.25444031 35.70579529 C374.3152014 35.44578635 370.63876187 36.59798065 365.99687195 38.16526794 C364.60801537 38.61444328 364.60801537 38.61444328 363.19110107 39.07269287 C360.09945981 40.0765299 357.01519051 41.10133014 353.9304657 42.12620544 C351.73671351 42.84307121 349.54252935 43.55861621 347.34794617 44.27293396 C341.95605134 46.03173309 336.56884312 47.80435505 331.18345261 49.58296108 C324.43263004 51.81172329 317.67641958 54.0239685 310.92008018 56.23593903 C301.96260887 59.16862274 293.00581939 62.10331692 284.05375671 65.05247498 C267.18179553 70.60948022 250.28750487 76.09096114 233.3679657 81.50120544 C233.52877625 82.59070496 233.68958679 83.68020447 233.85527039 84.80271912 C235.51031862 96.7419218 234.5672072 107.63357088 227.76249695 117.80979919 C224.90851587 121.27135047 221.55803861 123.10451447 217.3679657 124.50120544 C215.33090095 124.67331202 213.28677258 124.76780434 211.2429657 124.81370544 C209.63034851 124.86977966 209.63034851 124.86977966 207.9851532 124.92698669 C200.61111001 124.05898377 194.21052807 120.02592802 187.9304657 116.25120544 C187.21930603 115.82847351 186.50814636 115.40574158 185.7754364 114.97019958 C178.05980964 110.36062175 170.41109034 105.63914738 162.77250671 100.90330505 C156.73152991 97.16219029 150.66405798 93.47836202 144.54374695 89.86839294 C142.61263714 88.72226405 140.68217173 87.57505756 138.75190735 86.42750549 C137.50404893 85.68976249 136.25323274 84.95699788 134.99940491 84.22944641 C133.25032592 83.21409906 131.5120056 82.18028674 129.7742157 81.14573669 C128.77712585 80.56154968 127.78003601 79.97736267 126.75273132 79.37547302 C124.03424705 77.23892473 123.19474825 75.83325877 122.3679657 72.50120544 C123.2429657 69.68870544 123.2429657 69.68870544 124.3679657 67.50120544 C130.53094001 67.07733276 134.0115686 67.86709427 139.1179657 71.43870544 C140.51574439 72.36225303 141.91566276 73.28256672 143.31718445 74.20042419 C144.49740173 74.98038757 144.49740173 74.98038757 145.70146179 75.77610779 C150.44236737 78.84324191 155.2866271 81.74241993 160.1209259 84.65910339 C163.1485476 86.48634802 166.17202613 88.32042594 169.1960907 90.15354919 C169.79571121 90.5167627 170.39533173 90.8799762 171.01312256 91.25419617 C175.02604785 93.68543373 179.03429387 96.12422813 183.0398407 98.56761169 C184.07809998 99.20086365 185.11635925 99.8341156 186.18608093 100.48655701 C188.12353495 101.66877518 190.06057465 102.85167271 191.99711609 104.03538513 C194.44976888 105.53124254 196.90766314 107.01797479 199.3679657 108.50120544 C200.04117859 108.91410828 200.71439148 109.32701111 201.40800476 109.75242615 C206.29359213 112.67586511 208.78817013 113.31117577 214.3679657 112.50120544 C219.05197033 109.17035771 221.08330006 104.96597544 222.3679657 99.50120544 C223.50640422 91.93475428 221.55117812 84.14992251 217.22782898 77.83616638 C213.11968322 72.62492077 208.11379824 69.41919148 202.4929657 66.00120544 C201.53478943 65.40517517 200.57661316 64.8091449 199.58940125 64.1950531 C197.55714179 62.93194797 195.52182749 61.67374636 193.48368835 60.42015076 C189.38059384 57.89309207 185.29768313 55.33437927 181.2141571 52.77586365 C178.18584681 50.87957503 175.15409019 48.98889356 172.12187195 47.09886169 C167.71765665 44.35015751 163.32845556 41.57901296 158.94779968 38.79295349 C155.88100441 36.84579719 152.80552101 34.91272502 149.7273407 32.98362732 C148.09947927 31.96082365 146.47465469 30.93317616 144.8523407 29.90159607 C124.20683544 16.81046887 111.02682701 13.50120544 85.3679657 13.50120544 Z " fill="#010000" transform="translate(57.63203430175781,335.49879455566406)"/>
<path d="M0 0 C21.14148701 8.76714772 37.08348361 27.46663131 45.75 48.25 C52.15733412 64.3537422 55.30919347 80.93312026 58 98 C58.36351562 97.55269531 58.72703125 97.10539062 59.1015625 96.64453125 C67.53255253 86.50572529 80.36124611 76.35874513 93.5546875 73.43359375 C96.67036557 73.25669628 98.56889331 73.67340402 101.0625 75.5625 C102.9468026 80.46168677 100.83464107 85.80024412 99.48828125 90.69360352 C91.5591564 120.29777842 102.74339463 142.06873826 117.06225586 167.28369141 C133.13421119 195.5877104 133.13421119 195.5877104 137 211 C137.23203125 211.91394531 137.4640625 212.82789063 137.703125 213.76953125 C144.13712415 243.6876273 137.73062191 275.06482813 122.01171875 300.9921875 C103.91219395 328.05361293 77.92042472 346.76762936 45.875 353.3125 C37.93065063 354.82132794 30.09318354 355.79314547 22 356 C21.26346191 356.02578125 20.52692383 356.0515625 19.76806641 356.078125 C1.357344 356.67623984 -15.6601215 354.22744024 -33 348 C-34.03382813 347.63132812 -35.06765625 347.26265625 -36.1328125 346.8828125 C-49.0379987 341.89280717 -60.79104864 334.29222919 -71 325 C-71.57218262 324.48228027 -72.14436523 323.96456055 -72.73388672 323.43115234 C-98.29820003 300.00560558 -112.12096771 269.03763506 -113.87451172 234.55126953 C-114.72372165 210.09690207 -109.26510348 182.72169409 -94 163 C-93 162 -93 162 -90.125 161.8125 C-87 162 -87 162 -84 164 C-83.04802293 168.06753838 -83.00593183 171.77638063 -83.125 175.9375 C-83.17970879 180.87496791 -82.53896691 185.48002491 -81.625 190.3125 C-81.43574951 191.3168811 -81.43574951 191.3168811 -81.24267578 192.34155273 C-80.44346568 196.34508646 -79.37065453 200.15620794 -78 204 C-78.06900513 203.11985229 -78.06900513 203.11985229 -78.1394043 202.22192383 C-80.19143704 174.29855624 -75.41492803 151.49073659 -62 127 C-61.47688232 126.03545898 -60.95376465 125.07091797 -60.41479492 124.07714844 C-54.0605076 112.64192803 -46.69315707 101.91504615 -39.34790039 91.10058594 C-33.60746387 82.63580481 -27.92324713 74.18196756 -22.89453125 65.26953125 C-22.54375015 64.64853546 -22.19296906 64.02753967 -21.83155823 63.38772583 C-12.7169814 46.83347604 -9.0062994 29.75087967 -10.75415039 10.9543457 C-11.27383327 4.73647899 -11.27383327 4.73647899 -10.03125 1.39453125 C-6.82484203 -0.80679115 -3.69060017 -0.6169592 0 0 Z M3 17 C2.96410767 17.83470825 2.96410767 17.83470825 2.92749023 18.6862793 C2.3971745 29.33724066 1.35467765 39.52254531 -2 49.6875 C-2.24177979 50.44313232 -2.48355957 51.19876465 -2.73266602 51.97729492 C-8.9214139 69.48021739 -19.663641 84.98874298 -30.0625 100.1875 C-38.25512886 112.19836875 -46.14266494 124.17080878 -53 137 C-53.87942261 138.63050293 -53.87942261 138.63050293 -54.77661133 140.29394531 C-67.20419443 163.64585789 -69.48008131 189.67236716 -62 215 C-58.94358889 224.0446157 -55.28488435 232.85369329 -50.71606445 241.23950195 C-49.57938628 244.03411032 -50.11239762 246.20063865 -51 249 C-52 250 -52 250 -54.7265625 250.30859375 C-62.83041071 249.54462715 -70.02117211 240.4743283 -75.09375 234.5078125 C-84.50345851 222.12864679 -90.10309304 208.91274453 -94 194 C-94.66 194.33 -95.32 194.66 -96 195 C-96.79006985 197.67133053 -97.4586527 200.28613113 -98.0625 203 C-98.23587891 203.73089844 -98.40925781 204.46179688 -98.58789062 205.21484375 C-105.5323249 235.49364148 -99.19255487 266.39698653 -82.82421875 292.55859375 C-65.74028578 318.50316863 -39.24068811 335.69102822 -9 342 C20.79981273 346.99296968 55.09404378 342.794735 80.5234375 325.73046875 C83.44882792 323.58342771 86.23780673 321.35237231 89 319 C89.86882812 318.28070313 90.73765625 317.56140625 91.6328125 316.8203125 C111.7323034 299.54827292 124.62459984 274.4361878 127 248 C128.65865167 217.12405483 118.65268614 194.41951932 103.06787109 168.41113281 C92.77277812 151.20058844 83.74501142 133.41087369 83.875 112.875 C83.87693359 112.13451416 83.87886719 111.39402832 83.88085938 110.63110352 C83.9294081 104.3892214 84.33026263 98.20703024 85 92 C71.53050289 98.87804108 63.55194599 110.27810966 56.12890625 123.1015625 C55 125 55 125 54 126 C51.625 126.3125 51.625 126.3125 49 126 C45.79297002 122.7982701 45.56702437 120.06519745 45.375 115.64453125 C45.31014404 114.39051514 45.24528809 113.13649902 45.1784668 111.84448242 C45.1497348 111.1858017 45.12100281 110.52712097 45.09140015 109.84848022 C43.64107552 77.54183333 36.630217 46.5505198 13 23 C8.54311045 18.7567726 8.54311045 18.7567726 3 17 Z M-77 207 C-76 209 -76 209 -76 209 Z " fill="#010100" transform="translate(274,4)"/>
<path d="M0 0 C22.44 0 44.88 0 68 0 C68 38.28 68 76.56 68 116 C45.56 116 23.12 116 0 116 C0 77.72 0 39.44 0 0 Z " fill="#FEB128" transform="translate(62,349)"/>
<path d="M0 0 C3.23790839 2.5183732 5.98119048 5.22136621 8.8125 8.1875 C9.14121094 7.74019531 9.46992188 7.29289063 9.80859375 6.83203125 C14.43361497 0.95361674 20.30598789 -3.45639654 27.8125 -4.8125 C39.14624563 -5.68322857 47.58591575 -4.48181854 56.5625 2.6875 C62.71075074 8.48691382 67.21526949 16.84766845 68.015625 25.34375 C68.50684788 49.904894 51.54817669 70.94797431 35.8125 88.1875 C34.03262844 90.03776196 32.22712947 91.84358003 30.37890625 93.625 C28.6350076 95.36454977 27.04069814 97.19271083 25.4375 99.0625 C22.76829051 102.12071985 20.08502415 105.15980892 17.3125 108.125 C16.6215625 108.87652344 15.930625 109.62804687 15.21875 110.40234375 C11.95922851 112.82052771 9.86741981 113.1337907 5.8125 113.1875 C3.3116483 111.43756696 1.5874768 109.95034414 -0.4609375 107.765625 C-1.02898102 107.19100525 -1.59702454 106.6163855 -2.18228149 106.02435303 C-3.99517488 104.18001247 -5.77803114 102.30931035 -7.5625 100.4375 C-8.75345725 99.22354004 -9.9461514 98.01128147 -11.140625 96.80078125 C-17.89813853 89.90254704 -24.25356748 82.8132546 -30.1875 75.1875 C-30.68717285 74.5476416 -31.1868457 73.9077832 -31.70166016 73.24853516 C-43.95284921 57.25100118 -52.04633092 40.78250171 -50.1875 20.1875 C-48.3916363 12.07404436 -43.80281968 5.39780201 -36.98046875 0.65234375 C-24.85959196 -6.43021288 -12.23118204 -6.95498587 0 0 Z M-33.1875 14.1875 C-36.52449339 18.8985495 -39.06087174 24.02243593 -38.59765625 29.94921875 C-33.53139029 57.59655585 -11.42653679 78.28931228 7.8125 97.1875 C10.95329339 95.80503426 12.97750251 94.22939761 15.31640625 91.73046875 C16.29552979 90.68995361 16.29552979 90.68995361 17.29443359 89.62841797 C17.98102051 88.88479004 18.66760742 88.14116211 19.375 87.375 C20.08736816 86.60816895 20.79973633 85.84133789 21.53369141 85.05126953 C46.04437811 59.11168955 46.04437811 59.11168955 55.08984375 25.75 C54.48745056 20.18422632 52.00339093 15.9609152 47.8125 12.3125 C41.47548464 7.82378079 36.53095665 7.41565433 28.8125 8.1875 C21.75161081 10.0317621 18.54807704 16.41769783 14.8125 22.1875 C12.23513109 26.08383577 12.23513109 26.08383577 8.5 27 C4.26109165 26.06600324 3.99848035 25.59239338 1.75 22.125 C1.26660156 21.30773437 0.78320312 20.49046875 0.28515625 19.6484375 C-1.10277162 17.32908854 -2.57422613 15.31501708 -4.3125 13.25 C-4.99699219 12.43208984 -4.99699219 12.43208984 -5.6953125 11.59765625 C-10.11293652 7.4228859 -15.04170203 7.64036267 -20.85546875 7.7578125 C-26.13365993 8.43847021 -29.53097595 10.35613177 -33.1875 14.1875 Z " fill="#020100" transform="translate(292.1875,189.8125)"/>
</svg>
