<svg width="0" height="0" class="hidden">
  <symbol xmlns="http://www.w3.org/2000/svg" fill="currentColor" viewBox="0 -960 960 960" id="arrow_back">
    <path d="m313-440 224 224-57 56-320-320 320-320 57 56-224 224h487v80H313Z"></path>
  </symbol>
  <symbol xmlns="http://www.w3.org/2000/svg" fill="currentColor" viewBox="0 -960 960 960" id="arrow_forward">
    <path d="M647-440H160v-80h487L423-744l57-56 320 320-320 320-57-56 224-224Z"></path>
  </symbol>
  <symbol fill="none" xmlns="http://www.w3.org/2000/svg" viewBox="0 0 32 21" id="flag_egypt">
    <path d="M2.9 0H29.05C30.7 0 32 1.3 32 2.85V18.15C32 19.75 30.7 21 29.1 21H2.9C1.3 21 0 19.7 0 18.15V2.85C0 1.3 1.3 0 2.9 0Z" fill="#CE1126"></path>
    <path d="M0 18.15C0 19.7 1.3 21 2.9 21H29.1C30.7 21 32 19.75 32 18.15V7H0V18.15Z" fill="black"></path>
    <path d="M32 7H0V14H32V7Z" fill="white"></path>
    <path d="M18.3 12.7L18.25 11.4L18.15 8.90001C18.15 8.30001 17.6 8.45001 17.25 8.65001C17.05 8.80001 16.8 8.85001 16.6 8.85001C16.5 8.70001 16.4 8.35001 16.45 8.10001C16.45 7.85001 16.45 7.70001 16.4 7.65001C16.4 7.60001 16.35 7.60001 16.35 7.60001C16.3 7.55001 16.05 7.50001 15.95 7.45001C15.85 7.45001 15.9 7.50001 15.9 7.50001C15.75 7.45001 15.6 7.45001 15.55 7.50001L15.5 7.55001C15.5 7.60001 15.5 7.70001 15.5 7.70001C15.6 7.60001 15.7 7.70001 15.75 7.80001C15.75 7.80001 15.8 7.85001 15.8 7.90001C15.8 8.00001 15.8 8.20001 15.75 8.40001C15.7 8.60001 15.6 8.75001 15.5 8.90001C15.25 8.90001 15.05 8.85001 14.85 8.70001C14.5 8.50001 14 8.35001 13.95 8.95001L13.8 12.75L14.05 12.55L14.15 12.5L14.2 12.45L14.9 11.8L15.05 11.65L14.7 12.5C14.65 12.5 14.6 12.45 14.55 12.45C14.5 12.45 14.5 12.45 14.45 12.5C14.3 12.5 14.25 12.65 14.3 12.75C14.3 12.75 14.3 12.75 14.35 12.75C14.35 12.8 14.3 12.8 14.3 12.85C14.15 12.8 14.15 13.05 14.05 13C14.15 13 14.1 13.2 14.25 13.25C14.25 13.35 14.25 13.45 14.4 13.45C14.75 13.55 15.4 13.6 16.05 13.6C16.7 13.6 17.35 13.55 17.7 13.45C17.85 13.4 17.85 13.35 17.85 13.25C18 13.2 17.95 13 18.05 13C17.95 13.05 17.9 12.8 17.8 12.85C17.8 12.8 17.8 12.8 17.75 12.75C17.75 12.75 17.75 12.75 17.8 12.75C17.85 12.65 17.8 12.5 17.65 12.5C17.6 12.5 17.6 12.45 17.55 12.45C17.5 12.45 17.45 12.5 17.4 12.5L17.15 11.55L17.35 11.7L17.45 11.8L17.65 12L17.9 12.25L18 12.35L18.1 12.4L18.3 12.7ZM15.85 12.7C15.85 12.7 15.8 12.65 15.75 12.65C15.7 12.65 15.6 12.65 15.55 12.65L15.6 12.45L15.7 12.55L15.8 12.45L15.95 11.35L15.9 12.5L16 12.65L16.1 12.5L16.05 11.4L16.2 12.5L16.3 12.6L16.4 12.5L16.45 12.7C16.4 12.7 16.3 12.7 16.25 12.7C16.2 12.7 16.15 12.75 16.15 12.8C16.15 12.8 16.15 12.8 16.15 12.75C16.05 12.75 16.05 12.8 16.05 12.9H16H15.95C15.95 12.75 15.9 12.7 15.85 12.7ZM14.4 12.65C14.45 12.65 14.45 12.65 14.4 12.65V12.65ZM17.55 12.65C17.6 12.65 17.6 12.65 17.55 12.65C17.6 12.65 17.6 12.65 17.6 12.65H17.55Z" fill="#FCD327"></path>
  </symbol>
  <symbol fill="none" xmlns="http://www.w3.org/2000/svg" viewBox="0 0 32 23" id="flag_france">
    <path d="M2.9 1H29.05C30.7 1 32 2.30628 32 3.86377V19.2377C32 20.8454 30.7 22.1014 29.1 22.1014H2.9C1.3 22.1014 0 20.7952 0 19.2377V3.86377C0 2.30628 1.3 1 2.9 1Z" fill="white"></path>
    <path d="M2.9 22.1014H10.65V1H2.9C1.3 1 0 2.30628 0 3.86377V19.2879C0 20.8454 1.3 22.1517 2.9 22.1014Z" fill="#00209F"></path>
    <path d="M29.1001 22.1014H21.3501V1H29.1001C30.7001 1 32.0001 2.30628 32.0001 3.86377V19.2879C32.0001 20.8454 30.7001 22.1517 29.1001 22.1014Z" fill="#F32840"></path>
  </symbol>
  <symbol fill="none" xmlns="http://www.w3.org/2000/svg" viewBox="0 0 32 22" id="flag_italy">
    <path d="M2.9 0H29.05C30.7 0 32 1.30628 32 2.86377V18.2377C32 19.8454 30.7 21.1014 29.1 21.1014H2.9C1.3 21.1014 0 19.7952 0 18.2377V2.86377C0 1.30628 1.3 0 2.9 0Z" fill="white"></path>
    <path d="M2.9 21.1014H10.65V0H2.9C1.3 0 0 1.30628 0 2.86377V18.2879C0 19.8454 1.3 21.1517 2.9 21.1014Z" fill="#009246"></path>
    <path d="M29.1001 21.1014H21.3501V0H29.1001C30.7001 0 32.0001 1.30628 32.0001 2.86377V18.2879C32.0001 19.8454 30.7001 21.1517 29.1001 21.1014Z" fill="#CE2B37"></path>
  </symbol>
  <symbol fill="none" xmlns="http://www.w3.org/2000/svg" viewBox="0 0 32 25" id="flag_spain">
    <path d="M2.9 0H29.05C30.7 0 32 1.52657 32 3.34671V21.3133C32 23.1921 30.7 24.66 29.1 24.66H2.9C1.3 24.66 0 23.1334 0 21.3133V3.34671C0 1.52657 1.3 0 2.9 0Z" fill="#BC091C"></path>
    <path d="M0 21.3133C0 23.1334 1.3 24.66 2.9 24.66H29.1C30.7 24.66 32 23.1921 32 21.3133V8.22H0V21.3133Z" fill="#BC091C"></path>
    <path d="M32 5.4017H0V19.1995H32V5.4017Z" fill="#FFC400"></path>
    <path d="M5.70008 10.6269C5.70008 10.6856 5.75008 10.6856 5.70008 10.6269C5.75008 10.6856 5.75008 10.6856 5.80008 10.6856H5.85008C5.85008 10.6856 5.85008 10.6856 5.85008 10.7443H5.90008C5.90008 10.7443 5.90008 10.803 5.95008 10.803C6.00008 10.803 6.00008 10.803 6.10008 10.803H5.75008V11.155H5.90008C5.85008 11.155 5.85008 11.155 5.85008 11.2137C5.85008 11.2137 5.85008 11.2724 5.90008 11.2724C5.95008 11.2724 5.95008 11.3311 5.95008 11.3311C5.95008 11.3898 5.95008 11.3898 5.90008 11.3898C5.90008 11.3898 5.85008 11.3898 5.85008 11.4484C5.85008 11.4484 5.85008 11.5071 5.90008 11.5071H6.70008C6.75008 11.5071 6.75008 11.5071 6.75008 11.4484C6.75008 11.4484 6.75008 11.3898 6.70008 11.3898C6.65008 11.3898 6.65008 11.3311 6.65008 11.3311C6.65008 11.2724 6.65008 11.2724 6.70008 11.2724C6.70008 11.2724 6.75008 11.2724 6.75008 11.2137C6.75008 11.2137 6.75008 11.155 6.70008 11.155H6.85008V10.803H6.50008C6.55008 10.803 6.60008 10.803 6.65008 10.803C6.70008 10.803 6.70008 10.803 6.70008 10.7443H6.75008V10.6856H6.80008L6.85008 10.6269C6.85008 10.6269 6.85008 10.6269 6.90008 10.5682H6.95008C6.95008 10.5682 6.95008 10.5682 6.90008 10.5682V10.5096V10.4509L6.85008 10.3922H6.80008V10.3335C6.80008 10.3335 6.75008 10.3335 6.70008 10.3335H6.65008H6.60008H6.55008H6.50008C6.50008 10.3335 6.50008 10.3335 6.50008 10.2748V10.2162V10.1575H6.55008V10.0988H6.50008V10.0401H6.45008V10.0988H6.40008V10.1575H6.45008V10.2162V10.2748C6.45008 10.2748 6.45008 10.2748 6.45008 10.3335C6.45008 10.3335 6.40008 10.3335 6.35008 10.3335H6.30008H6.25008H6.20008C6.15008 10.3335 6.15008 10.3335 6.10008 10.3335C6.10008 10.3335 6.10008 10.3335 6.10008 10.3922C6.10008 10.3922 6.05008 10.3922 6.05008 10.4509L6.00008 10.5096C6.00008 10.5682 6.00008 10.6269 6.00008 10.6269H5.95008C5.65008 10.5682 5.65008 10.5682 5.70008 10.6269ZM6.45008 10.8616C6.40008 10.8616 6.30008 10.8616 6.25008 10.803C6.35008 10.803 6.40008 10.803 6.45008 10.8616ZM6.20008 10.803C6.10008 10.803 5.95008 10.803 5.90008 10.8616C5.95008 10.803 6.05008 10.803 6.20008 10.803Z" fill="#BC091C"></path>
    <path d="M6.74995 16.7332C6.74995 16.6745 6.74995 16.6745 6.74995 16.7332V16.4398C6.69995 16.4398 6.59995 16.3811 6.59995 16.3224C6.59995 16.3224 6.59995 16.3224 6.59995 16.2638C6.64995 16.2638 6.64995 16.2638 6.64995 16.2051C6.64995 16.2051 6.64995 16.1464 6.59995 16.1464H5.79995C5.74995 16.1464 5.74995 16.1464 5.74995 16.2051C5.74995 16.2051 5.74995 16.2638 5.79995 16.2638C5.79995 16.2638 5.79995 16.2638 5.79995 16.3224C5.79995 16.3811 5.74995 16.4398 5.64995 16.4398V16.7332C5.59995 16.7919 5.54995 16.7919 5.44995 16.7919V16.9092C5.49995 16.9092 5.59995 16.9092 5.64995 16.8506C5.64995 16.8506 5.64995 16.8506 5.69995 16.8506H5.64995C5.59995 16.9092 5.54995 16.9092 5.44995 16.9092V17.0266V17.1439C5.49995 17.1439 5.59995 17.1439 5.64995 17.0853C5.59995 17.1439 5.54995 17.1439 5.44995 17.1439V17.2613C5.49995 17.2613 5.59995 17.2613 5.64995 17.2026C5.69995 17.2026 5.74995 17.1439 5.84995 17.1439C5.89995 17.1439 5.99995 17.1439 6.04995 17.2026C6.09995 17.2613 6.14995 17.2613 6.24995 17.2613C6.29995 17.2613 6.39995 17.2613 6.44995 17.2026C6.49995 17.2026 6.54995 17.1439 6.64995 17.1439C6.69995 17.1439 6.79995 17.1439 6.84995 17.2026C6.79995 17.2026 6.74995 17.1439 6.64995 17.1439C6.59995 17.1439 6.49995 17.1439 6.44995 17.2026C6.39995 17.2026 6.34995 17.2613 6.24995 17.2613C6.19995 17.2613 6.09995 17.2613 6.04995 17.2026C5.99995 17.2026 5.94995 17.1439 5.84995 17.1439C5.79995 17.1439 5.69995 17.1439 5.64995 17.2026C5.59995 17.2613 5.54995 17.2613 5.44995 17.2613V17.3787C5.49995 17.3787 5.59995 17.3787 5.64995 17.32C5.69995 17.32 5.74995 17.2613 5.84995 17.2613C5.89995 17.2613 5.99995 17.2613 6.04995 17.32C6.09995 17.3787 6.14995 17.3787 6.24995 17.3787C6.29995 17.3787 6.39995 17.3787 6.44995 17.32C6.49995 17.32 6.54995 17.2613 6.64995 17.2613C6.69995 17.2613 6.79995 17.2613 6.84995 17.32C6.89995 17.3787 6.94995 17.3787 7.04995 17.3787V17.2613V17.1439V17.0266V16.9092V16.7919C6.84995 16.7332 6.79995 16.7332 6.74995 16.7332ZM6.39995 16.7332C6.34995 16.7332 6.29995 16.7919 6.19995 16.7919C6.14995 16.7919 6.04995 16.7919 5.99995 16.7332H6.39995ZM5.84995 16.7919H5.79995C5.79995 16.7919 5.79995 16.7919 5.84995 16.7919ZM6.74995 16.8506C6.69995 16.8506 6.64995 16.7919 6.54995 16.7919C6.49995 16.7919 6.39995 16.7919 6.34995 16.8506C6.29995 16.9092 6.24995 16.9092 6.14995 16.9092C6.09995 16.9092 5.99995 16.9092 5.94995 16.8506C5.99995 16.9092 6.04995 16.9092 6.14995 16.9092C6.19995 16.9092 6.29995 16.9092 6.34995 16.8506C6.39995 16.8506 6.44995 16.7919 6.54995 16.7919C6.64995 16.7919 6.69995 16.7919 6.74995 16.8506Z" fill="#BC091C"></path>
    <path d="M12.75 10.5095C12.7 10.5682 12.75 10.5682 12.75 10.5095C12.7 10.5682 12.75 10.5682 12.75 10.5682L12.8 10.6269L12.85 10.6855H12.9C12.9 10.6855 12.9 10.6855 12.9 10.7442H12.95C12.95 10.7442 12.95 10.8029 13 10.8029C13.05 10.8029 13.05 10.8029 13.15 10.8029H12.8V11.155H12.95C12.9 11.155 12.9 11.155 12.9 11.2137C12.9 11.2137 12.9 11.2723 12.95 11.2723C13 11.2723 13 11.331 13 11.331C13 11.3897 13 11.3897 12.95 11.3897C12.95 11.3897 12.9 11.3897 12.9 11.4484C12.9 11.4484 12.9 11.5071 12.95 11.5071H13.75C13.8 11.5071 13.8 11.5071 13.8 11.4484C13.8 11.4484 13.8 11.3897 13.75 11.3897C13.7 11.3897 13.7 11.331 13.7 11.331C13.7 11.2723 13.7 11.2723 13.75 11.2723C13.75 11.2723 13.8 11.2723 13.8 11.2137C13.8 11.2137 13.8 11.155 13.75 11.155H13.9V10.8029H13.55C13.6 10.8029 13.65 10.8029 13.7 10.8029C13.75 10.8029 13.75 10.8029 13.75 10.7442H13.8V10.6855H13.85L13.9 10.6269C13.9 10.6269 13.9 10.6269 13.95 10.5682H14C14 10.5682 14 10.5682 13.95 10.5682V10.5095C13.95 10.4508 13.9 10.3335 13.8 10.3335H13.75L13.8 10.3921C13.8 10.3921 13.8 10.3921 13.75 10.3921C13.75 10.3335 13.7 10.2748 13.65 10.2748C13.6 10.2748 13.6 10.2748 13.55 10.2748L13.65 10.3335C13.6 10.3335 13.6 10.3335 13.55 10.3335C13.55 10.3335 13.55 10.3335 13.55 10.2748C13.55 10.2161 13.55 10.2161 13.5 10.1574V10.0987V10.0401H13.55V9.98138H13.5V9.9227H13.45V9.98138H13.4V10.0401H13.45V10.0987V10.1574C13.45 10.1574 13.4 10.2161 13.4 10.2748C13.4 10.2748 13.4 10.2748 13.4 10.3335C13.4 10.3335 13.35 10.3335 13.3 10.3335L13.4 10.2748C13.4 10.2748 13.35 10.2748 13.3 10.2748C13.25 10.2748 13.2 10.3335 13.2 10.3921C13.2 10.3921 13.2 10.3921 13.15 10.3921L13.2 10.3335H13.15C12.85 10.3921 12.75 10.4508 12.75 10.5095ZM13.55 10.8616C13.5 10.8616 13.4 10.8616 13.35 10.8029C13.4 10.8029 13.5 10.8029 13.55 10.8616ZM13.25 10.6855H13.3C13.3 10.6855 13.3 10.6855 13.25 10.6855ZM13.25 10.8029C13.15 10.8029 13 10.8029 12.95 10.8616C13.05 10.8029 13.15 10.8029 13.25 10.8029Z" fill="#BC091C"></path>
    <path d="M13.85 16.7332C13.8 16.6745 13.8 16.6745 13.85 16.7332V16.4398C13.8 16.4398 13.7 16.3811 13.7 16.3224C13.7 16.3224 13.7 16.3224 13.7 16.2638C13.75 16.2638 13.75 16.2638 13.75 16.2051C13.75 16.2051 13.75 16.1464 13.7 16.1464H12.9C12.85 16.1464 12.85 16.1464 12.85 16.2051C12.85 16.2051 12.85 16.2638 12.9 16.2638C12.9 16.2638 12.9 16.2638 12.9 16.3224C12.9 16.3811 12.85 16.4398 12.75 16.4398V16.7332C12.7 16.7919 12.65 16.7919 12.55 16.7919V16.9092C12.6 16.9092 12.7 16.9092 12.75 16.8506C12.75 16.8506 12.75 16.8506 12.8 16.8506H12.75C12.7 16.9092 12.65 16.9092 12.55 16.9092V17.0266V17.1439C12.6 17.1439 12.7 17.1439 12.75 17.0853C12.7 17.1439 12.65 17.1439 12.55 17.1439V17.2613C12.6 17.2613 12.7 17.2613 12.75 17.2026C12.8 17.2026 12.85 17.1439 12.95 17.1439C13 17.1439 13.1 17.1439 13.15 17.2026C13.2 17.2613 13.25 17.2613 13.35 17.2613C13.4 17.2613 13.5 17.2613 13.55 17.2026C13.6 17.2026 13.65 17.1439 13.75 17.1439C13.8 17.1439 13.9 17.1439 13.95 17.2026C13.9 17.2026 13.85 17.1439 13.75 17.1439C13.7 17.1439 13.6 17.1439 13.55 17.2026C13.5 17.2026 13.45 17.2613 13.35 17.2613C13.3 17.2613 13.2 17.2613 13.15 17.2026C13.1 17.2026 13.05 17.1439 12.95 17.1439C12.9 17.1439 12.8 17.1439 12.75 17.2026C12.7 17.2613 12.65 17.2613 12.55 17.2613V17.3787C12.6 17.3787 12.7 17.3787 12.75 17.32C12.8 17.32 12.85 17.2613 12.95 17.2613C13 17.2613 13.1 17.2613 13.15 17.32C13.2 17.3787 13.25 17.3787 13.35 17.3787C13.4 17.3787 13.5 17.3787 13.55 17.32C13.6 17.32 13.65 17.2613 13.75 17.2613C13.8 17.2613 13.9 17.2613 13.95 17.32C14 17.3787 14.05 17.3787 14.15 17.3787V17.2613V17.1439V17.0266V16.9092V16.7919C13.95 16.7332 13.9 16.7332 13.85 16.7332ZM13.45 16.7332C13.4 16.7332 13.35 16.7919 13.25 16.7919C13.2 16.7919 13.1 16.7919 13.05 16.7332H13.45ZM13.85 16.8506C13.8 16.8506 13.75 16.7919 13.65 16.7919C13.6 16.7919 13.5 16.7919 13.45 16.8506C13.4 16.9092 13.35 16.9092 13.25 16.9092C13.2 16.9092 13.1 16.9092 13.05 16.8506C13.1 16.9092 13.15 16.9092 13.25 16.9092C13.3 16.9092 13.4 16.9092 13.45 16.8506C13.5 16.8506 13.55 16.7919 13.65 16.7919C13.7 16.7919 13.8 16.7919 13.85 16.8506Z" fill="#BC091C"></path>
    <path d="M14.05 13.6804C14.05 13.6804 14.2 13.2107 14.25 13.2107C14.25 13.0346 14.05 12.8584 13.7 12.741V11.6254H12.95V12.6236C12.65 12.6236 12.35 12.6823 12.2 12.741V10.9209H10.45C10.75 10.8621 11.05 10.8034 11.3 10.7447C11.35 10.7447 11.35 10.686 11.35 10.686C11.35 10.686 11.35 10.6273 11.3 10.6273C11.25 10.6273 11.25 10.5686 11.3 10.5099L11.4 10.4511L11.35 10.3924C11.4 10.3337 11.4 10.3337 11.45 10.3337C11.5 10.3337 11.5 10.3337 11.5 10.275C11.5 10.2163 11.5 10.2163 11.45 10.2163C11.4 10.2163 11.4 10.2163 11.35 10.2163H11.4C11.45 10.2163 11.55 10.2163 11.6 10.1576C11.65 10.0989 11.75 9.98142 11.75 9.98142C11.8 9.98142 11.8 9.98142 11.85 9.98142C11.9 9.92271 11.9 9.86399 11.85 9.86399C11.85 9.86399 11.9 9.74657 11.95 9.68785C12 9.62914 12.1 9.68785 12.1 9.68785C12.1 9.57042 12.05 9.51171 11.95 9.51171V9.453L12 9.39428C12.05 9.27685 12.1 9.15942 12.1 9.042C12.1 8.80714 11.95 8.631 11.8 8.45485L11.85 8.51357C11.7 8.39614 11.45 8.27871 11.2 8.27871C11.15 8.27871 11.05 8.27871 11 8.27871C11 8.27871 11 8.27871 10.95 8.27871H10.9C10.9 8.27871 10.9 8.27871 10.85 8.27871C10.8 8.22 10.75 8.16128 10.7 8.10257C10.75 8.16128 10.8 8.22 10.8 8.22C10.7 8.04385 10.45 7.86771 10.2 7.86771C10.05 7.86771 9.90002 7.92643 9.75002 7.98514C9.75002 7.98514 9.75002 7.92643 9.70002 7.92643C9.70002 7.92643 9.70002 7.92643 9.75002 7.92643C9.80002 7.92643 9.80002 7.92643 9.80002 7.86771C9.80002 7.809 9.80002 7.809 9.75002 7.809C9.70002 7.809 9.70002 7.809 9.70002 7.86771C9.70002 7.86771 9.65002 7.809 9.60002 7.809C9.65002 7.809 9.70002 7.75028 9.75002 7.69157C9.75002 7.69157 9.75002 7.63285 9.75002 7.57414C9.75002 7.45671 9.70002 7.398 9.60002 7.33928V7.16314H9.70002V7.04571H9.60002V6.92828H9.50002V7.04571H9.40002V7.16314H9.50002V7.33928C9.40002 7.33928 9.35002 7.45671 9.35002 7.57414C9.35002 7.63285 9.35002 7.63285 9.35002 7.69157C9.40002 7.75028 9.45002 7.809 9.50002 7.809C9.45002 7.809 9.45002 7.86771 9.40002 7.86771C9.40002 7.809 9.40002 7.809 9.35002 7.809C9.30002 7.809 9.30002 7.809 9.30002 7.86771C9.30002 7.92643 9.30002 7.92643 9.35002 7.92643C9.35002 7.92643 9.35002 7.92643 9.40002 7.92643C9.40002 7.92643 9.40002 7.98514 9.35002 7.98514C9.25002 7.92643 9.10002 7.86771 8.90002 7.86771C8.65002 7.86771 8.40002 7.98514 8.30002 8.22C8.35002 8.16128 8.35002 8.10257 8.40002 8.10257C8.35002 8.16128 8.30002 8.22 8.25002 8.27871C8.25002 8.27871 8.25002 8.27871 8.20002 8.27871C8.20002 8.27871 8.20002 8.27871 8.15002 8.27871C8.15002 8.27871 8.15002 8.27871 8.10002 8.27871C8.05002 8.27871 7.95002 8.27871 7.90002 8.27871C7.65002 8.27871 7.45002 8.33742 7.30002 8.45485C7.10002 8.57228 7.00002 8.80714 7.00002 9.042C7.00002 9.15942 7.05002 9.27685 7.10002 9.39428L7.15002 9.453C7.10002 9.453 7.05002 9.51171 7.05002 9.62914C7.05002 9.62914 7.15002 9.62914 7.20002 9.62914C7.25002 9.68785 7.30002 9.80528 7.30002 9.80528C7.30002 9.86399 7.30002 9.86399 7.35002 9.92271C7.40002 9.98142 7.40002 9.98142 7.45002 9.92271C7.50002 9.98142 7.55002 10.0989 7.60002 10.0989C7.65002 10.1576 7.75002 10.1576 7.80002 10.1576C7.80002 10.1576 7.80002 10.1576 7.85002 10.1576H7.80002C7.75002 10.1576 7.75002 10.2163 7.75002 10.2163C7.75002 10.275 7.80002 10.275 7.80002 10.275C7.80002 10.275 7.85002 10.275 7.90002 10.3337L7.85002 10.3924L7.95002 10.4511C7.95002 10.5099 7.95002 10.5686 7.95002 10.5686L7.90002 10.6273C7.90002 10.686 7.90002 10.686 7.95002 10.686C8.20002 10.7447 8.45002 10.8034 8.80002 10.8621H7.05002V12.6823C6.90002 12.6236 6.60002 12.5648 6.30002 12.5648V11.5667H5.55002V12.6823C5.20002 12.7997 4.95002 12.9758 5.00002 13.152L5.20002 13.6217C5.20002 13.7391 5.35002 13.7978 5.60002 13.7978V13.3868C5.55002 13.3868 5.45002 13.3868 5.40002 13.3868C5.45002 13.3281 5.50002 13.3281 5.60002 13.2694V13.3868V14.3263C5.30002 14.4437 5.10002 14.6198 5.10002 14.6786L5.15002 15.1483C5.15002 15.207 5.20002 15.207 5.25002 15.2657C5.35002 15.3244 5.35002 15.4418 5.35002 15.5006C5.40002 15.4418 5.45002 15.3244 5.45002 15.2657C5.45002 15.1483 5.40002 15.0896 5.35002 15.0308C5.40002 14.9721 5.50002 14.9134 5.60002 14.9134V16.1464H6.35002V14.5024C6.60002 14.3263 6.70002 14.2088 6.70002 14.1501C6.70002 14.1501 6.65002 13.7391 6.65002 13.6804C6.60002 13.6217 6.50002 13.6217 6.35002 13.563V13.974V13.152C6.65002 13.152 6.95002 13.2107 7.10002 13.3281V13.974V15.8528C7.10002 15.9116 7.10002 15.9703 7.10002 16.029C7.10002 16.1464 7.15002 16.3226 7.20002 16.44C7.25002 16.4987 7.25002 16.5574 7.30002 16.6748C7.30002 16.7336 7.35002 16.7336 7.35002 16.7923C7.45002 16.9097 7.60002 17.0271 7.70002 17.1446C8.20002 17.4381 8.85002 17.6143 9.45002 17.6143C10.05 17.6143 10.7 17.4381 11.2 17.1446C11.45 16.9684 11.65 16.7336 11.75 16.3813C11.8 16.2638 11.8 16.0877 11.8 15.9703V14.0914V13.3868C11.95 13.3281 12.25 13.2694 12.55 13.2694V13.5043C12.4 13.5043 12.3 13.563 12.25 13.6217L12.2 14.0914C12.15 14.1501 12.3 14.2676 12.55 14.4437V16.0877H13.3V14.8547C13.4 14.9134 13.45 14.9134 13.55 14.9721C13.5 15.0308 13.45 15.1483 13.45 15.207C13.45 15.3244 13.5 15.3831 13.55 15.4418C13.5 15.3831 13.55 15.2657 13.65 15.207C13.7 15.1483 13.75 15.1483 13.75 15.0896L13.8 14.6198C13.8 14.5611 13.6 14.385 13.3 14.2676V13.2107C13.35 13.2694 13.45 13.2694 13.5 13.3281C13.45 13.3281 13.4 13.3281 13.3 13.3281V13.7391C13.9 13.7978 14 13.7391 14.05 13.6804ZM12 9.15942C12 9.15942 12 9.10071 12.05 9.10071C12.05 9.10071 12.05 9.10071 12 9.15942ZM11.05 8.33742C11.15 8.33742 11.2 8.33742 11.3 8.33742C11.65 8.33742 11.95 8.51357 12 8.68971C12 8.74842 12.05 8.80714 12.05 8.86585C12.05 8.92457 12.05 9.042 12 9.10071C11.95 9.042 11.85 8.98328 11.75 8.92457C11.5 8.80714 11.35 8.80714 11.2 8.80714C11.15 8.80714 11.1 8.80714 11.1 8.80714V8.74842V8.68971C11.15 8.68971 11.15 8.68971 11.15 8.631C11.15 8.631 11.15 8.57228 11.1 8.57228V8.51357C11.1 8.51357 11.15 8.51357 11.15 8.45485C11.15 8.39614 11.15 8.39614 11.1 8.39614C11.05 8.39614 11.05 8.33742 11.05 8.33742ZM8.40002 8.39614C8.35002 8.39614 8.35002 8.39614 8.35002 8.45485C8.35002 8.45485 8.35002 8.51357 8.40002 8.51357V8.57228C8.40002 8.57228 8.35002 8.57228 8.35002 8.631C8.35002 8.68971 8.35002 8.68971 8.40002 8.68971V8.74842C8.40002 8.74842 8.40002 8.74842 8.40002 8.80714C8.35002 8.80714 8.30002 8.80714 8.25002 8.80714C8.10002 8.80714 7.95002 8.86585 7.75002 8.92457C7.65002 8.98328 7.60002 9.042 7.50002 9.10071C7.45002 9.042 7.45002 8.98328 7.45002 8.86585C7.45002 8.80714 7.45002 8.74842 7.50002 8.68971C7.60002 8.45485 7.85002 8.33742 8.20002 8.33742C8.25002 8.33742 8.35002 8.33742 8.40002 8.33742C8.40002 8.33742 8.40002 8.33742 8.45002 8.33742C8.40002 8.33742 8.40002 8.39614 8.40002 8.39614ZM6.80002 13.7391L6.75002 13.7978C6.80002 13.7978 6.80002 13.7391 6.80002 13.7391ZM10.35 7.98514C10.65 7.98514 10.9 8.16128 10.95 8.45485V8.51357C10.95 8.631 10.9 8.68971 10.85 8.74842C10.7 8.74842 10.6 8.68971 10.5 8.631C10.35 8.57228 10.15 8.51357 9.95002 8.51357C9.95002 8.45485 9.95002 8.39614 9.95002 8.33742C9.95002 8.33742 9.95002 8.33742 9.95002 8.27871C9.95002 8.22 9.95002 8.16128 9.95002 8.16128C10 8.04385 10.15 7.98514 10.35 7.98514ZM8.95002 8.631C8.85002 8.68971 8.75002 8.68971 8.60002 8.74842C8.55002 8.68971 8.50002 8.57228 8.50002 8.51357V8.45485C8.50002 8.22 8.75002 7.98514 9.10002 7.98514C9.25002 7.98514 9.40002 8.04385 9.50002 8.10257C9.50002 8.16128 9.50002 8.16128 9.50002 8.22C9.50002 8.22 9.50002 8.22 9.50002 8.27871C9.50002 8.33742 9.50002 8.39614 9.50002 8.45485C9.30002 8.51357 9.10002 8.57228 8.95002 8.631ZM9.75002 10.3924C9.60002 10.3924 9.50002 10.3924 9.35002 10.3924C9.45002 10.3924 9.60002 10.3924 9.75002 10.3924C9.85002 10.3924 9.90002 10.3924 10 10.3924C9.90002 10.3924 9.80002 10.3924 9.75002 10.3924Z" fill="#BC091C"></path>
    <path d="M7.3 9.4534C7.32761 9.4534 7.35 9.42702 7.35 9.39449C7.35 9.36195 7.32761 9.33557 7.3 9.33557C7.27239 9.33557 7.25 9.36195 7.25 9.39449C7.25 9.42702 7.27239 9.4534 7.3 9.4534Z" fill="#BC091C"></path>
    <path d="M7.24995 9.33597C7.27757 9.33597 7.29995 9.30959 7.29995 9.27705C7.29995 9.24452 7.27757 9.21814 7.24995 9.21814C7.22234 9.21814 7.19995 9.24452 7.19995 9.27705C7.19995 9.30959 7.22234 9.33597 7.24995 9.33597Z" fill="#BC091C"></path>
    <path d="M7.1999 9.15982C7.22752 9.15982 7.2499 9.13344 7.2499 9.10091C7.2499 9.06837 7.22752 9.04199 7.1999 9.04199C7.17229 9.04199 7.1499 9.06837 7.1499 9.10091C7.1499 9.13344 7.17229 9.15982 7.1999 9.15982Z" fill="#BC091C"></path>
    <path d="M7.1999 8.98367C7.22752 8.98367 7.2499 8.9573 7.2499 8.92476C7.2499 8.89222 7.22752 8.86584 7.1999 8.86584C7.17229 8.86584 7.1499 8.89222 7.1499 8.92476C7.1499 8.9573 7.17229 8.98367 7.1999 8.98367Z" fill="#BC091C"></path>
    <path d="M7.1999 8.74881C7.22752 8.74881 7.2499 8.72243 7.2499 8.6899C7.2499 8.65736 7.22752 8.63098 7.1999 8.63098C7.17229 8.63098 7.1499 8.65736 7.1499 8.6899C7.1499 8.72243 7.17229 8.74881 7.1999 8.74881Z" fill="#BC091C"></path>
    <path d="M7.3 8.63138C7.32761 8.63138 7.35 8.605 7.35 8.57246C7.35 8.53993 7.32761 8.51355 7.3 8.51355C7.27239 8.51355 7.25 8.53993 7.25 8.57246C7.25 8.605 7.27239 8.63138 7.3 8.63138Z" fill="#BC091C"></path>
    <path d="M7.4001 8.45523C7.42771 8.45523 7.4501 8.42885 7.4501 8.39632C7.4501 8.36378 7.42771 8.3374 7.4001 8.3374C7.37248 8.3374 7.3501 8.36378 7.3501 8.39632C7.3501 8.42885 7.37248 8.45523 7.4001 8.45523Z" fill="#BC091C"></path>
    <path d="M7.55 8.33783C7.57761 8.33783 7.6 8.31145 7.6 8.27892C7.6 8.24638 7.57761 8.22 7.55 8.22C7.52239 8.22 7.5 8.24638 7.5 8.27892C7.5 8.31145 7.52239 8.33783 7.55 8.33783Z" fill="#BC091C"></path>
    <path d="M7.6501 8.27911C7.67771 8.27911 7.7001 8.25274 7.7001 8.2202C7.7001 8.18766 7.67771 8.16129 7.6501 8.16129C7.62248 8.16129 7.6001 8.18766 7.6001 8.2202C7.6001 8.25274 7.62248 8.27911 7.6501 8.27911Z" fill="#BC091C"></path>
    <path d="M7.85005 8.2204C7.87766 8.2204 7.90005 8.19402 7.90005 8.16148C7.90005 8.12895 7.87766 8.10257 7.85005 8.10257C7.82243 8.10257 7.80005 8.12895 7.80005 8.16148C7.80005 8.19402 7.82243 8.2204 7.85005 8.2204Z" fill="#BC091C"></path>
    <path d="M7.99995 8.16168C8.02757 8.16168 8.04995 8.13531 8.04995 8.10277C8.04995 8.07023 8.02757 8.04385 7.99995 8.04385C7.97234 8.04385 7.94995 8.07023 7.94995 8.10277C7.94995 8.13531 7.97234 8.16168 7.99995 8.16168Z" fill="#BC091C"></path>
    <path d="M8.1501 8.16168C8.17771 8.16168 8.2001 8.13531 8.2001 8.10277C8.2001 8.07023 8.17771 8.04385 8.1501 8.04385C8.12248 8.04385 8.1001 8.07023 8.1001 8.10277C8.1001 8.13531 8.12248 8.16168 8.1501 8.16168Z" fill="#BC091C"></path>
    <path d="M8.3 8.16168C8.32761 8.16168 8.35 8.13531 8.35 8.10277C8.35 8.07023 8.32761 8.04385 8.3 8.04385C8.27239 8.04385 8.25 8.07023 8.25 8.10277C8.25 8.13531 8.27239 8.16168 8.3 8.16168Z" fill="#BC091C"></path>
    <path d="M8.49995 8.16168C8.52757 8.16168 8.54995 8.13531 8.54995 8.10277C8.54995 8.07023 8.52757 8.04385 8.49995 8.04385C8.47234 8.04385 8.44995 8.07023 8.44995 8.10277C8.44995 8.13531 8.47234 8.16168 8.49995 8.16168Z" fill="#BC091C"></path>
    <path d="M8.60005 8.04425C8.62766 8.04425 8.65005 8.01787 8.65005 7.98534C8.65005 7.9528 8.62766 7.92642 8.60005 7.92642C8.57243 7.92642 8.55005 7.9528 8.55005 7.98534C8.55005 8.01787 8.57243 8.04425 8.60005 8.04425Z" fill="#BC091C"></path>
    <path d="M8.74995 7.98553C8.77757 7.98553 8.79995 7.95916 8.79995 7.92662C8.79995 7.89408 8.77757 7.86771 8.74995 7.86771C8.72234 7.86771 8.69995 7.89408 8.69995 7.92662C8.69995 7.95916 8.72234 7.98553 8.74995 7.98553Z" fill="#BC091C"></path>
    <path d="M8.9001 7.92682C8.92771 7.92682 8.9501 7.90044 8.9501 7.8679C8.9501 7.83537 8.92771 7.80899 8.9001 7.80899C8.87248 7.80899 8.8501 7.83537 8.8501 7.8679C8.8501 7.90044 8.87248 7.92682 8.9001 7.92682Z" fill="#BC091C"></path>
    <path d="M9.05 7.8681C9.07761 7.8681 9.1 7.84173 9.1 7.80919C9.1 7.77665 9.07761 7.75027 9.05 7.75027C9.02239 7.75027 9 7.77665 9 7.80919C9 7.84173 9.02239 7.8681 9.05 7.8681Z" fill="#BC091C"></path>
    <path d="M9.1999 7.8681C9.22752 7.8681 9.2499 7.84173 9.2499 7.80919C9.2499 7.77665 9.22752 7.75027 9.1999 7.75027C9.17229 7.75027 9.1499 7.77665 9.1499 7.80919C9.1499 7.84173 9.17229 7.8681 9.1999 7.8681Z" fill="#BC091C"></path>
    <path d="M9.4001 7.92682C9.42771 7.92682 9.4501 7.90044 9.4501 7.8679C9.4501 7.83537 9.42771 7.80899 9.4001 7.80899C9.37248 7.80899 9.3501 7.83537 9.3501 7.8679C9.3501 7.90044 9.37248 7.92682 9.4001 7.92682Z" fill="#BC091C"></path>
    <path d="M10.05 7.92682C10.0776 7.92682 10.1 7.90044 10.1 7.8679C10.1 7.83537 10.0776 7.80899 10.05 7.80899C10.0224 7.80899 10 7.83537 10 7.8679C10 7.90044 10.0224 7.92682 10.05 7.92682Z" fill="#BC091C"></path>
    <path d="M10.1999 7.8681C10.2275 7.8681 10.2499 7.84173 10.2499 7.80919C10.2499 7.77665 10.2275 7.75027 10.1999 7.75027C10.1723 7.75027 10.1499 7.77665 10.1499 7.80919C10.1499 7.84173 10.1723 7.8681 10.1999 7.8681Z" fill="#BC091C"></path>
    <path d="M10.4001 7.8681C10.4277 7.8681 10.4501 7.84173 10.4501 7.80919C10.4501 7.77665 10.4277 7.75027 10.4001 7.75027C10.3725 7.75027 10.3501 7.77665 10.3501 7.80919C10.3501 7.84173 10.3725 7.8681 10.4001 7.8681Z" fill="#BC091C"></path>
    <path d="M10.55 7.92682C10.5776 7.92682 10.6 7.90044 10.6 7.8679C10.6 7.83537 10.5776 7.80899 10.55 7.80899C10.5224 7.80899 10.5 7.83537 10.5 7.8679C10.5 7.90044 10.5224 7.92682 10.55 7.92682Z" fill="#BC091C"></path>
    <path d="M10.6999 7.98553C10.7275 7.98553 10.7499 7.95916 10.7499 7.92662C10.7499 7.89408 10.7275 7.86771 10.6999 7.86771C10.6723 7.86771 10.6499 7.89408 10.6499 7.92662C10.6499 7.95916 10.6723 7.98553 10.6999 7.98553Z" fill="#BC091C"></path>
    <path d="M10.85 8.04425C10.8777 8.04425 10.9 8.01787 10.9 7.98534C10.9 7.9528 10.8777 7.92642 10.85 7.92642C10.8224 7.92642 10.8 7.9528 10.8 7.98534C10.8 8.01787 10.8224 8.04425 10.85 8.04425Z" fill="#BC091C"></path>
    <path d="M10.9499 8.16168C10.9775 8.16168 10.9999 8.13531 10.9999 8.10277C10.9999 8.07023 10.9775 8.04385 10.9499 8.04385C10.9223 8.04385 10.8999 8.07023 10.8999 8.10277C10.8999 8.13531 10.9223 8.16168 10.9499 8.16168Z" fill="#BC091C"></path>
    <path d="M11.1501 8.16168C11.1777 8.16168 11.2001 8.13531 11.2001 8.10277C11.2001 8.07023 11.1777 8.04385 11.1501 8.04385C11.1225 8.04385 11.1001 8.07023 11.1001 8.10277C11.1001 8.13531 11.1225 8.16168 11.1501 8.16168Z" fill="#BC091C"></path>
    <path d="M11.3 8.16168C11.3276 8.16168 11.35 8.13531 11.35 8.10277C11.35 8.07023 11.3276 8.04385 11.3 8.04385C11.2724 8.04385 11.25 8.07023 11.25 8.10277C11.25 8.13531 11.2724 8.16168 11.3 8.16168Z" fill="#BC091C"></path>
    <path d="M11.4499 8.16168C11.4775 8.16168 11.4999 8.13531 11.4999 8.10277C11.4999 8.07023 11.4775 8.04385 11.4499 8.04385C11.4223 8.04385 11.3999 8.07023 11.3999 8.10277C11.3999 8.13531 11.4223 8.16168 11.4499 8.16168Z" fill="#BC091C"></path>
    <path d="M11.6 8.2204C11.6277 8.2204 11.65 8.19402 11.65 8.16148C11.65 8.12895 11.6277 8.10257 11.6 8.10257C11.5724 8.10257 11.55 8.12895 11.55 8.16148C11.55 8.19402 11.5724 8.2204 11.6 8.2204Z" fill="#BC091C"></path>
    <path d="M11.75 8.27911C11.7776 8.27911 11.8 8.25274 11.8 8.2202C11.8 8.18766 11.7776 8.16129 11.75 8.16129C11.7223 8.16129 11.7 8.18766 11.7 8.2202C11.7 8.25274 11.7223 8.27911 11.75 8.27911Z" fill="#BC091C"></path>
    <path d="M11.9001 8.33783C11.9277 8.33783 11.9501 8.31145 11.9501 8.27892C11.9501 8.24638 11.9277 8.22 11.9001 8.22C11.8725 8.22 11.8501 8.24638 11.8501 8.27892C11.8501 8.31145 11.8725 8.33783 11.9001 8.33783Z" fill="#BC091C"></path>
    <path d="M12.05 8.45523C12.0776 8.45523 12.1 8.42885 12.1 8.39632C12.1 8.36378 12.0776 8.3374 12.05 8.3374C12.0224 8.3374 12 8.36378 12 8.39632C12 8.42885 12.0224 8.45523 12.05 8.45523Z" fill="#BC091C"></path>
    <path d="M12.1501 8.63138C12.1777 8.63138 12.2001 8.605 12.2001 8.57246C12.2001 8.53993 12.1777 8.51355 12.1501 8.51355C12.1225 8.51355 12.1001 8.53993 12.1001 8.57246C12.1001 8.605 12.1225 8.63138 12.1501 8.63138Z" fill="#BC091C"></path>
    <path d="M12.25 8.74881C12.2776 8.74881 12.3 8.72243 12.3 8.6899C12.3 8.65736 12.2776 8.63098 12.25 8.63098C12.2223 8.63098 12.2 8.65736 12.2 8.6899C12.2 8.72243 12.2223 8.74881 12.25 8.74881Z" fill="#BC091C"></path>
    <path d="M12.25 8.98367C12.2776 8.98367 12.3 8.9573 12.3 8.92476C12.3 8.89222 12.2776 8.86584 12.25 8.86584C12.2223 8.86584 12.2 8.89222 12.2 8.92476C12.2 8.9573 12.2223 8.98367 12.25 8.98367Z" fill="#BC091C"></path>
    <path d="M12.25 9.15982C12.2776 9.15982 12.3 9.13344 12.3 9.10091C12.3 9.06837 12.2776 9.04199 12.25 9.04199C12.2223 9.04199 12.2 9.06837 12.2 9.10091C12.2 9.13344 12.2223 9.15982 12.25 9.15982Z" fill="#BC091C"></path>
    <path d="M12.1999 9.33597C12.2275 9.33597 12.2499 9.30959 12.2499 9.27705C12.2499 9.24452 12.2275 9.21814 12.1999 9.21814C12.1723 9.21814 12.1499 9.24452 12.1499 9.27705C12.1499 9.30959 12.1723 9.33597 12.1999 9.33597Z" fill="#BC091C"></path>
    <path d="M12.1501 9.4534C12.1777 9.4534 12.2001 9.42702 12.2001 9.39449C12.2001 9.36195 12.1777 9.33557 12.1501 9.33557C12.1225 9.33557 12.1001 9.36195 12.1001 9.39449C12.1001 9.42702 12.1225 9.4534 12.1501 9.4534Z" fill="#BC091C"></path>
  </symbol>
  <symbol fill="currentColor" xmlns="http://www.w3.org/2000/svg" viewBox="0 0 21 27" id="icon_calendar">
    <path d="M17.1885 25.3929H3.64903C2.20678 25.3929 1 24.0377 1 22.4182V7.21399C1 5.59441 2.20678 4.23926 3.64903 4.23926H17.1885C18.6602 4.23926 19.8375 5.59441 19.8375 7.21399V22.4182C19.8375 24.0377 18.6308 25.3929 17.1885 25.3929Z" stroke="#17C3B2" stroke-width="2" stroke-miterlimit="10"></path>
    <path d="M6.2981 1V4.23915" stroke="#17C3B2" stroke-width="2" stroke-miterlimit="10" stroke-linecap="round"></path>
    <path d="M14.5696 1V4.23915" stroke="#17C3B2" stroke-width="2" stroke-miterlimit="10" stroke-linecap="round"></path>
    <path d="M1 10.1555H19.8375" stroke="#17C3B2" stroke-width="2" stroke-miterlimit="10" stroke-linecap="round"></path>
  </symbol>
  <symbol fill="none" xmlns="http://www.w3.org/2000/svg" viewBox="0 0 24 24" id="icon_facebook">
    <path d="M22 12C22 6.48 17.52 2 12 2C6.48 2 2 6.48 2 12C2 16.84 5.44 20.87 10 21.8V15H8V12H10V9.5C10 7.57 11.57 6 13.5 6H16V9H14C13.45 9 13 9.45 13 10V12H16V15H13V21.95C18.05 21.45 22 17.19 22 12Z" fill="#17C3B2"></path>
  </symbol>
  <symbol fill="none" xmlns="http://www.w3.org/2000/svg" viewBox="0 0 98 105" id="icon_camping">
    <path d="M37.1484 43.26C38.9081 46.41 40.6678 49.77 42.4274 52.92C44.7736 49.56 47.1199 45.99 49.4661 42.63C53.3764 42.63 57.2868 42.63 61.1971 42.63" stroke="#073D37" stroke-width="3" stroke-miterlimit="10" stroke-linecap="round" stroke-linejoin="round"></path>
    <path d="M60.415 63.2099C62.1747 65.3099 63.9344 67.4099 65.4985 69.5099C67.2582 67.1999 69.0178 65.0999 70.582 62.7899C73.9058 62.7899 77.0341 62.7899 80.3579 62.7899" stroke="#073D37" stroke-width="3" stroke-miterlimit="10" stroke-linecap="round" stroke-linejoin="round"></path>
    <path d="M15.6414 64.26C17.401 66.57 19.1607 68.88 20.9203 71.19C22.68 68.67 24.6352 66.36 26.3948 63.84C29.7186 63.84 33.238 63.84 36.5618 63.84" stroke="#073D37" stroke-width="3" stroke-miterlimit="10" stroke-linecap="round" stroke-linejoin="round"></path>
    <path d="M50.2481 85.47C39.2991 85.47 28.3501 85.68 17.4011 85.68" stroke="#073D37" stroke-width="3" stroke-miterlimit="10" stroke-linecap="round" stroke-linejoin="round"></path>
    <path d="M31.6738 53.55C36.3663 42.84 41.2542 32.13 45.9466 21.21C47.1197 18.69 50.4435 18.69 51.6167 21C56.3091 30.66 61.197 40.32 65.8895 50.1899" stroke="#073D37" stroke-width="3" stroke-miterlimit="10" stroke-linecap="round" stroke-linejoin="round"></path>
    <path d="M50.6392 85.4699C56.7002 72.0299 62.5658 58.3799 68.6268 44.9399C69.2134 43.4699 71.1685 43.4699 71.7551 44.9399L91.5024 85.4699H50.6392Z" stroke="#073D37" stroke-width="3" stroke-miterlimit="10" stroke-linecap="round" stroke-linejoin="round"></path>
    <path d="M6.25659 85.6799C12.1221 72.2399 17.9877 59.0099 24.0487 45.5699C24.8308 43.8899 26.9815 43.8899 27.7636 45.5699L47.3154 85.4699L6.25659 85.6799Z" stroke="#073D37" stroke-width="3" stroke-miterlimit="10" stroke-linecap="round" stroke-linejoin="round"></path>
  </symbol>
  <symbol fill="none" xmlns="http://www.w3.org/2000/svg" viewBox="0 0 24 24" id="icon_instagram">
    <path d="M7.8 2H16.2C19.4 2 22 4.6 22 7.8V16.2C22 17.7383 21.3889 19.2135 20.3012 20.3012C19.2135 21.3889 17.7383 22 16.2 22H7.8C4.6 22 2 19.4 2 16.2V7.8C2 6.26174 2.61107 4.78649 3.69878 3.69878C4.78649 2.61107 6.26174 2 7.8 2ZM7.6 4C6.64522 4 5.72955 4.37928 5.05442 5.05442C4.37928 5.72955 4 6.64522 4 7.6V16.4C4 18.39 5.61 20 7.6 20H16.4C17.3548 20 18.2705 19.6207 18.9456 18.9456C19.6207 18.2705 20 17.3548 20 16.4V7.6C20 5.61 18.39 4 16.4 4H7.6ZM17.25 5.5C17.5815 5.5 17.8995 5.6317 18.1339 5.86612C18.3683 6.10054 18.5 6.41848 18.5 6.75C18.5 7.08152 18.3683 7.39946 18.1339 7.63388C17.8995 7.8683 17.5815 8 17.25 8C16.9185 8 16.6005 7.8683 16.3661 7.63388C16.1317 7.39946 16 7.08152 16 6.75C16 6.41848 16.1317 6.10054 16.3661 5.86612C16.6005 5.6317 16.9185 5.5 17.25 5.5ZM12 7C13.3261 7 14.5979 7.52678 15.5355 8.46447C16.4732 9.40215 17 10.6739 17 12C17 13.3261 16.4732 14.5979 15.5355 15.5355C14.5979 16.4732 13.3261 17 12 17C10.6739 17 9.40215 16.4732 8.46447 15.5355C7.52678 14.5979 7 13.3261 7 12C7 10.6739 7.52678 9.40215 8.46447 8.46447C9.40215 7.52678 10.6739 7 12 7ZM12 9C11.2044 9 10.4413 9.31607 9.87868 9.87868C9.31607 10.4413 9 11.2044 9 12C9 12.7956 9.31607 13.5587 9.87868 14.1213C10.4413 14.6839 11.2044 15 12 15C12.7956 15 13.5587 14.6839 14.1213 14.1213C14.6839 13.5587 15 12.7956 15 12C15 11.2044 14.6839 10.4413 14.1213 9.87868C13.5587 9.31607 12.7956 9 12 9Z" fill="#17C3B2"></path>
  </symbol>
  <symbol fill="none" xmlns="http://www.w3.org/2000/svg" viewBox="0 0 85 95" id="icon_fire">
    <path d="M12.9199 79.99C31.7899 74.67 50.6599 69.16 69.5299 63.84C70.0399 66.31 70.7199 68.97 71.2299 71.44C52.5299 76.95 33.6599 82.27 14.9599 87.78C14.2799 85.31 13.5999 82.65 12.9199 79.99Z" stroke="#073D37" stroke-width="3" stroke-miterlimit="10" stroke-linecap="round" stroke-linejoin="round"></path>
    <path d="M22.2701 73.91C19.2101 73.15 16.1501 72.39 13.0901 71.63C13.7701 69.16 14.4501 66.88 14.9601 64.41C23.4601 67.07 32.1301 69.73 40.6301 72.2" stroke="#073D37" stroke-width="3" stroke-miterlimit="10" stroke-linejoin="round"></path>
    <path d="M61.8801 77.14C64.9401 78.09 68.1701 79.04 71.2301 79.8C70.5501 82.08 69.8701 84.55 69.3601 86.83C60.1801 84.55 51.0001 82.27 41.8201 79.8" stroke="#073D37" stroke-width="3" stroke-miterlimit="10" stroke-linecap="round" stroke-linejoin="round"></path>
    <path d="M37.0599 62.51C30.0899 63.46 23.2899 60.23 19.8899 54.15C15.4699 46.36 17.1699 34.77 24.6499 28.12C24.4799 28.69 23.4599 33.06 26.0099 37.05C28.7299 41.23 33.3199 41.23 33.6599 41.23" stroke="#073D37" stroke-width="3" stroke-miterlimit="10" stroke-linecap="round" stroke-linejoin="round"></path>
    <path d="M32.64 34.77C32.64 31.92 32.98 26.22 36.04 19.95C40.12 11.97 46.24 8.35997 48.45 7.21997C48.11 8.35997 42.5 25.46 51 36.1C52.19 37.62 54.23 39.71 57.29 41.23C57.8 40.47 58.99 38.57 59.16 36.1C59.67 31.54 56.95 28.31 56.61 27.93C63.58 30.59 68.17 37.43 68.34 44.84C68.51 53.96 61.54 62.32 52.36 63.27C53.55 61.56 54.06 59.85 54.23 58.71C55.08 52.06 49.64 44.46 40.46 39.71C43.52 44.46 41.99 50.54 38.93 52.25C36.04 53.77 31.28 52.06 29.41 46.93C29.24 47.88 28.73 50.54 29.75 53.58C30.43 55.48 31.28 56.62 31.96 57.38" stroke="#073D37" stroke-width="3" stroke-miterlimit="10" stroke-linecap="round" stroke-linejoin="round"></path>
  </symbol>
  <symbol fill="none" xmlns="http://www.w3.org/2000/svg" viewBox="0 0 85 95" id="icon_tenda">
    <path d="M10.391 36.2552C20.7539 28.3362 31.1168 20.5856 41.4797 12.6666C51.8426 20.5856 62.2055 28.5047 72.5684 36.4237L78.5594 76.6927C78.8833 79.3885 76.9402 81.7474 74.3495 81.7474C52.4903 81.7474 30.631 81.9159 8.93372 81.9159C6.34299 81.9159 4.39995 79.557 4.72379 76.8612L10.391 36.2552Z" stroke="#073D37" stroke-width="3" stroke-miterlimit="10"></path>
    <path d="M41.48 12.6666C41.6419 35.7497 41.6419 58.8328 41.6419 81.9159" stroke="#073D37" stroke-width="3" stroke-miterlimit="10"></path>
    <path d="M41.6416 43.5004C48.6042 56.3056 55.4048 69.1108 62.3674 81.916" stroke="#073D37" stroke-width="3" stroke-miterlimit="10"></path>
  </symbol>
  <symbol fill="none" xmlns="http://www.w3.org/2000/svg" viewBox="0 0 85 95" id="icon_mappa">
    <g clip-path="url(#clip0_5_112)">
      <path d="M74.29 32.8699C74.29 50.9199 74.46 69.16 74.46 87.21C67.15 83.03 59.84 78.8499 52.36 74.6699C45.05 78.8499 37.91 82.8399 30.6 87.0199C23.29 82.8399 15.98 78.66 8.5 74.48C8.5 56.24 8.5 37.9999 8.5 19.5699C15.81 23.7499 23.12 27.7399 30.43 31.9199C37.57 28.1199 44.88 24.1299 52.02 20.3299" stroke="#073D37" stroke-width="3" stroke-miterlimit="10" stroke-linejoin="round"></path>
      <path d="M52.3601 27.9301C52.3601 35.7201 52.3601 43.7001 52.3601 51.4901" stroke="#073D37" stroke-width="3" stroke-miterlimit="10" stroke-linejoin="round"></path>
      <path d="M52.53 59.85C52.53 64.79 52.53 69.92 52.53 74.86" stroke="#073D37" stroke-width="3" stroke-miterlimit="10" stroke-linejoin="round"></path>
      <path d="M74.8001 26.41C76.1601 24.32 77.0101 21.85 77.0101 19C77.0101 11.97 71.9101 6.07996 65.4501 6.07996C58.3101 6.07996 54.2301 13.49 54.0601 19C54.0601 19.38 54.0601 21.47 54.9101 23.75C55.0801 24.32 55.4201 24.89 55.7601 25.46" stroke="#073D37" stroke-width="3" stroke-miterlimit="10" stroke-linejoin="round"></path>
      <path d="M55.5901 25.46C58.8201 30.78 61.8801 36.1 65.1101 41.42C68.5101 36.1 71.9101 30.78 75.3101 25.46" stroke="#073D37" stroke-width="3" stroke-miterlimit="10" stroke-linejoin="round"></path>
      <path d="M65.62 24.51C68.155 24.51 70.21 22.2132 70.21 19.38C70.21 16.5468 68.155 14.25 65.62 14.25C63.085 14.25 61.03 16.5468 61.03 19.38C61.03 22.2132 63.085 24.51 65.62 24.51Z" stroke="#073D37" stroke-width="3" stroke-miterlimit="10" stroke-linejoin="round"></path>
      <path d="M17.1699 57.76C19.3799 60.23 21.5899 62.7 23.7999 65.17" stroke="#073D37" stroke-width="3" stroke-miterlimit="10" stroke-linejoin="round"></path>
      <path d="M23.7999 57.76C21.5899 60.23 19.3799 62.7 17.1699 65.17" stroke="#073D37" stroke-width="3" stroke-miterlimit="10" stroke-linejoin="round"></path>
      <path d="M64.4301 47.3101C63.9201 48.2601 63.5801 49.0201 63.0701 49.9701" stroke="#073D37" stroke-width="3" stroke-miterlimit="10" stroke-linejoin="round"></path>
      <path d="M60.86 53.01C59.33 53.77 57.8 54.53 56.27 55.29" stroke="#073D37" stroke-width="3" stroke-miterlimit="10" stroke-linejoin="round"></path>
      <path d="M53.2099 56.05C51.5099 55.48 49.8099 54.91 47.9399 54.53" stroke="#073D37" stroke-width="3" stroke-miterlimit="10" stroke-linejoin="round"></path>
      <path d="M44.88 53.2C43.35 52.25 41.82 51.11 40.46 50.16" stroke="#073D37" stroke-width="3" stroke-miterlimit="10" stroke-linejoin="round"></path>
      <path d="M37.7399 48.64C36.2099 47.69 34.6799 46.74 33.1499 45.79" stroke="#073D37" stroke-width="3" stroke-miterlimit="10" stroke-linejoin="round"></path>
      <path d="M29.75 45.41C28.05 45.41 26.18 45.6 24.48 45.6" stroke="#073D37" stroke-width="3" stroke-miterlimit="10" stroke-linejoin="round"></path>
      <path d="M22.4399 48.26C21.7599 49.97 21.0799 51.87 20.3999 53.58" stroke="#073D37" stroke-width="3" stroke-miterlimit="10" stroke-linejoin="round"></path>
      <path d="M30.6001 49.97C30.6001 62.32 30.6001 74.86 30.7701 87.21" stroke="#073D37" stroke-width="3" stroke-miterlimit="10" stroke-linejoin="round"></path>
      <path d="M30.6001 32.11C30.6001 34.96 30.6001 40.85 30.6001 40.85" stroke="#073D37" stroke-width="3" stroke-miterlimit="10" stroke-linejoin="round"></path>
    </g>
    <defs>
      <clipPath id="clip0_5_112">
        <rect width="85" height="95" fill="white"></rect>
      </clipPath>
    </defs>
  </symbol>
  <symbol fill="none" xmlns="http://www.w3.org/2000/svg" viewBox="0 0 22 23" id="icon_twitter">
    <path d="M0.0536382 0L8.54759 12.1912L0 22.1032H1.92372L9.40712 13.4251L15.4535 22.1032H22L13.0281 9.22624L20.9842 0H19.0605L12.1686 7.99235L6.60013 0H0.0536382ZM2.88261 1.52107H5.89009L19.1706 20.5819H16.1631L2.88261 1.52107Z" fill="#17C3B2"></path>
  </symbol>
  <symbol fill="none" xmlns="http://www.w3.org/2000/svg" viewBox="0 0 24 24" id="icon_youtube">
    <path d="M10 15L15.19 12L10 9V15ZM21.56 7.17C21.69 7.64 21.78 8.27 21.84 9.07C21.91 9.87 21.94 10.56 21.94 11.16L22 12C22 14.19 21.84 15.8 21.56 16.83C21.31 17.73 20.73 18.31 19.83 18.56C19.36 18.69 18.5 18.78 17.18 18.84C15.88 18.91 14.69 18.94 13.59 18.94L12 19C7.81 19 5.2 18.84 4.17 18.56C3.27 18.31 2.69 17.73 2.44 16.83C2.31 16.36 2.22 15.73 2.16 14.93C2.09 14.13 2.06 13.44 2.06 12.84L2 12C2 9.81 2.16 8.2 2.44 7.17C2.69 6.27 3.27 5.69 4.17 5.44C4.64 5.31 5.5 5.22 6.82 5.16C8.12 5.09 9.31 5.06 10.41 5.06L12 5C16.19 5 18.8 5.16 19.83 5.44C20.73 5.69 21.31 6.27 21.56 7.17Z" fill="#17C3B2"></path>
  </symbol>
    <symbol xmlns="http://www.w3.org/2000/svg" fill="currentColor" viewBox="0 -960 960 960" id="menu">
        <path d="M120-680v-80h720v80H120Zm0 480v-80h720v80H120Zm0-240v-80h720v80H120Z"></path>
    </symbol>
</svg>

