<svg width="32" height="25" viewBox="0 0 32 25" fill="none" xmlns="http://www.w3.org/2000/svg">
<path d="M2.9 0H29.05C30.7 0 32 1.52657 32 3.34671V21.3133C32 23.1921 30.7 24.66 29.1 24.66H2.9C1.3 24.66 0 23.1334 0 21.3133V3.34671C0 1.52657 1.3 0 2.9 0Z" fill="#BC091C"/>
<path d="M0 21.3133C0 23.1334 1.3 24.66 2.9 24.66H29.1C30.7 24.66 32 23.1921 32 21.3133V8.22H0V21.3133Z" fill="#BC091C"/>
<path d="M32 5.4017H0V19.1995H32V5.4017Z" fill="#FFC400"/>
<path d="M5.70008 10.6269C5.70008 10.6856 5.75008 10.6856 5.70008 10.6269C5.75008 10.6856 5.75008 10.6856 5.80008 10.6856H5.85008C5.85008 10.6856 5.85008 10.6856 5.85008 10.7443H5.90008C5.90008 10.7443 5.90008 10.803 5.95008 10.803C6.00008 10.803 6.00008 10.803 6.10008 10.803H5.75008V11.155H5.90008C5.85008 11.155 5.85008 11.155 5.85008 11.2137C5.85008 11.2137 5.85008 11.2724 5.90008 11.2724C5.95008 11.2724 5.95008 11.3311 5.95008 11.3311C5.95008 11.3898 5.95008 11.3898 5.90008 11.3898C5.90008 11.3898 5.85008 11.3898 5.85008 11.4484C5.85008 11.4484 5.85008 11.5071 5.90008 11.5071H6.70008C6.75008 11.5071 6.75008 11.5071 6.75008 11.4484C6.75008 11.4484 6.75008 11.3898 6.70008 11.3898C6.65008 11.3898 6.65008 11.3311 6.65008 11.3311C6.65008 11.2724 6.65008 11.2724 6.70008 11.2724C6.70008 11.2724 6.75008 11.2724 6.75008 11.2137C6.75008 11.2137 6.75008 11.155 6.70008 11.155H6.85008V10.803H6.50008C6.55008 10.803 6.60008 10.803 6.65008 10.803C6.70008 10.803 6.70008 10.803 6.70008 10.7443H6.75008V10.6856H6.80008L6.85008 10.6269C6.85008 10.6269 6.85008 10.6269 6.90008 10.5682H6.95008C6.95008 10.5682 6.95008 10.5682 6.90008 10.5682V10.5096V10.4509L6.85008 10.3922H6.80008V10.3335C6.80008 10.3335 6.75008 10.3335 6.70008 10.3335H6.65008H6.60008H6.55008H6.50008C6.50008 10.3335 6.50008 10.3335 6.50008 10.2748V10.2162V10.1575H6.55008V10.0988H6.50008V10.0401H6.45008V10.0988H6.40008V10.1575H6.45008V10.2162V10.2748C6.45008 10.2748 6.45008 10.2748 6.45008 10.3335C6.45008 10.3335 6.40008 10.3335 6.35008 10.3335H6.30008H6.25008H6.20008C6.15008 10.3335 6.15008 10.3335 6.10008 10.3335C6.10008 10.3335 6.10008 10.3335 6.10008 10.3922C6.10008 10.3922 6.05008 10.3922 6.05008 10.4509L6.00008 10.5096C6.00008 10.5682 6.00008 10.6269 6.00008 10.6269H5.95008C5.65008 10.5682 5.65008 10.5682 5.70008 10.6269ZM6.45008 10.8616C6.40008 10.8616 6.30008 10.8616 6.25008 10.803C6.35008 10.803 6.40008 10.803 6.45008 10.8616ZM6.20008 10.803C6.10008 10.803 5.95008 10.803 5.90008 10.8616C5.95008 10.803 6.05008 10.803 6.20008 10.803Z" fill="#BC091C"/>
<path d="M6.74995 16.7332C6.74995 16.6745 6.74995 16.6745 6.74995 16.7332V16.4398C6.69995 16.4398 6.59995 16.3811 6.59995 16.3224C6.59995 16.3224 6.59995 16.3224 6.59995 16.2638C6.64995 16.2638 6.64995 16.2638 6.64995 16.2051C6.64995 16.2051 6.64995 16.1464 6.59995 16.1464H5.79995C5.74995 16.1464 5.74995 16.1464 5.74995 16.2051C5.74995 16.2051 5.74995 16.2638 5.79995 16.2638C5.79995 16.2638 5.79995 16.2638 5.79995 16.3224C5.79995 16.3811 5.74995 16.4398 5.64995 16.4398V16.7332C5.59995 16.7919 5.54995 16.7919 5.44995 16.7919V16.9092C5.49995 16.9092 5.59995 16.9092 5.64995 16.8506C5.64995 16.8506 5.64995 16.8506 5.69995 16.8506H5.64995C5.59995 16.9092 5.54995 16.9092 5.44995 16.9092V17.0266V17.1439C5.49995 17.1439 5.59995 17.1439 5.64995 17.0853C5.59995 17.1439 5.54995 17.1439 5.44995 17.1439V17.2613C5.49995 17.2613 5.59995 17.2613 5.64995 17.2026C5.69995 17.2026 5.74995 17.1439 5.84995 17.1439C5.89995 17.1439 5.99995 17.1439 6.04995 17.2026C6.09995 17.2613 6.14995 17.2613 6.24995 17.2613C6.29995 17.2613 6.39995 17.2613 6.44995 17.2026C6.49995 17.2026 6.54995 17.1439 6.64995 17.1439C6.69995 17.1439 6.79995 17.1439 6.84995 17.2026C6.79995 17.2026 6.74995 17.1439 6.64995 17.1439C6.59995 17.1439 6.49995 17.1439 6.44995 17.2026C6.39995 17.2026 6.34995 17.2613 6.24995 17.2613C6.19995 17.2613 6.09995 17.2613 6.04995 17.2026C5.99995 17.2026 5.94995 17.1439 5.84995 17.1439C5.79995 17.1439 5.69995 17.1439 5.64995 17.2026C5.59995 17.2613 5.54995 17.2613 5.44995 17.2613V17.3787C5.49995 17.3787 5.59995 17.3787 5.64995 17.32C5.69995 17.32 5.74995 17.2613 5.84995 17.2613C5.89995 17.2613 5.99995 17.2613 6.04995 17.32C6.09995 17.3787 6.14995 17.3787 6.24995 17.3787C6.29995 17.3787 6.39995 17.3787 6.44995 17.32C6.49995 17.32 6.54995 17.2613 6.64995 17.2613C6.69995 17.2613 6.79995 17.2613 6.84995 17.32C6.89995 17.3787 6.94995 17.3787 7.04995 17.3787V17.2613V17.1439V17.0266V16.9092V16.7919C6.84995 16.7332 6.79995 16.7332 6.74995 16.7332ZM6.39995 16.7332C6.34995 16.7332 6.29995 16.7919 6.19995 16.7919C6.14995 16.7919 6.04995 16.7919 5.99995 16.7332H6.39995ZM5.84995 16.7919H5.79995C5.79995 16.7919 5.79995 16.7919 5.84995 16.7919ZM6.74995 16.8506C6.69995 16.8506 6.64995 16.7919 6.54995 16.7919C6.49995 16.7919 6.39995 16.7919 6.34995 16.8506C6.29995 16.9092 6.24995 16.9092 6.14995 16.9092C6.09995 16.9092 5.99995 16.9092 5.94995 16.8506C5.99995 16.9092 6.04995 16.9092 6.14995 16.9092C6.19995 16.9092 6.29995 16.9092 6.34995 16.8506C6.39995 16.8506 6.44995 16.7919 6.54995 16.7919C6.64995 16.7919 6.69995 16.7919 6.74995 16.8506Z" fill="#BC091C"/>
<path d="M12.75 10.5095C12.7 10.5682 12.75 10.5682 12.75 10.5095C12.7 10.5682 12.75 10.5682 12.75 10.5682L12.8 10.6269L12.85 10.6855H12.9C12.9 10.6855 12.9 10.6855 12.9 10.7442H12.95C12.95 10.7442 12.95 10.8029 13 10.8029C13.05 10.8029 13.05 10.8029 13.15 10.8029H12.8V11.155H12.95C12.9 11.155 12.9 11.155 12.9 11.2137C12.9 11.2137 12.9 11.2723 12.95 11.2723C13 11.2723 13 11.331 13 11.331C13 11.3897 13 11.3897 12.95 11.3897C12.95 11.3897 12.9 11.3897 12.9 11.4484C12.9 11.4484 12.9 11.5071 12.95 11.5071H13.75C13.8 11.5071 13.8 11.5071 13.8 11.4484C13.8 11.4484 13.8 11.3897 13.75 11.3897C13.7 11.3897 13.7 11.331 13.7 11.331C13.7 11.2723 13.7 11.2723 13.75 11.2723C13.75 11.2723 13.8 11.2723 13.8 11.2137C13.8 11.2137 13.8 11.155 13.75 11.155H13.9V10.8029H13.55C13.6 10.8029 13.65 10.8029 13.7 10.8029C13.75 10.8029 13.75 10.8029 13.75 10.7442H13.8V10.6855H13.85L13.9 10.6269C13.9 10.6269 13.9 10.6269 13.95 10.5682H14C14 10.5682 14 10.5682 13.95 10.5682V10.5095C13.95 10.4508 13.9 10.3335 13.8 10.3335H13.75L13.8 10.3921C13.8 10.3921 13.8 10.3921 13.75 10.3921C13.75 10.3335 13.7 10.2748 13.65 10.2748C13.6 10.2748 13.6 10.2748 13.55 10.2748L13.65 10.3335C13.6 10.3335 13.6 10.3335 13.55 10.3335C13.55 10.3335 13.55 10.3335 13.55 10.2748C13.55 10.2161 13.55 10.2161 13.5 10.1574V10.0987V10.0401H13.55V9.98138H13.5V9.9227H13.45V9.98138H13.4V10.0401H13.45V10.0987V10.1574C13.45 10.1574 13.4 10.2161 13.4 10.2748C13.4 10.2748 13.4 10.2748 13.4 10.3335C13.4 10.3335 13.35 10.3335 13.3 10.3335L13.4 10.2748C13.4 10.2748 13.35 10.2748 13.3 10.2748C13.25 10.2748 13.2 10.3335 13.2 10.3921C13.2 10.3921 13.2 10.3921 13.15 10.3921L13.2 10.3335H13.15C12.85 10.3921 12.75 10.4508 12.75 10.5095ZM13.55 10.8616C13.5 10.8616 13.4 10.8616 13.35 10.8029C13.4 10.8029 13.5 10.8029 13.55 10.8616ZM13.25 10.6855H13.3C13.3 10.6855 13.3 10.6855 13.25 10.6855ZM13.25 10.8029C13.15 10.8029 13 10.8029 12.95 10.8616C13.05 10.8029 13.15 10.8029 13.25 10.8029Z" fill="#BC091C"/>
<path d="M13.85 16.7332C13.8 16.6745 13.8 16.6745 13.85 16.7332V16.4398C13.8 16.4398 13.7 16.3811 13.7 16.3224C13.7 16.3224 13.7 16.3224 13.7 16.2638C13.75 16.2638 13.75 16.2638 13.75 16.2051C13.75 16.2051 13.75 16.1464 13.7 16.1464H12.9C12.85 16.1464 12.85 16.1464 12.85 16.2051C12.85 16.2051 12.85 16.2638 12.9 16.2638C12.9 16.2638 12.9 16.2638 12.9 16.3224C12.9 16.3811 12.85 16.4398 12.75 16.4398V16.7332C12.7 16.7919 12.65 16.7919 12.55 16.7919V16.9092C12.6 16.9092 12.7 16.9092 12.75 16.8506C12.75 16.8506 12.75 16.8506 12.8 16.8506H12.75C12.7 16.9092 12.65 16.9092 12.55 16.9092V17.0266V17.1439C12.6 17.1439 12.7 17.1439 12.75 17.0853C12.7 17.1439 12.65 17.1439 12.55 17.1439V17.2613C12.6 17.2613 12.7 17.2613 12.75 17.2026C12.8 17.2026 12.85 17.1439 12.95 17.1439C13 17.1439 13.1 17.1439 13.15 17.2026C13.2 17.2613 13.25 17.2613 13.35 17.2613C13.4 17.2613 13.5 17.2613 13.55 17.2026C13.6 17.2026 13.65 17.1439 13.75 17.1439C13.8 17.1439 13.9 17.1439 13.95 17.2026C13.9 17.2026 13.85 17.1439 13.75 17.1439C13.7 17.1439 13.6 17.1439 13.55 17.2026C13.5 17.2026 13.45 17.2613 13.35 17.2613C13.3 17.2613 13.2 17.2613 13.15 17.2026C13.1 17.2026 13.05 17.1439 12.95 17.1439C12.9 17.1439 12.8 17.1439 12.75 17.2026C12.7 17.2613 12.65 17.2613 12.55 17.2613V17.3787C12.6 17.3787 12.7 17.3787 12.75 17.32C12.8 17.32 12.85 17.2613 12.95 17.2613C13 17.2613 13.1 17.2613 13.15 17.32C13.2 17.3787 13.25 17.3787 13.35 17.3787C13.4 17.3787 13.5 17.3787 13.55 17.32C13.6 17.32 13.65 17.2613 13.75 17.2613C13.8 17.2613 13.9 17.2613 13.95 17.32C14 17.3787 14.05 17.3787 14.15 17.3787V17.2613V17.1439V17.0266V16.9092V16.7919C13.95 16.7332 13.9 16.7332 13.85 16.7332ZM13.45 16.7332C13.4 16.7332 13.35 16.7919 13.25 16.7919C13.2 16.7919 13.1 16.7919 13.05 16.7332H13.45ZM13.85 16.8506C13.8 16.8506 13.75 16.7919 13.65 16.7919C13.6 16.7919 13.5 16.7919 13.45 16.8506C13.4 16.9092 13.35 16.9092 13.25 16.9092C13.2 16.9092 13.1 16.9092 13.05 16.8506C13.1 16.9092 13.15 16.9092 13.25 16.9092C13.3 16.9092 13.4 16.9092 13.45 16.8506C13.5 16.8506 13.55 16.7919 13.65 16.7919C13.7 16.7919 13.8 16.7919 13.85 16.8506Z" fill="#BC091C"/>
<path d="M14.05 13.6804C14.05 13.6804 14.2 13.2107 14.25 13.2107C14.25 13.0346 14.05 12.8584 13.7 12.741V11.6254H12.95V12.6236C12.65 12.6236 12.35 12.6823 12.2 12.741V10.9209H10.45C10.75 10.8621 11.05 10.8034 11.3 10.7447C11.35 10.7447 11.35 10.686 11.35 10.686C11.35 10.686 11.35 10.6273 11.3 10.6273C11.25 10.6273 11.25 10.5686 11.3 10.5099L11.4 10.4511L11.35 10.3924C11.4 10.3337 11.4 10.3337 11.45 10.3337C11.5 10.3337 11.5 10.3337 11.5 10.275C11.5 10.2163 11.5 10.2163 11.45 10.2163C11.4 10.2163 11.4 10.2163 11.35 10.2163H11.4C11.45 10.2163 11.55 10.2163 11.6 10.1576C11.65 10.0989 11.75 9.98142 11.75 9.98142C11.8 9.98142 11.8 9.98142 11.85 9.98142C11.9 9.92271 11.9 9.86399 11.85 9.86399C11.85 9.86399 11.9 9.74657 11.95 9.68785C12 9.62914 12.1 9.68785 12.1 9.68785C12.1 9.57042 12.05 9.51171 11.95 9.51171V9.453L12 9.39428C12.05 9.27685 12.1 9.15942 12.1 9.042C12.1 8.80714 11.95 8.631 11.8 8.45485L11.85 8.51357C11.7 8.39614 11.45 8.27871 11.2 8.27871C11.15 8.27871 11.05 8.27871 11 8.27871C11 8.27871 11 8.27871 10.95 8.27871H10.9C10.9 8.27871 10.9 8.27871 10.85 8.27871C10.8 8.22 10.75 8.16128 10.7 8.10257C10.75 8.16128 10.8 8.22 10.8 8.22C10.7 8.04385 10.45 7.86771 10.2 7.86771C10.05 7.86771 9.90002 7.92643 9.75002 7.98514C9.75002 7.98514 9.75002 7.92643 9.70002 7.92643C9.70002 7.92643 9.70002 7.92643 9.75002 7.92643C9.80002 7.92643 9.80002 7.92643 9.80002 7.86771C9.80002 7.809 9.80002 7.809 9.75002 7.809C9.70002 7.809 9.70002 7.809 9.70002 7.86771C9.70002 7.86771 9.65002 7.809 9.60002 7.809C9.65002 7.809 9.70002 7.75028 9.75002 7.69157C9.75002 7.69157 9.75002 7.63285 9.75002 7.57414C9.75002 7.45671 9.70002 7.398 9.60002 7.33928V7.16314H9.70002V7.04571H9.60002V6.92828H9.50002V7.04571H9.40002V7.16314H9.50002V7.33928C9.40002 7.33928 9.35002 7.45671 9.35002 7.57414C9.35002 7.63285 9.35002 7.63285 9.35002 7.69157C9.40002 7.75028 9.45002 7.809 9.50002 7.809C9.45002 7.809 9.45002 7.86771 9.40002 7.86771C9.40002 7.809 9.40002 7.809 9.35002 7.809C9.30002 7.809 9.30002 7.809 9.30002 7.86771C9.30002 7.92643 9.30002 7.92643 9.35002 7.92643C9.35002 7.92643 9.35002 7.92643 9.40002 7.92643C9.40002 7.92643 9.40002 7.98514 9.35002 7.98514C9.25002 7.92643 9.10002 7.86771 8.90002 7.86771C8.65002 7.86771 8.40002 7.98514 8.30002 8.22C8.35002 8.16128 8.35002 8.10257 8.40002 8.10257C8.35002 8.16128 8.30002 8.22 8.25002 8.27871C8.25002 8.27871 8.25002 8.27871 8.20002 8.27871C8.20002 8.27871 8.20002 8.27871 8.15002 8.27871C8.15002 8.27871 8.15002 8.27871 8.10002 8.27871C8.05002 8.27871 7.95002 8.27871 7.90002 8.27871C7.65002 8.27871 7.45002 8.33742 7.30002 8.45485C7.10002 8.57228 7.00002 8.80714 7.00002 9.042C7.00002 9.15942 7.05002 9.27685 7.10002 9.39428L7.15002 9.453C7.10002 9.453 7.05002 9.51171 7.05002 9.62914C7.05002 9.62914 7.15002 9.62914 7.20002 9.62914C7.25002 9.68785 7.30002 9.80528 7.30002 9.80528C7.30002 9.86399 7.30002 9.86399 7.35002 9.92271C7.40002 9.98142 7.40002 9.98142 7.45002 9.92271C7.50002 9.98142 7.55002 10.0989 7.60002 10.0989C7.65002 10.1576 7.75002 10.1576 7.80002 10.1576C7.80002 10.1576 7.80002 10.1576 7.85002 10.1576H7.80002C7.75002 10.1576 7.75002 10.2163 7.75002 10.2163C7.75002 10.275 7.80002 10.275 7.80002 10.275C7.80002 10.275 7.85002 10.275 7.90002 10.3337L7.85002 10.3924L7.95002 10.4511C7.95002 10.5099 7.95002 10.5686 7.95002 10.5686L7.90002 10.6273C7.90002 10.686 7.90002 10.686 7.95002 10.686C8.20002 10.7447 8.45002 10.8034 8.80002 10.8621H7.05002V12.6823C6.90002 12.6236 6.60002 12.5648 6.30002 12.5648V11.5667H5.55002V12.6823C5.20002 12.7997 4.95002 12.9758 5.00002 13.152L5.20002 13.6217C5.20002 13.7391 5.35002 13.7978 5.60002 13.7978V13.3868C5.55002 13.3868 5.45002 13.3868 5.40002 13.3868C5.45002 13.3281 5.50002 13.3281 5.60002 13.2694V13.3868V14.3263C5.30002 14.4437 5.10002 14.6198 5.10002 14.6786L5.15002 15.1483C5.15002 15.207 5.20002 15.207 5.25002 15.2657C5.35002 15.3244 5.35002 15.4418 5.35002 15.5006C5.40002 15.4418 5.45002 15.3244 5.45002 15.2657C5.45002 15.1483 5.40002 15.0896 5.35002 15.0308C5.40002 14.9721 5.50002 14.9134 5.60002 14.9134V16.1464H6.35002V14.5024C6.60002 14.3263 6.70002 14.2088 6.70002 14.1501C6.70002 14.1501 6.65002 13.7391 6.65002 13.6804C6.60002 13.6217 6.50002 13.6217 6.35002 13.563V13.974V13.152C6.65002 13.152 6.95002 13.2107 7.10002 13.3281V13.974V15.8528C7.10002 15.9116 7.10002 15.9703 7.10002 16.029C7.10002 16.1464 7.15002 16.3226 7.20002 16.44C7.25002 16.4987 7.25002 16.5574 7.30002 16.6748C7.30002 16.7336 7.35002 16.7336 7.35002 16.7923C7.45002 16.9097 7.60002 17.0271 7.70002 17.1446C8.20002 17.4381 8.85002 17.6143 9.45002 17.6143C10.05 17.6143 10.7 17.4381 11.2 17.1446C11.45 16.9684 11.65 16.7336 11.75 16.3813C11.8 16.2638 11.8 16.0877 11.8 15.9703V14.0914V13.3868C11.95 13.3281 12.25 13.2694 12.55 13.2694V13.5043C12.4 13.5043 12.3 13.563 12.25 13.6217L12.2 14.0914C12.15 14.1501 12.3 14.2676 12.55 14.4437V16.0877H13.3V14.8547C13.4 14.9134 13.45 14.9134 13.55 14.9721C13.5 15.0308 13.45 15.1483 13.45 15.207C13.45 15.3244 13.5 15.3831 13.55 15.4418C13.5 15.3831 13.55 15.2657 13.65 15.207C13.7 15.1483 13.75 15.1483 13.75 15.0896L13.8 14.6198C13.8 14.5611 13.6 14.385 13.3 14.2676V13.2107C13.35 13.2694 13.45 13.2694 13.5 13.3281C13.45 13.3281 13.4 13.3281 13.3 13.3281V13.7391C13.9 13.7978 14 13.7391 14.05 13.6804ZM12 9.15942C12 9.15942 12 9.10071 12.05 9.10071C12.05 9.10071 12.05 9.10071 12 9.15942ZM11.05 8.33742C11.15 8.33742 11.2 8.33742 11.3 8.33742C11.65 8.33742 11.95 8.51357 12 8.68971C12 8.74842 12.05 8.80714 12.05 8.86585C12.05 8.92457 12.05 9.042 12 9.10071C11.95 9.042 11.85 8.98328 11.75 8.92457C11.5 8.80714 11.35 8.80714 11.2 8.80714C11.15 8.80714 11.1 8.80714 11.1 8.80714V8.74842V8.68971C11.15 8.68971 11.15 8.68971 11.15 8.631C11.15 8.631 11.15 8.57228 11.1 8.57228V8.51357C11.1 8.51357 11.15 8.51357 11.15 8.45485C11.15 8.39614 11.15 8.39614 11.1 8.39614C11.05 8.39614 11.05 8.33742 11.05 8.33742ZM8.40002 8.39614C8.35002 8.39614 8.35002 8.39614 8.35002 8.45485C8.35002 8.45485 8.35002 8.51357 8.40002 8.51357V8.57228C8.40002 8.57228 8.35002 8.57228 8.35002 8.631C8.35002 8.68971 8.35002 8.68971 8.40002 8.68971V8.74842C8.40002 8.74842 8.40002 8.74842 8.40002 8.80714C8.35002 8.80714 8.30002 8.80714 8.25002 8.80714C8.10002 8.80714 7.95002 8.86585 7.75002 8.92457C7.65002 8.98328 7.60002 9.042 7.50002 9.10071C7.45002 9.042 7.45002 8.98328 7.45002 8.86585C7.45002 8.80714 7.45002 8.74842 7.50002 8.68971C7.60002 8.45485 7.85002 8.33742 8.20002 8.33742C8.25002 8.33742 8.35002 8.33742 8.40002 8.33742C8.40002 8.33742 8.40002 8.33742 8.45002 8.33742C8.40002 8.33742 8.40002 8.39614 8.40002 8.39614ZM6.80002 13.7391L6.75002 13.7978C6.80002 13.7978 6.80002 13.7391 6.80002 13.7391ZM10.35 7.98514C10.65 7.98514 10.9 8.16128 10.95 8.45485V8.51357C10.95 8.631 10.9 8.68971 10.85 8.74842C10.7 8.74842 10.6 8.68971 10.5 8.631C10.35 8.57228 10.15 8.51357 9.95002 8.51357C9.95002 8.45485 9.95002 8.39614 9.95002 8.33742C9.95002 8.33742 9.95002 8.33742 9.95002 8.27871C9.95002 8.22 9.95002 8.16128 9.95002 8.16128C10 8.04385 10.15 7.98514 10.35 7.98514ZM8.95002 8.631C8.85002 8.68971 8.75002 8.68971 8.60002 8.74842C8.55002 8.68971 8.50002 8.57228 8.50002 8.51357V8.45485C8.50002 8.22 8.75002 7.98514 9.10002 7.98514C9.25002 7.98514 9.40002 8.04385 9.50002 8.10257C9.50002 8.16128 9.50002 8.16128 9.50002 8.22C9.50002 8.22 9.50002 8.22 9.50002 8.27871C9.50002 8.33742 9.50002 8.39614 9.50002 8.45485C9.30002 8.51357 9.10002 8.57228 8.95002 8.631ZM9.75002 10.3924C9.60002 10.3924 9.50002 10.3924 9.35002 10.3924C9.45002 10.3924 9.60002 10.3924 9.75002 10.3924C9.85002 10.3924 9.90002 10.3924 10 10.3924C9.90002 10.3924 9.80002 10.3924 9.75002 10.3924Z" fill="#BC091C"/>
<path d="M7.3 9.4534C7.32761 9.4534 7.35 9.42702 7.35 9.39449C7.35 9.36195 7.32761 9.33557 7.3 9.33557C7.27239 9.33557 7.25 9.36195 7.25 9.39449C7.25 9.42702 7.27239 9.4534 7.3 9.4534Z" fill="#BC091C"/>
<path d="M7.24995 9.33597C7.27757 9.33597 7.29995 9.30959 7.29995 9.27705C7.29995 9.24452 7.27757 9.21814 7.24995 9.21814C7.22234 9.21814 7.19995 9.24452 7.19995 9.27705C7.19995 9.30959 7.22234 9.33597 7.24995 9.33597Z" fill="#BC091C"/>
<path d="M7.1999 9.15982C7.22752 9.15982 7.2499 9.13344 7.2499 9.10091C7.2499 9.06837 7.22752 9.04199 7.1999 9.04199C7.17229 9.04199 7.1499 9.06837 7.1499 9.10091C7.1499 9.13344 7.17229 9.15982 7.1999 9.15982Z" fill="#BC091C"/>
<path d="M7.1999 8.98367C7.22752 8.98367 7.2499 8.9573 7.2499 8.92476C7.2499 8.89222 7.22752 8.86584 7.1999 8.86584C7.17229 8.86584 7.1499 8.89222 7.1499 8.92476C7.1499 8.9573 7.17229 8.98367 7.1999 8.98367Z" fill="#BC091C"/>
<path d="M7.1999 8.74881C7.22752 8.74881 7.2499 8.72243 7.2499 8.6899C7.2499 8.65736 7.22752 8.63098 7.1999 8.63098C7.17229 8.63098 7.1499 8.65736 7.1499 8.6899C7.1499 8.72243 7.17229 8.74881 7.1999 8.74881Z" fill="#BC091C"/>
<path d="M7.3 8.63138C7.32761 8.63138 7.35 8.605 7.35 8.57246C7.35 8.53993 7.32761 8.51355 7.3 8.51355C7.27239 8.51355 7.25 8.53993 7.25 8.57246C7.25 8.605 7.27239 8.63138 7.3 8.63138Z" fill="#BC091C"/>
<path d="M7.4001 8.45523C7.42771 8.45523 7.4501 8.42885 7.4501 8.39632C7.4501 8.36378 7.42771 8.3374 7.4001 8.3374C7.37248 8.3374 7.3501 8.36378 7.3501 8.39632C7.3501 8.42885 7.37248 8.45523 7.4001 8.45523Z" fill="#BC091C"/>
<path d="M7.55 8.33783C7.57761 8.33783 7.6 8.31145 7.6 8.27892C7.6 8.24638 7.57761 8.22 7.55 8.22C7.52239 8.22 7.5 8.24638 7.5 8.27892C7.5 8.31145 7.52239 8.33783 7.55 8.33783Z" fill="#BC091C"/>
<path d="M7.6501 8.27911C7.67771 8.27911 7.7001 8.25274 7.7001 8.2202C7.7001 8.18766 7.67771 8.16129 7.6501 8.16129C7.62248 8.16129 7.6001 8.18766 7.6001 8.2202C7.6001 8.25274 7.62248 8.27911 7.6501 8.27911Z" fill="#BC091C"/>
<path d="M7.85005 8.2204C7.87766 8.2204 7.90005 8.19402 7.90005 8.16148C7.90005 8.12895 7.87766 8.10257 7.85005 8.10257C7.82243 8.10257 7.80005 8.12895 7.80005 8.16148C7.80005 8.19402 7.82243 8.2204 7.85005 8.2204Z" fill="#BC091C"/>
<path d="M7.99995 8.16168C8.02757 8.16168 8.04995 8.13531 8.04995 8.10277C8.04995 8.07023 8.02757 8.04385 7.99995 8.04385C7.97234 8.04385 7.94995 8.07023 7.94995 8.10277C7.94995 8.13531 7.97234 8.16168 7.99995 8.16168Z" fill="#BC091C"/>
<path d="M8.1501 8.16168C8.17771 8.16168 8.2001 8.13531 8.2001 8.10277C8.2001 8.07023 8.17771 8.04385 8.1501 8.04385C8.12248 8.04385 8.1001 8.07023 8.1001 8.10277C8.1001 8.13531 8.12248 8.16168 8.1501 8.16168Z" fill="#BC091C"/>
<path d="M8.3 8.16168C8.32761 8.16168 8.35 8.13531 8.35 8.10277C8.35 8.07023 8.32761 8.04385 8.3 8.04385C8.27239 8.04385 8.25 8.07023 8.25 8.10277C8.25 8.13531 8.27239 8.16168 8.3 8.16168Z" fill="#BC091C"/>
<path d="M8.49995 8.16168C8.52757 8.16168 8.54995 8.13531 8.54995 8.10277C8.54995 8.07023 8.52757 8.04385 8.49995 8.04385C8.47234 8.04385 8.44995 8.07023 8.44995 8.10277C8.44995 8.13531 8.47234 8.16168 8.49995 8.16168Z" fill="#BC091C"/>
<path d="M8.60005 8.04425C8.62766 8.04425 8.65005 8.01787 8.65005 7.98534C8.65005 7.9528 8.62766 7.92642 8.60005 7.92642C8.57243 7.92642 8.55005 7.9528 8.55005 7.98534C8.55005 8.01787 8.57243 8.04425 8.60005 8.04425Z" fill="#BC091C"/>
<path d="M8.74995 7.98553C8.77757 7.98553 8.79995 7.95916 8.79995 7.92662C8.79995 7.89408 8.77757 7.86771 8.74995 7.86771C8.72234 7.86771 8.69995 7.89408 8.69995 7.92662C8.69995 7.95916 8.72234 7.98553 8.74995 7.98553Z" fill="#BC091C"/>
<path d="M8.9001 7.92682C8.92771 7.92682 8.9501 7.90044 8.9501 7.8679C8.9501 7.83537 8.92771 7.80899 8.9001 7.80899C8.87248 7.80899 8.8501 7.83537 8.8501 7.8679C8.8501 7.90044 8.87248 7.92682 8.9001 7.92682Z" fill="#BC091C"/>
<path d="M9.05 7.8681C9.07761 7.8681 9.1 7.84173 9.1 7.80919C9.1 7.77665 9.07761 7.75027 9.05 7.75027C9.02239 7.75027 9 7.77665 9 7.80919C9 7.84173 9.02239 7.8681 9.05 7.8681Z" fill="#BC091C"/>
<path d="M9.1999 7.8681C9.22752 7.8681 9.2499 7.84173 9.2499 7.80919C9.2499 7.77665 9.22752 7.75027 9.1999 7.75027C9.17229 7.75027 9.1499 7.77665 9.1499 7.80919C9.1499 7.84173 9.17229 7.8681 9.1999 7.8681Z" fill="#BC091C"/>
<path d="M9.4001 7.92682C9.42771 7.92682 9.4501 7.90044 9.4501 7.8679C9.4501 7.83537 9.42771 7.80899 9.4001 7.80899C9.37248 7.80899 9.3501 7.83537 9.3501 7.8679C9.3501 7.90044 9.37248 7.92682 9.4001 7.92682Z" fill="#BC091C"/>
<path d="M10.05 7.92682C10.0776 7.92682 10.1 7.90044 10.1 7.8679C10.1 7.83537 10.0776 7.80899 10.05 7.80899C10.0224 7.80899 10 7.83537 10 7.8679C10 7.90044 10.0224 7.92682 10.05 7.92682Z" fill="#BC091C"/>
<path d="M10.1999 7.8681C10.2275 7.8681 10.2499 7.84173 10.2499 7.80919C10.2499 7.77665 10.2275 7.75027 10.1999 7.75027C10.1723 7.75027 10.1499 7.77665 10.1499 7.80919C10.1499 7.84173 10.1723 7.8681 10.1999 7.8681Z" fill="#BC091C"/>
<path d="M10.4001 7.8681C10.4277 7.8681 10.4501 7.84173 10.4501 7.80919C10.4501 7.77665 10.4277 7.75027 10.4001 7.75027C10.3725 7.75027 10.3501 7.77665 10.3501 7.80919C10.3501 7.84173 10.3725 7.8681 10.4001 7.8681Z" fill="#BC091C"/>
<path d="M10.55 7.92682C10.5776 7.92682 10.6 7.90044 10.6 7.8679C10.6 7.83537 10.5776 7.80899 10.55 7.80899C10.5224 7.80899 10.5 7.83537 10.5 7.8679C10.5 7.90044 10.5224 7.92682 10.55 7.92682Z" fill="#BC091C"/>
<path d="M10.6999 7.98553C10.7275 7.98553 10.7499 7.95916 10.7499 7.92662C10.7499 7.89408 10.7275 7.86771 10.6999 7.86771C10.6723 7.86771 10.6499 7.89408 10.6499 7.92662C10.6499 7.95916 10.6723 7.98553 10.6999 7.98553Z" fill="#BC091C"/>
<path d="M10.85 8.04425C10.8777 8.04425 10.9 8.01787 10.9 7.98534C10.9 7.9528 10.8777 7.92642 10.85 7.92642C10.8224 7.92642 10.8 7.9528 10.8 7.98534C10.8 8.01787 10.8224 8.04425 10.85 8.04425Z" fill="#BC091C"/>
<path d="M10.9499 8.16168C10.9775 8.16168 10.9999 8.13531 10.9999 8.10277C10.9999 8.07023 10.9775 8.04385 10.9499 8.04385C10.9223 8.04385 10.8999 8.07023 10.8999 8.10277C10.8999 8.13531 10.9223 8.16168 10.9499 8.16168Z" fill="#BC091C"/>
<path d="M11.1501 8.16168C11.1777 8.16168 11.2001 8.13531 11.2001 8.10277C11.2001 8.07023 11.1777 8.04385 11.1501 8.04385C11.1225 8.04385 11.1001 8.07023 11.1001 8.10277C11.1001 8.13531 11.1225 8.16168 11.1501 8.16168Z" fill="#BC091C"/>
<path d="M11.3 8.16168C11.3276 8.16168 11.35 8.13531 11.35 8.10277C11.35 8.07023 11.3276 8.04385 11.3 8.04385C11.2724 8.04385 11.25 8.07023 11.25 8.10277C11.25 8.13531 11.2724 8.16168 11.3 8.16168Z" fill="#BC091C"/>
<path d="M11.4499 8.16168C11.4775 8.16168 11.4999 8.13531 11.4999 8.10277C11.4999 8.07023 11.4775 8.04385 11.4499 8.04385C11.4223 8.04385 11.3999 8.07023 11.3999 8.10277C11.3999 8.13531 11.4223 8.16168 11.4499 8.16168Z" fill="#BC091C"/>
<path d="M11.6 8.2204C11.6277 8.2204 11.65 8.19402 11.65 8.16148C11.65 8.12895 11.6277 8.10257 11.6 8.10257C11.5724 8.10257 11.55 8.12895 11.55 8.16148C11.55 8.19402 11.5724 8.2204 11.6 8.2204Z" fill="#BC091C"/>
<path d="M11.75 8.27911C11.7776 8.27911 11.8 8.25274 11.8 8.2202C11.8 8.18766 11.7776 8.16129 11.75 8.16129C11.7223 8.16129 11.7 8.18766 11.7 8.2202C11.7 8.25274 11.7223 8.27911 11.75 8.27911Z" fill="#BC091C"/>
<path d="M11.9001 8.33783C11.9277 8.33783 11.9501 8.31145 11.9501 8.27892C11.9501 8.24638 11.9277 8.22 11.9001 8.22C11.8725 8.22 11.8501 8.24638 11.8501 8.27892C11.8501 8.31145 11.8725 8.33783 11.9001 8.33783Z" fill="#BC091C"/>
<path d="M12.05 8.45523C12.0776 8.45523 12.1 8.42885 12.1 8.39632C12.1 8.36378 12.0776 8.3374 12.05 8.3374C12.0224 8.3374 12 8.36378 12 8.39632C12 8.42885 12.0224 8.45523 12.05 8.45523Z" fill="#BC091C"/>
<path d="M12.1501 8.63138C12.1777 8.63138 12.2001 8.605 12.2001 8.57246C12.2001 8.53993 12.1777 8.51355 12.1501 8.51355C12.1225 8.51355 12.1001 8.53993 12.1001 8.57246C12.1001 8.605 12.1225 8.63138 12.1501 8.63138Z" fill="#BC091C"/>
<path d="M12.25 8.74881C12.2776 8.74881 12.3 8.72243 12.3 8.6899C12.3 8.65736 12.2776 8.63098 12.25 8.63098C12.2223 8.63098 12.2 8.65736 12.2 8.6899C12.2 8.72243 12.2223 8.74881 12.25 8.74881Z" fill="#BC091C"/>
<path d="M12.25 8.98367C12.2776 8.98367 12.3 8.9573 12.3 8.92476C12.3 8.89222 12.2776 8.86584 12.25 8.86584C12.2223 8.86584 12.2 8.89222 12.2 8.92476C12.2 8.9573 12.2223 8.98367 12.25 8.98367Z" fill="#BC091C"/>
<path d="M12.25 9.15982C12.2776 9.15982 12.3 9.13344 12.3 9.10091C12.3 9.06837 12.2776 9.04199 12.25 9.04199C12.2223 9.04199 12.2 9.06837 12.2 9.10091C12.2 9.13344 12.2223 9.15982 12.25 9.15982Z" fill="#BC091C"/>
<path d="M12.1999 9.33597C12.2275 9.33597 12.2499 9.30959 12.2499 9.27705C12.2499 9.24452 12.2275 9.21814 12.1999 9.21814C12.1723 9.21814 12.1499 9.24452 12.1499 9.27705C12.1499 9.30959 12.1723 9.33597 12.1999 9.33597Z" fill="#BC091C"/>
<path d="M12.1501 9.4534C12.1777 9.4534 12.2001 9.42702 12.2001 9.39449C12.2001 9.36195 12.1777 9.33557 12.1501 9.33557C12.1225 9.33557 12.1001 9.36195 12.1001 9.39449C12.1001 9.42702 12.1225 9.4534 12.1501 9.4534Z" fill="#BC091C"/>
</svg>
