<svg width="98" height="105" viewBox="0 0 98 105" fill="none" xmlns="http://www.w3.org/2000/svg">
<path d="M37.1484 43.26C38.9081 46.41 40.6678 49.77 42.4274 52.92C44.7736 49.56 47.1199 45.99 49.4661 42.63C53.3764 42.63 57.2868 42.63 61.1971 42.63" stroke="#073D37" stroke-width="3" stroke-miterlimit="10" stroke-linecap="round" stroke-linejoin="round"/>
<path d="M60.415 63.2099C62.1747 65.3099 63.9344 67.4099 65.4985 69.5099C67.2582 67.1999 69.0178 65.0999 70.582 62.7899C73.9058 62.7899 77.0341 62.7899 80.3579 62.7899" stroke="#073D37" stroke-width="3" stroke-miterlimit="10" stroke-linecap="round" stroke-linejoin="round"/>
<path d="M15.6414 64.26C17.401 66.57 19.1607 68.88 20.9203 71.19C22.68 68.67 24.6352 66.36 26.3948 63.84C29.7186 63.84 33.238 63.84 36.5618 63.84" stroke="#073D37" stroke-width="3" stroke-miterlimit="10" stroke-linecap="round" stroke-linejoin="round"/>
<path d="M50.2481 85.47C39.2991 85.47 28.3501 85.68 17.4011 85.68" stroke="#073D37" stroke-width="3" stroke-miterlimit="10" stroke-linecap="round" stroke-linejoin="round"/>
<path d="M31.6738 53.55C36.3663 42.84 41.2542 32.13 45.9466 21.21C47.1197 18.69 50.4435 18.69 51.6167 21C56.3091 30.66 61.197 40.32 65.8895 50.1899" stroke="#073D37" stroke-width="3" stroke-miterlimit="10" stroke-linecap="round" stroke-linejoin="round"/>
<path d="M50.6392 85.4699C56.7002 72.0299 62.5658 58.3799 68.6268 44.9399C69.2134 43.4699 71.1685 43.4699 71.7551 44.9399L91.5024 85.4699H50.6392Z" stroke="#073D37" stroke-width="3" stroke-miterlimit="10" stroke-linecap="round" stroke-linejoin="round"/>
<path d="M6.25659 85.6799C12.1221 72.2399 17.9877 59.0099 24.0487 45.5699C24.8308 43.8899 26.9815 43.8899 27.7636 45.5699L47.3154 85.4699L6.25659 85.6799Z" stroke="#073D37" stroke-width="3" stroke-miterlimit="10" stroke-linecap="round" stroke-linejoin="round"/>
</svg>
