<svg width="85" height="95" viewBox="0 0 85 95" fill="none" xmlns="http://www.w3.org/2000/svg">
<path d="M12.9199 79.99C31.7899 74.67 50.6599 69.16 69.5299 63.84C70.0399 66.31 70.7199 68.97 71.2299 71.44C52.5299 76.95 33.6599 82.27 14.9599 87.78C14.2799 85.31 13.5999 82.65 12.9199 79.99Z" stroke="#073D37" stroke-width="3" stroke-miterlimit="10" stroke-linecap="round" stroke-linejoin="round"/>
<path d="M22.2701 73.91C19.2101 73.15 16.1501 72.39 13.0901 71.63C13.7701 69.16 14.4501 66.88 14.9601 64.41C23.4601 67.07 32.1301 69.73 40.6301 72.2" stroke="#073D37" stroke-width="3" stroke-miterlimit="10" stroke-linejoin="round"/>
<path d="M61.8801 77.14C64.9401 78.09 68.1701 79.04 71.2301 79.8C70.5501 82.08 69.8701 84.55 69.3601 86.83C60.1801 84.55 51.0001 82.27 41.8201 79.8" stroke="#073D37" stroke-width="3" stroke-miterlimit="10" stroke-linecap="round" stroke-linejoin="round"/>
<path d="M37.0599 62.51C30.0899 63.46 23.2899 60.23 19.8899 54.15C15.4699 46.36 17.1699 34.77 24.6499 28.12C24.4799 28.69 23.4599 33.06 26.0099 37.05C28.7299 41.23 33.3199 41.23 33.6599 41.23" stroke="#073D37" stroke-width="3" stroke-miterlimit="10" stroke-linecap="round" stroke-linejoin="round"/>
<path d="M32.64 34.77C32.64 31.92 32.98 26.22 36.04 19.95C40.12 11.97 46.24 8.35997 48.45 7.21997C48.11 8.35997 42.5 25.46 51 36.1C52.19 37.62 54.23 39.71 57.29 41.23C57.8 40.47 58.99 38.57 59.16 36.1C59.67 31.54 56.95 28.31 56.61 27.93C63.58 30.59 68.17 37.43 68.34 44.84C68.51 53.96 61.54 62.32 52.36 63.27C53.55 61.56 54.06 59.85 54.23 58.71C55.08 52.06 49.64 44.46 40.46 39.71C43.52 44.46 41.99 50.54 38.93 52.25C36.04 53.77 31.28 52.06 29.41 46.93C29.24 47.88 28.73 50.54 29.75 53.58C30.43 55.48 31.28 56.62 31.96 57.38" stroke="#073D37" stroke-width="3" stroke-miterlimit="10" stroke-linecap="round" stroke-linejoin="round"/>
</svg>
