<svg width="85" height="95" viewBox="0 0 85 95" fill="none" xmlns="http://www.w3.org/2000/svg">
<g clip-path="url(#clip0_5_112)">
<path d="M74.29 32.8699C74.29 50.9199 74.46 69.16 74.46 87.21C67.15 83.03 59.84 78.8499 52.36 74.6699C45.05 78.8499 37.91 82.8399 30.6 87.0199C23.29 82.8399 15.98 78.66 8.5 74.48C8.5 56.24 8.5 37.9999 8.5 19.5699C15.81 23.7499 23.12 27.7399 30.43 31.9199C37.57 28.1199 44.88 24.1299 52.02 20.3299" stroke="#073D37" stroke-width="3" stroke-miterlimit="10" stroke-linejoin="round"/>
<path d="M52.3601 27.9301C52.3601 35.7201 52.3601 43.7001 52.3601 51.4901" stroke="#073D37" stroke-width="3" stroke-miterlimit="10" stroke-linejoin="round"/>
<path d="M52.53 59.85C52.53 64.79 52.53 69.92 52.53 74.86" stroke="#073D37" stroke-width="3" stroke-miterlimit="10" stroke-linejoin="round"/>
<path d="M74.8001 26.41C76.1601 24.32 77.0101 21.85 77.0101 19C77.0101 11.97 71.9101 6.07996 65.4501 6.07996C58.3101 6.07996 54.2301 13.49 54.0601 19C54.0601 19.38 54.0601 21.47 54.9101 23.75C55.0801 24.32 55.4201 24.89 55.7601 25.46" stroke="#073D37" stroke-width="3" stroke-miterlimit="10" stroke-linejoin="round"/>
<path d="M55.5901 25.46C58.8201 30.78 61.8801 36.1 65.1101 41.42C68.5101 36.1 71.9101 30.78 75.3101 25.46" stroke="#073D37" stroke-width="3" stroke-miterlimit="10" stroke-linejoin="round"/>
<path d="M65.62 24.51C68.155 24.51 70.21 22.2132 70.21 19.38C70.21 16.5468 68.155 14.25 65.62 14.25C63.085 14.25 61.03 16.5468 61.03 19.38C61.03 22.2132 63.085 24.51 65.62 24.51Z" stroke="#073D37" stroke-width="3" stroke-miterlimit="10" stroke-linejoin="round"/>
<path d="M17.1699 57.76C19.3799 60.23 21.5899 62.7 23.7999 65.17" stroke="#073D37" stroke-width="3" stroke-miterlimit="10" stroke-linejoin="round"/>
<path d="M23.7999 57.76C21.5899 60.23 19.3799 62.7 17.1699 65.17" stroke="#073D37" stroke-width="3" stroke-miterlimit="10" stroke-linejoin="round"/>
<path d="M64.4301 47.3101C63.9201 48.2601 63.5801 49.0201 63.0701 49.9701" stroke="#073D37" stroke-width="3" stroke-miterlimit="10" stroke-linejoin="round"/>
<path d="M60.86 53.01C59.33 53.77 57.8 54.53 56.27 55.29" stroke="#073D37" stroke-width="3" stroke-miterlimit="10" stroke-linejoin="round"/>
<path d="M53.2099 56.05C51.5099 55.48 49.8099 54.91 47.9399 54.53" stroke="#073D37" stroke-width="3" stroke-miterlimit="10" stroke-linejoin="round"/>
<path d="M44.88 53.2C43.35 52.25 41.82 51.11 40.46 50.16" stroke="#073D37" stroke-width="3" stroke-miterlimit="10" stroke-linejoin="round"/>
<path d="M37.7399 48.64C36.2099 47.69 34.6799 46.74 33.1499 45.79" stroke="#073D37" stroke-width="3" stroke-miterlimit="10" stroke-linejoin="round"/>
<path d="M29.75 45.41C28.05 45.41 26.18 45.6 24.48 45.6" stroke="#073D37" stroke-width="3" stroke-miterlimit="10" stroke-linejoin="round"/>
<path d="M22.4399 48.26C21.7599 49.97 21.0799 51.87 20.3999 53.58" stroke="#073D37" stroke-width="3" stroke-miterlimit="10" stroke-linejoin="round"/>
<path d="M30.6001 49.97C30.6001 62.32 30.6001 74.86 30.7701 87.21" stroke="#073D37" stroke-width="3" stroke-miterlimit="10" stroke-linejoin="round"/>
<path d="M30.6001 32.11C30.6001 34.96 30.6001 40.85 30.6001 40.85" stroke="#073D37" stroke-width="3" stroke-miterlimit="10" stroke-linejoin="round"/>
</g>
<defs>
<clipPath id="clip0_5_112">
<rect width="85" height="95" fill="white"/>
</clipPath>
</defs>
</svg>
