<svg width="75" height="52" viewBox="0 0 75 52" fill="none" xmlns="http://www.w3.org/2000/svg">
<path d="M32.0801 11.9385C28.3691 12.0361 25.415 12.6465 23.2178 13.7695C21.0205 14.8438 19.2871 16.5527 18.0176 18.8965C23.0957 18.8965 27.2949 20.1416 30.6152 22.6318C33.9844 25.1221 35.6689 29.1748 35.6689 34.79C35.6689 36.8896 35.3027 38.9404 34.5703 40.9424C33.8379 42.9443 32.7148 44.7266 31.2012 46.2891C29.6875 47.8027 27.8564 49.0723 25.708 50.0977C23.5596 51.0742 21.0938 51.5625 18.3105 51.5625C12.793 51.5625 8.34961 49.7803 4.98047 46.2158C1.66016 42.6025 0 37.793 0 31.7871C0 28.4668 0.463867 25.1221 1.3916 21.7529C2.36816 18.335 4.07715 15.1855 6.51855 12.3047C8.95996 9.375 12.2559 6.81152 16.4062 4.61426C20.5566 2.41699 25.7812 0.878906 32.0801 0V11.9385ZM71.1182 11.9385C67.4072 12.0361 64.4531 12.6465 62.2559 13.7695C60.0586 14.8438 58.3008 16.5527 56.9824 18.8965C62.1094 18.8965 66.333 20.1416 69.6533 22.6318C73.0225 25.1221 74.707 29.1748 74.707 34.79C74.707 36.8896 74.3164 38.9404 73.5352 40.9424C72.8027 42.9443 71.6797 44.7266 70.166 46.2891C68.7012 47.8027 66.8945 49.0723 64.7461 50.0977C62.5977 51.0742 60.1074 51.5625 57.2754 51.5625C51.8066 51.5625 47.3877 49.7803 44.0186 46.2158C40.6494 42.6025 38.9648 37.793 38.9648 31.7871C38.9648 28.4668 39.4287 25.1221 40.3564 21.7529C41.333 18.335 43.042 15.1855 45.4834 12.3047C47.9736 9.375 51.2939 6.81152 55.4443 4.61426C59.5947 2.41699 64.8193 0.878906 71.1182 0V11.9385Z" fill="#17C3B2" fill-opacity="0.5"/>
</svg>
