<svg width="0" height="0" class="hidden">
  <symbol version="1.1" id="facebook" xmlns="http://www.w3.org/2000/svg" xmlns:xlink="http://www.w3.org/1999/xlink" xml:space="preserve" viewBox="-143 145 512 512">
    <path d="M113,145c-141.4,0-256,114.6-256,256s114.6,256,256,256s256-114.6,256-256S254.4,145,113,145z M169.5,357.6l-2.9,38.3h-39.3
	v133H77.7v-133H51.2v-38.3h26.5v-25.7c0-11.3,0.3-28.8,8.5-39.7c8.7-11.5,20.6-19.3,41.1-19.3c33.4,0,47.4,4.8,47.4,4.8l-6.6,39.2
	c0,0-11-3.2-21.3-3.2c-10.3,0-19.5,3.7-19.5,14v29.9H169.5z"></path>
  </symbol>
  <symbol xmlns="http://www.w3.org/2000/svg" viewBox="0 0 19.2 19.2" id="instagram">
    <path d="M13.498 6.651a1.656 1.656 0 0 0-.95-.949 2.766 2.766 0 0 0-.928-.172c-.527-.024-.685-.03-2.02-.03s-1.493.006-2.02.03a2.766 2.766 0 0 0-.929.172 1.656 1.656 0 0 0-.949.95 2.766 2.766 0 0 0-.172.928c-.024.527-.03.685-.03 2.02s.006 1.493.03 2.02a2.766 2.766 0 0 0 .172.929 1.656 1.656 0 0 0 .95.949 2.766 2.766 0 0 0 .928.172c.527.024.685.029 2.02.029s1.493-.005 2.02-.03a2.766 2.766 0 0 0 .929-.171 1.656 1.656 0 0 0 .949-.95 2.766 2.766 0 0 0 .172-.928c.024-.527.029-.685.029-2.02s-.005-1.493-.03-2.02a2.766 2.766 0 0 0-.171-.929zM9.6 12.168A2.568 2.568 0 1 1 12.168 9.6 2.568 2.568 0 0 1 9.6 12.168zm2.669-4.637a.6.6 0 1 1 .6-.6.6.6 0 0 1-.6.6zM11.267 9.6A1.667 1.667 0 1 1 9.6 7.933 1.667 1.667 0 0 1 11.267 9.6zM9.6 0a9.6 9.6 0 1 0 9.6 9.6A9.6 9.6 0 0 0 9.6 0zm4.97 11.661a3.67 3.67 0 0 1-.233 1.214 2.556 2.556 0 0 1-1.462 1.462 3.67 3.67 0 0 1-1.213.233c-.534.024-.704.03-2.062.03s-1.528-.006-2.062-.03a3.67 3.67 0 0 1-1.213-.233 2.556 2.556 0 0 1-1.462-1.462 3.67 3.67 0 0 1-.233-1.213c-.024-.534-.03-.704-.03-2.062s.006-1.528.03-2.062a3.67 3.67 0 0 1 .232-1.213 2.556 2.556 0 0 1 1.463-1.463 3.67 3.67 0 0 1 1.213-.232c.534-.024.704-.03 2.062-.03s1.528.006 2.062.03a3.67 3.67 0 0 1 1.213.232 2.556 2.556 0 0 1 1.462 1.463 3.67 3.67 0 0 1 .233 1.213c.024.534.03.704.03 2.062s-.006 1.528-.03 2.062z"></path>
  </symbol>
  <symbol xmlns="http://www.w3.org/2000/svg" viewBox="0 -960 960 960" id="language">
    <path d="M480-80q-82 0-155-31.5t-127.5-86Q143-252 111.5-325T80-480q0-83 31.5-155.5t86-127Q252-817 325-848.5T480-880q83 0 155.5 31.5t127 86q54.5 54.5 86 127T880-480q0 82-31.5 155t-86 127.5q-54.5 54.5-127 86T480-80Zm0-82q26-36 45-75t31-83H404q12 44 31 83t45 75Zm-104-16q-18-33-31.5-68.5T322-320H204q29 50 72.5 87t99.5 55Zm208 0q56-18 99.5-55t72.5-87H638q-9 38-22.5 73.5T584-178ZM170-400h136q-3-20-4.5-39.5T300-480q0-21 1.5-40.5T306-560H170q-5 20-7.5 39.5T160-480q0 21 2.5 40.5T170-400Zm216 0h188q3-20 4.5-39.5T580-480q0-21-1.5-40.5T574-560H386q-3 20-4.5 39.5T380-480q0 21 1.5 40.5T386-400Zm268 0h136q5-20 7.5-39.5T800-480q0-21-2.5-40.5T790-560H654q3 20 4.5 39.5T660-480q0 21-1.5 40.5T654-400Zm-16-240h118q-29-50-72.5-87T584-782q18 33 31.5 68.5T638-640Zm-234 0h152q-12-44-31-83t-45-75q-26 36-45 75t-31 83Zm-200 0h118q9-38 22.5-73.5T376-782q-56 18-99.5 55T204-640Z"></path>
  </symbol>
  <symbol xmlns="http://www.w3.org/2000/svg" viewBox="0 -960 960 960" id="mobile">
    <path d="M280-40q-33 0-56.5-23.5T200-120v-720q0-33 23.5-56.5T280-920h400q33 0 56.5 23.5T760-840v124q18 7 29 22t11 34v80q0 19-11 34t-29 22v404q0 33-23.5 56.5T680-40H280Zm0-80h400v-720H280v720Zm0 0v-720 720Zm200-40q17 0 28.5-11.5T520-200q0-17-11.5-28.5T480-240q-17 0-28.5 11.5T440-200q0 17 11.5 28.5T480-160Z"></path>
  </symbol>
  <symbol xmlns="http://www.w3.org/2000/svg" viewBox="0 -960 960 960" id="contact">
    <path d="M560-520h280v-200H560v200Zm140-50-100-70v-40l100 70 100-70v40l-100 70ZM80-120q-33 0-56.5-23.5T0-200v-560q0-33 23.5-56.5T80-840h800q33 0 56.5 23.5T960-760v560q0 33-23.5 56.5T880-120H80Zm556-80h244v-560H80v560h4q42-75 116-117.5T360-360q86 0 160 42.5T636-200ZM360-400q50 0 85-35t35-85q0-50-35-85t-85-35q-50 0-85 35t-35 85q0 50 35 85t85 35ZM182-200h356q-34-38-80.5-59T360-280q-51 0-97 21t-81 59Zm178-280q-17 0-28.5-11.5T320-520q0-17 11.5-28.5T360-560q17 0 28.5 11.5T400-520q0 17-11.5 28.5T360-480Zm120 0Z"></path>
  </symbol>
  <symbol version="1.1" id="linkedin" xmlns="http://www.w3.org/2000/svg" xmlns:xlink="http://www.w3.org/1999/xlink" xml:space="preserve" viewBox="-143 145 512 512">
    <path d="M113,145c-141.4,0-256,114.6-256,256s114.6,256,256,256s256-114.6,256-256S254.4,145,113,145z M41.4,508.1H-8.5V348.4h49.9
	V508.1z M15.1,328.4h-0.4c-18.1,0-29.8-12.2-29.8-27.7c0-15.8,12.1-27.7,30.5-27.7c18.4,0,29.7,11.9,30.1,27.7
	C45.6,316.1,33.9,328.4,15.1,328.4z M241,508.1h-56.6v-82.6c0-21.6-8.8-36.4-28.3-36.4c-14.9,0-23.2,10-27,19.6
	c-1.4,3.4-1.2,8.2-1.2,13.1v86.3H71.8c0,0,0.7-146.4,0-159.7h56.1v25.1c3.3-11,21.2-26.6,49.8-26.6c35.5,0,63.3,23,63.3,72.4V508.1z
	"></path>
  </symbol>
  <symbol xmlns="http://www.w3.org/2000/svg" viewBox="0 -960 960 960" id="location">
    <path d="M480-480q33 0 56.5-23.5T560-560q0-33-23.5-56.5T480-640q-33 0-56.5 23.5T400-560q0 33 23.5 56.5T480-480Zm0 294q122-112 181-203.5T720-552q0-109-69.5-178.5T480-800q-101 0-170.5 69.5T240-552q0 71 59 162.5T480-186Zm0 106Q319-217 239.5-334.5T160-552q0-150 96.5-239T480-880q127 0 223.5 89T800-552q0 100-79.5 217.5T480-80Zm0-480Z"></path>
  </symbol>
 <symbol id="twitter-x" xmlns="http://www.w3.org/2000/svg" viewBox="0 0 1175.16 1175.16">
    <defs></defs>
    <g id="Calque_1-2">
      <g>
        <path d="M587.58,0C263.07,0,0,263.07,0,587.58s263.07,587.58,587.58,587.58,587.58-263.07,587.58-587.58S912.09,0,587.58,0ZM721.42,925.76l-180.45-262.6-225.91,262.6h-58.39l258.38-300.33L256.67,249.4h197.07l170.86,248.67,213.93-248.67h58.38l-246.38,286.39h-.01l267.96,389.97h-197.07Z"></path>
        <polygon points="593.87 533.81 425.77 293.35 336.09 293.35 544.39 591.3 570.57 628.75 570.57 628.76 748.88 883.81 838.56 883.81 620.05 571.25 593.87 533.81"></polygon>
      </g>
    </g>
  </symbol>
   <symbol xmlns="http://www.w3.org/2000/svg" viewBox="0 -960 960 960" id="arrow_left">
    <path d="M400-240 160-480l240-240 56 58-142 142h486v80H314l142 142-56 58Z"></path>
  </symbol>
   <symbol xmlns="http://www.w3.org/2000/svg" viewBox="0 -960 960 960" id="arrow_right">
    <path d="m560-240-56-58 142-142H160v-80h486L504-662l56-58 240 240-240 240Z"></path>
  </symbol>
  <symbol enable-background="new 0 0 512 512" id="fb_icon" version="1.1" xml:space="preserve" xmlns="http://www.w3.org/2000/svg" xmlns:xlink="http://www.w3.org/1999/xlink" viewBox="0 0 512 512">
    <g>
      <path d="M308.3,508.5c-2.5,0.1-4.1,0.3-5.7,0.3c-34.2,0-68.3-0.1-102.5,0.1c-4.8,0-6.1-1.3-6.1-6.1c0.1-79.6,0.1-159.3,0.1-238.9   c0-2.1,0-4.2,0-6.9c-18.6,0-36.7,0-55.1,0c0-28.4,0-56.3,0-85c1.9,0,3.7,0,5.4,0c15,0,30-0.1,45,0.1c3.8,0,4.8-1.1,4.8-4.8   c-0.2-22.3-0.2-44.7,0-67c0.1-15.6,2.6-30.8,9.8-44.9c10.3-19.9,26.6-32.8,47.2-40.8c16.8-6.6,34.5-9,52.3-9.3   c29-0.4,58-0.2,87-0.3c2.7,0,4.9-0.1,4.9,3.7c-0.1,27.5-0.1,55-0.1,82.5c0,0.3-0.1,0.6-0.5,1.9c-1.7,0-3.6,0-5.5,0   c-18,0-36-0.1-54,0c-10.4,0-18.8,4.2-24.1,13.3c-1.6,2.7-2.6,6.2-2.6,9.4c-0.3,17,0,34-0.2,51c0,4,1.2,5.1,5.1,5.1   c25-0.2,50-0.1,75-0.1c2,0,3.9,0,7.3,0c-3.5,28.6-6.9,56.6-10.4,84.9c-26,0-51.3,0-77.1,0C308.3,340.8,308.3,424.4,308.3,508.5z"></path>
    </g>
  </symbol>
  <symbol enable-background="new 0 0 512 512" id="linkedin_icon" version="1.1" xml:space="preserve" xmlns="http://www.w3.org/2000/svg" xmlns:xlink="http://www.w3.org/1999/xlink" viewBox="0 0 512 512">
    <g>
      <path d="M173.5,508.7c0-2.4,0-4.7,0-7c0-107.7,0-215.3,0-323c0-3-0.2-5.4,4.2-5.4c31.8,0.2,63.7,0.1,95.5,0.1   c0.8,0,1.6,0.2,2.9,0.4c0,14,0,27.8,0,41.7c0.4,0.1,0.7,0.3,1.1,0.4c4-5.2,7.8-10.6,12-15.7c12.2-15,27.5-26,45.5-32.6   c9.8-3.6,20.5-5.8,30.8-6.3c14.2-0.6,28.7-0.4,42.7,2c23,3.9,43.3,14.1,60.1,30.8c15.9,15.7,26.4,34.6,32.1,55.9   c3,11.3,4.9,22.9,6.7,34.4c1.2,8,1.8,16.2,1.8,24.2c0.1,65,0.1,130,0.1,195c0,1.6-0.1,3.2-0.2,5.3c-1.9,0-3.5,0-5.1,0   c-30.7,0-61.3-0.1-92,0.1c-5.1,0-6-1.7-6-6.3c0.1-59.8,0.3-119.7-0.1-179.5c-0.1-10.5-1.1-21.4-3.8-31.5   c-4.9-17.7-16.1-30.5-33.9-37c-15-5.5-30.2-6.5-45.6-2.6c-17,4.3-28.7,15.6-37.5,30.5c-6.8,11.5-8.1,24.2-8.2,36.9   c-0.4,60.7-0.2,121.3-0.2,182c0,2.3,0,4.6,0,7.1C241.9,508.7,208,508.7,173.5,508.7z"></path>
      <path d="M109.1,342.6c0,53.3-0.1,106.6,0.1,159.9c0,4.8-1,6.6-6.3,6.5c-30.5-0.3-61-0.3-91.5,0c-5,0-6.1-1.7-6.1-6.3   c0.1-107.1,0.1-214.3,0-321.4c0-4.3,1.2-5.8,5.6-5.8c30.8,0.2,61.6,0.2,92.5,0c4.8,0,5.7,1.8,5.7,6.1   C109.1,235.3,109.1,289,109.1,342.6z"></path>
      <path d="M56.1,4.8C89,4,108.7,27.9,108.8,57.2c0.1,30-20.9,52.4-53.9,52.3c-30.7,0-52.4-22-52.3-53.1C2.7,27.3,23.8,3.8,56.1,4.8z"></path>
    </g>
  </symbol>
  <symbol xmlns="http://www.w3.org/2000/svg" viewBox="0 0 24 24" id="github_icon">
    <g>
      <path fill="none" d="M0 0h24v24H0z"></path>
      <path d="M12 2C6.475 2 2 6.475 2 12a9.994 9.994 0 0 0 6.838 9.488c.5.087.687-.213.687-.476 0-.237-.013-1.024-.013-1.862-2.512.463-3.162-.612-3.362-1.175-.113-.288-.6-1.175-1.025-1.413-.35-.187-.85-.65-.013-.662.788-.013 1.35.725 1.538 1.025.9 1.512 2.338 1.087 2.912.825.088-.65.35-1.087.638-1.337-2.225-.25-4.55-1.113-4.55-4.938 0-1.088.387-1.987 1.025-2.688-.1-.25-.45-1.275.1-2.65 0 0 .837-.262 2.75 1.026a9.28 9.28 0 0 1 2.5-.338c.85 0 1.7.112 2.5.337 1.912-1.3 2.75-1.024 2.75-1.024.55 1.375.2 2.4.1 2.65.637.7 1.025 1.587 1.025 2.687 0 3.838-2.337 4.688-4.562 4.938.362.312.675.912.675 1.85 0 1.337-.013 2.412-.013 2.75 0 .262.188.574.688.474A10.016 10.016 0 0 0 22 12c0-5.525-4.475-10-10-10z"></path>
    </g>
  </symbol>
  <symbol xmlns="http://www.w3.org/2000/svg" viewBox="0 0 1200 1227" id="twitter-x_icon">
    <path d="M714.163 519.284L1160.89 0H1055.03L667.137 450.887L357.328 0H0L468.492 681.821L0 1226.37H105.866L515.491 750.218L842.672 1226.37H1200L714.137 519.284H714.163ZM569.165 687.828L521.697 619.934L144.011 79.6944H306.615L611.412 515.685L658.88 583.579L1055.08 1150.3H892.476L569.165 687.854V687.828Z" fill="white"></path>
  </symbol>
  <symbol version="1" xmlns="http://www.w3.org/2000/svg" viewBox="0 0 300 342" id="database_icon">
    <g>
      <path d="M123 1.1C63.8 5.9 19.2 24 5.8 48.7-.2 59.6 0 55.7 0 171s-.2 111.4 5.8 122.3c9.6 17.7 36.8 32.9 73.4 41.1 61.5 13.8 137.1 8 182.3-14 16.9-8.2 29.9-20.3 34.8-32.4l2.2-5.5v-223l-2.2-5.5c-6.5-16-25.4-30.4-52.3-39.8C212 3 163.8-2.2 123 1.1zm65.3 22.4c44.6 5.9 76.1 18.6 86.1 34.8 14.4 23.3-17.5 46.7-76.2 55.7-57.7 8.9-123.8.9-157.2-19-14.2-8.4-21.7-20.1-19.1-29.8C27.8 43 69.1 26.4 130.5 21.6c10.2-.8 46.4.4 57.8 1.9zM27.7 111.7c46.1 29.5 147.4 35.9 214.2 13.6 10.7-3.5 24.6-10.1 31.4-14.7 2.1-1.4 4-2.6 4.2-2.6.3 0 .5 9.3.5 20.7v20.8l-3 5.1c-4.1 7.3-10.8 12.6-23.5 18.9-24.9 12.3-59.6 18.7-101.5 18.7-54.9 0-101-11.7-120.1-30.6-8-7.9-8.4-9.2-8.7-32.9-.2-11.4-.1-20.7.2-20.7.3 0 3.1 1.6 6.3 3.7zm.1 62c6 4.9 21.4 12.7 31.9 16.2 27.4 9.2 64.4 13.9 99.8 12.7 49.2-1.5 89.8-12 112-28.7l6.5-5v44.6l-3 5.1c-10.2 17.8-44.7 31.4-93 36.5-16.6 1.8-52.6 1.5-69.5-.6-44.4-5.3-77-18.2-87.5-34.6l-3.5-5.3-.3-22.8c-.2-12.6-.1-22.8.2-22.8.4 0 3.2 2.1 6.4 4.7zm-2.7 61.9c7 7.5 28.5 17.4 48.7 22.5 69.2 17.5 160.3 8.2 197.8-20.2l6.4-4.8v21.7c0 21.5 0 21.9-2.6 27-3.6 7.3-11.1 13.4-23.9 19.7-42.1 20.7-116.6 25.3-173.4 10.9-22.3-5.7-39.2-13.7-48.4-22.8-7.9-7.9-8.2-9.1-8.5-34.4-.2-12.3.1-22.2.6-22.2s1.9 1.2 3.3 2.6z"></path>
      <path d="M240.4 140.9c-9 5.5-4.7 19.1 5.9 19.1 10.5 0 13.6-15 4-19.9-3.2-1.6-6.4-1.4-9.9.8zm.9 63.5c-3.9 1.8-5.6 4.8-5.6 10 0 8.7 11.1 13 17.4 6.7 8.1-8.2-1.2-21.4-11.8-16.7zm.2 63.9c-6.5 3-7.9 12.2-2.6 16.9 4.4 4 10.2 3.9 14.2-.1 7.9-8-1.4-21.4-11.6-16.8z"></path>
    </g>
  </symbol>
    <symbol version="1.1" id="screen_icon" xmlns="http://www.w3.org/2000/svg" xmlns:xlink="http://www.w3.org/1999/xlink" x="0px" y="0px" xml:space="preserve" viewBox="0 0 612 612">
    <g>
      <path d="M611.979,94.842c0-14.168-11.513-25.681-25.661-25.681H25.692C11.564,69.161,0.01,80.674,0,94.853v305.236v58.52
		c0.041,14.117,11.564,25.641,25.692,25.66H239.92v6.727c0.103,17.109-15.911,25.629-21.263,27.998h-3.506
		c-9.903,0-14.312,5.598-14.312,11.123v1.6c0,5.547,4.409,11.123,14.312,11.123h181.718c9.894,0,14.312-5.576,14.312-11.123v-1.6
		c0-5.525-4.429-11.123-14.312-11.123h-3.547c-5.331-2.369-21.335-10.918-21.222-28.051v-6.674h214.229
		c14.138-0.02,25.65-11.543,25.65-25.691L612,400.089L611.979,94.842z M255.257,518.87c5.516-8.242,8.448-17.705,8.499-27.928
		v-6.674h84.477v6.727c0.062,10.18,2.983,19.633,8.51,27.875H255.257z M568.274,394.255H43.735V106.028h524.539V394.255z"></path>
    </g>
    <g></g>
    <g></g>
    <g></g>
    <g></g>
    <g></g>
    <g></g>
    <g></g>
    <g></g>
    <g></g>
    <g></g>
    <g></g>
    <g></g>
    <g></g>
    <g></g>
    <g></g>
  </symbol>
  <symbol version="1.1" id="tools_icon" xmlns="http://www.w3.org/2000/svg" xmlns:xlink="http://www.w3.org/1999/xlink" x="0px" y="0px" xml:space="preserve" viewBox="0 0 581.176 581.176">
    <g>
      <g>
        <polygon points="386.046,344.565 381.906,348.706 116.235,83.036 124.541,74.73 99.623,33.224 33.224,0 0,33.224 33.224,99.623 
			74.73,124.541 83.036,116.235 237.653,270.877 0,508.529 72.647,581.176 310.3,343.524 348.706,381.906 344.565,386.071 
			344.299,427.334 498.141,581.176 581.176,498.141 427.31,344.299 		"></polygon>
        <path d="M298.87,209.659l72.647,72.647l4.649-4.649c18.234,8.233,38.406,12.931,59.716,12.931
			c80.227,0,145.294-65.068,145.294-145.294c0-14.65-2.228-28.792-6.272-42.16l-90.591,90.591l-72.647-24.216l-24.216-72.647
			l90.591-90.591C464.675,2.228,450.533,0,435.882,0c-80.227,0-145.294,65.068-145.294,145.294c0,21.31,4.698,41.481,12.931,59.716
			L298.87,209.659z"></path>
      </g>
    </g>
    <g></g>
    <g></g>
    <g></g>
    <g></g>
    <g></g>
    <g></g>
    <g></g>
    <g></g>
    <g></g>
    <g></g>
    <g></g>
    <g></g>
    <g></g>
    <g></g>
    <g></g>
  </symbol>
  <symbol xmlns="http://www.w3.org/2000/svg" viewBox="0 0 512 512" id="server_icon">
    <path d="M480 160H32c-17.673 0-32-14.327-32-32V64c0-17.673 14.327-32 32-32h448c17.673 0 32 14.327 32 32v64c0 17.673-14.327 32-32 32zm-48-88c-13.255 0-24 10.745-24 24s10.745 24 24 24 24-10.745 24-24-10.745-24-24-24zm-64 0c-13.255 0-24 10.745-24 24s10.745 24 24 24 24-10.745 24-24-10.745-24-24-24zm112 248H32c-17.673 0-32-14.327-32-32v-64c0-17.673 14.327-32 32-32h448c17.673 0 32 14.327 32 32v64c0 17.673-14.327 32-32 32zm-48-88c-13.255 0-24 10.745-24 24s10.745 24 24 24 24-10.745 24-24-10.745-24-24-24zm-64 0c-13.255 0-24 10.745-24 24s10.745 24 24 24 24-10.745 24-24-10.745-24-24-24zm112 248H32c-17.673 0-32-14.327-32-32v-64c0-17.673 14.327-32 32-32h448c17.673 0 32 14.327 32 32v64c0 17.673-14.327 32-32 32zm-48-88c-13.255 0-24 10.745-24 24s10.745 24 24 24 24-10.745 24-24-10.745-24-24-24zm-64 0c-13.255 0-24 10.745-24 24s10.745 24 24 24 24-10.745 24-24-10.745-24-24-24z"></path>
  </symbol>
</svg>

